<mxfile host="app.diagrams.net" agent="Mozilla/5.0 (Windows NT 10.0; Win64; x64) AppleWebKit/537.36 (KHTML, like Gecko) Chrome/135.0.0.0 Safari/537.36" version="26.2.5">
  <diagram name="PÃ¡gina-1" id="spXLvUnfo4q3pRunHPN5">
    <mxGraphModel dx="874" dy="431" grid="1" gridSize="10" guides="1" tooltips="1" connect="1" arrows="1" fold="1" page="1" pageScale="1" pageWidth="827" pageHeight="1169" math="0" shadow="0">
      <root>
        <mxCell id="0" />
        <mxCell id="1" parent="0" />
        <mxCell id="aRUOHbeHuca7O0_OhKyN-1" value="" style="shape=image;verticalLabelPosition=bottom;labelBackgroundColor=default;verticalAlign=top;aspect=fixed;imageAspect=0;image=data:image/png,iVBORw0KGgoAAAANSUhEUgAAAskAAAF3CAYAAABXHdZ1AAAAAXNSR0IArs4c6QAAAARnQU1BAACxjwv8YQUAAAAJcEhZcwAADsMAAA7DAcdvqGQAAP+lSURBVHhe7J0JXJRV+/d/A7OCwoCCuLGp4AqhRC6JS5qU5Fbmvjzq09/MTEtFK0UTxcwsc0lJpZIsRXPJrSTXUgwTZBE0VCRFRUGRRbaZ6z2zsApzDwOYPe/59hmbezvnOtd2rrnnPoOIGOBwOBwOh8PhcDilmOn/z+FwOBwOh8PhcPTwIpnD4XA4HA6Hw6kEL5I5HA6Hw+FwOJxKVCySVVexO/hzHLmj1u+ojBr34w4j/MRVFOr3GIvqbhS+C5qGES/3Ra/e/TBk4jxsOJ6KAv1xYYoRu/UDzJo5G+tOZVWxbQgV7kZ9h6BpI/By317o3W8IJs7bgOOpxvdeE9TZt3AruzodcjgcDofD4XCeejQL97SoMujEh91IKfWmJQnF+p0VUaVuo5EtxSTzC6F7+n3G8PDsSvJrLiER607TZclLJLanPsGRlK0/zzCPaOdoGzKDlPp8caOK7ep4SGdX+lFziahC34CIxPZ9KDjSuN6N4z6d3/IW+Tp1oQ+iivT7OBwOh8PhcDj/NrR3kgv+PoqVo7pj4Io/kaspIauiOAlfvvEu9qTrt40l+1e8P24+fk4DWg5cjB/PXUFK0imETveBUp2O4x+9gy/ii/Un1z3Zv76PcfN/RhpaYuDiH3HuSgqSToViuo8S6vTj+OidL1Bn3RfGY+vyjTiZVtP77BwOh8PhcDicpwkzqP/GxglD8fntAVgX+hbcxPojFchD1LJJWJo5EfOH2ECk32sMGXvXISy5CGYtx2P9dwsxtIsrnNyfx8TPv0Hg4C7o7ecJq4eP2JlqpB9fjhHejrCWmsFMrEDjNr3wxpZY5OqaMoEM7F0XhuQiM7Qcvx7fLRyKLq5OcH9+Ij7/JhCDu/SGn6cVtN0zilP3Y+EQTzS1kEDSoDmeGbYQ+6/rK+iCCMzv5Y1nX16M7dvnYIC7LWQSSzTzHof1f+YAqhRsmfImvk9VsYau4OsJ3TD00xgUs/9S9y/EEM+msJBI0KD5Mxi2cD9KmkXWbrzdzRvPvb4E697rDntFAzgN34IU1gyHw+FwOBwO55+BVaONMHh9DJJOrMboNvIqC+D7v76PSRstEbDlfTwjr0mJXIALZ6KRrTaDVfcB6G2t363BvC3e+fEcjv64EdO7N4Q640fMGv0hwmOL0OblURj5cjuYp5zCprfn4Ns0E5/vLbiAM9HZUJtZofuA3qjY/Tv48dxR/LhxOlj3QH4kFg0ZgaB9iUB7P/h3keGvPUF4fUggzuSx46pMXI05jz9//QRT3tyNgg590M0RuP3nd5g9awMuqwiqwkKw/zHUKC4sQGGxijW7CENGBEHXrD+6yP7CnqDXMSTwDPvowSi+h+ToPxG1dyne/ewM7ubnQ+zgiqbmmoMcDofD4XA4nH8CM8ACTm1d0EC/ozLqWzsx8/92o+3yTZjeQaLfaywq3Lt3n5WMIljZNkKVN6lLKHbEkIUrsPzrgzi55zts/WYVRruJQYUpSL5m4vMQqnu4d58V2CIr2DYy2DtyDq5FyIVHEHeej0O//4Tdx07g85esURC7Cet/ztGfBVCxBfzW/M6K+1345bu30FZMKEiMQ6LaBf/9djPGOrHqVtwGU74/jwMB7vhlbQguPBKj8/xD+P2n3Th24nO8ZF2A2E3rUa5ZUJE5POdGIPnKWeye/Txk+v0cDofD4XA4nCeP4Z+AK07GpjdmIrLvOqwf44Sa39w0g2UDBSuRCbk52doVc+UpLChgBbQOsyY+eKlXa5ifW4mhz7aBvUNfrL5YpKkeUVBY3YPS5VBdw67A/8OUKVN0r6nLcfieAg0UmuWCucjJfqx3FBSU9F6Mv2Li8UAtgqXVI5zbForQb37BPYUNzNT3EXv+EjtDj7k7nuvWWKs4ccuWcGBvqCgfpU2Vp/gvxMQ/gFpkCatH57AtNBTf/HIPChszqO/H4vylcsW/uDNef6M3Wrl2gYeT4YKew+FwOBwOh1O/GCySixO2YsPP6bi15w14tmiGZs1c8Z/wDBQcn4uOjq9g7VWhB2el6NDRHWKRGlnn/6i4QE51BWsGNIfzc69h2bH7UCWuxuAeQzHni59wWdweg6a/hyHaB6RFMDPmCQ9VOv4I34LNmzfrXlv24UJ+e3R0F0OkzsL5P+LLCl2G6soaDGjujOdeW4Zj94tRkF/IinjCo4Q9WLN6NVavXoPtyVbo4NkJLSzVpcU8RHJYWOgFEot1Hxyqq+HVBcjXFPj0CAl71rA2WbtrtiPZqgM8O7WApbqsshaZ28LOnj9jweFwOBwOh/M0YLBINrP3xaT5czHjjUmYNEnzmoAB7nKIW/pi7H/84WktVL2awfHVUXjB2gxFFzfgvSXHcUdbVz9AzIb38NlvGbgRk4xHVhZI3vsDTt0H7Ed9jZgzexH68etoK9W3LzKiSha3xaSQn3Dw4EHd66dVeL2FC14d9QKszYpwkfW35Pgd6LqPwYb3PsNvGTcQk/wIVg2lcG7lCE13im4f4Mj5GMTEnMXXASMw6j/T8PbQTqzcL6N6cUT6Z7o15TZD7IxWjlK2T4FuHxzB+RjW7tmvETBiFP4z7W0M7VSuVTMxJIbv63M4HA6Hw+FwnhT6n4LTUvTHfOqoqP53kjW/Tbx3gj3JK/xOchElHdxIG8KjKEOl31WBIrq0aSi11PxOsciMFI0dycmhIUk0z2CIFNR++kG6p1LRzfUvkoVIROZN+9CM4OU0d1h7amjGzjFrSpMPPGLtmPg7yUWXaNPQltr+RGYKauzoRA4Ndb/ZLFK0p+kH75FGbFXatzTMzoxE4ibUffJiWrFwBHWwFJHIshsFxxUR5W6n163YGKT9aP1t3UBVt9dTPylrx+p12p6r6SuaFj4jYTIrqdvUZfTF3kT6+9thZGcmInGT7jR58QpaOKIDWbJxWnYLJk2zdC+E/GSsDcth9J2mDQ6Hw+FwOBzOP04d3LvMR+SGGXh7+QHcrOq5XIjhNvkHnDrwMSb3aQtlwW2kZQKN272AyZ8ewq+fv4RGZmZoNvpDzHm+MUS3j+GL9z9AyNWumDm+IyTqe4iO+qvCoxI1QuyGyT+cwoGPJ6NPWyUKbqchE43R7oXJ+PTQr/j8pUba2+lmTcdg3bfvo0/TLJzZHIi5H+1AkrgDxq/djFkdjXxGWNwOLw3yhBUe4MyGD/DB1hjYjFmHb9/vg6ZZZ7A5cC4+2pEEcYfxWLt5FoxtlsPhcDgcDofzZBFpKmX9+38edTZSLlzADXULdPJyhvU/8fhB8X1cvXARN/It4ezhAceGNRWiAHcunsflLHZ9p45o2UB3ffH9q7hw8QbyLZ3h4eGIGjfL4XA4HA6Hw3liPF1FMofD4XA4HA6H8xTA72dyOBwOh8PhcDiV4EUyh8PhcDgcDodTCV4kczgcDofD4XA4leBFMofD4XA4HA6HUwleJHM4HA6Hw+FwOJXgRTKHw+FwOBwOh1MJXiRzOBwOh8PhcDiV4EUyh8PhcDgcDodTCV4kczgcDofD4XA4leBFMofD4XA4HA6HUwleJHM4HA6Hw+FwOJXgRTKHw+FwOBwOh1MJXiRzOBwOh8PhcDiV4EUyh8PhcDgcDodTCV4kczgcDofD4XA4leBFMofD4XA4HA6HUwleJHM4HA6Hw+FwOJXgRTKHw+FwOBwOh1MJXiRzOBwOh8PhcDiV4EUyh8PhcDgcDodTiXovklXX9yF49kfYlazS7ymj8M9QBMxei5MP9Ds4TwAVru1dhjmrj+m364msU1g35yPsvPy43U2hIDUOiRlq/dbj5J3ZiDkLtum3DJGHMxvnYMG2BP12ZWqrHyOvz/kdX84JxA+JxfodRpB3BhvnLMC2hBpcUx7VNexdNgerj2Xod/wvUYDUuEQYcBFOvSMUW/8kT84/tHPeeyzOjqajTrv7H43frFPrMOejnY+9/6cQmmvqDHUWEvd/gTkTh2FAH1/09R+L91b/jKv5+uMm8YTm9yeM8fN73VP/RfKt3/Dtmq9x/O/HJ/biS/uxbs1OnH/IZ7YnhwppJ7/BuvBz+u36QZ0Tg13rQnHshokFXTlU177EEO/x2JZavZ8Upv6BQ79c0G8ZohCpfxzCLxfu6LcrU1v9GHe9OjcWP679ChHXaqCfwlT8cegXXLhj4gcPVRpOfrMO4ef+1z6VsonhyyHwHr8NBlyEU+8IxdY/xZP0j3ycXj0Xwb8Cnl3s63aC/Z+MXzVyYnZhXaimqCv//p/BmLmmTiiIR8jrndFlzDrEyzuh/9BX8WJ7FU4sfQXP9luM37L059WYJzO/P2mMn9/rHv64Beeph3LScTfHcNJSjtiM+LMf67cMocSIzfE4+3Ff/fa/COUIbI4/i4/7yvQ7ODoIOel3IeAinHrnaY2tJ+gfqhtItxmJjd8Fobe1fh/nX4Mxc03tKcS5ZRMw69cW+ODIORzasBizZ7yDeSu+x29HPkKHuGV4c/lZdhanBOPn97rn6SmSs3bj7Z5jsfK75Rj+jAMsJDLYuvth3r5U9tlIhzr9BD6d0Avu9paQmIshb+SGvm+FIbFAf0J1qO/g+IrR8GlpBalYDru2AzDr+0T2mV9H1u630XPscoQuGoIOjeWQWrZAtze/R2J8GN7s6YSGUils3AZi6cn7ZeePCsbmwIFws5FBpnRBzykhOFfy6S9zJ6b1HI35C15FO1tL2HrNxbE8jRjHsWK0D1paSSGW26HtgFn4PrFUCpxdOwE92tjBkvVn7eiN4UERuK2PV5PHjjzEb52BF9xsIZdao1W/+TiSTvpjGtS4c3wFRvu0hJWUtWvXFgNmsbEb8ZWP4fFUQsAGKE7FwSUj4OOkhEyigF2HV/Dh/lQUpYVh6vivkFSQjNCxPTBhSwpT7zT0HD0fC15tB1tLW3jNPaa1Sff+i/SNaZo7iCUjfOCklEGisEOHVz7E/lSNJ2Vh99vd0X/RSd2JQvpRp+PEpxPQy90elhJzNs5GcOv7FsJKFS+kX0MQMn8Pgr+7DaRSKzg/PwUh0dm6Q1X50C0WI937Y9FJTfrUjKMnxq78DsuHPwMHCwlktu7wm7cP2mFqyIvH1hkvwM2W+bR1K/SbfwQVTS80tmrIOou1E3qgjZ0lk9sajt7DERRxu/Sr5cJr+7BwqBeaNZBArLBHO79Z2HaRBYAWndyjgjcjcKAbbGQyKF16YkrIOXZET+E17Fs4FF7NGkAiVsC+nR9mbbvINK2jov1t0HHgIIz/KgkFyaEY22MCtqQwBQj5W3WYqhND8cva3D61BwZ9HFU28RXH4rNhPTD527+1m1ln12JCjzaws5QyWznCe3gQIkqCv0rUSN8+FT0GfYyoskYR+9kw9Jj8rX67djIJ5ZzH4/CnSrFViGv7FmKoVzM0kIihsG8Hv1nbUOYKhv2oOmqWC9VIC5tayT/uYue0nhg9fwFebWcLS1svzGUJ2lC7D/bPRm/fWdinmwJ05PyMeX17413tTn0e7dYH/1kShP/09qyURw3n9yoRjN+a+rgRPmPEPFwV1efbmtpLGEN9GdaJ4ZyprmKu0ejM0PxY1VwkSO7PWP9VHJpPDMJsn4b6nTrknm8jePm7GOkpg1Y9tZ1/TMhn6vTtmNpjED4ucxKWGj7DsB6T8e3fGoetXV4RksmY+d3wHFPHUD1TcGYOtZW60PSj+fo9ZeR+N4wspb3os+sqonsh5CeXUwOXF2j+1uMUFbmPgvyakaTpRNqbrTn7Hu0Y7UDyNiPpi8NRFBcXSfs+GUrOEiUN3Zqhba9qiihuhS8pbbrQG+sPUmT0afpx6WBysWhNUw/e155xL8SPWGFGTgMW0a7T0XRy/XByklhRI8dn6b8bI+iPyF00t7uS5N2Wl50vlVPjZybTl0dO04lt86mPg4Qc/7OHNJKobq+nflIzsvB8g7aeOkXhO05SekEcrfBVkk2XN2j9wUiKPv0jLR3sQhatp5JGjKI/3qdOlm1pQshRio4/T4c/HUqO0hY05WCOpkcTx06Uc/QdcpM1puff+5aOnzlOYQG9yUEsIkmPFdrjRXEryFdpQ13eWE8HI6Pp9I9LabCLBbWeepB02qmGIsPjUd34gvoonGnarxq7C9mggKKX+FADay+asuEIRZ07SiGTOpGlcgCti4umPUGasbakwYEhtCcmg26v70dSMwvyfGMrnToVTjtOpmttIrefoBWNCqJpiU8DsvaaQhuORNG5oyE0qZMlKQeso6vF9yjET072E/ZqTxXSz70do8lB3oZGfnGYouLiKHLfJzTUWULKoVu1tha6vjp0PiIicxtvmvZVBJ05uY3m92lCEucptD+zGh9K18SIPU3Y+4i1oBuHvIELvTB/Kx2PYj4R5EfNJE1pojZgcujoO24ka/w8vfftcTpzPIwCejuQWCShHiuStTIIja1qiuiP95lt2k6gkKPRFH/+MH061JGkLaaQ1lVzT1FAJwuyZrGx5sBpiozYQrN62JHUeRLtSWdxrpVbRlJ5Y3pm8pd05PQJ2ja/DzlIHOk/ezS95tKpgE5kYf0MTV5zgE5HRtCWWT3ITupMk/akk4r9V9n+34Z+Q0FDnUnScjAFhuyhmPvCMV8dpulEIH5VN+iLPgpynvYrlWbBgt/oXTeFzhZFf9D7zD/bTgiho9HxdP7wpzTUUUotphxkVqwOFd34og8pnKeRNsS0FNBv77qRoiS2ayOTYM553A47TiZViK3cUwHUycKa2XkNHTgdSRFbZlEPOyk5T9pD6SoBP6qWmufC7Ng9Ff0j4zat7yclMwtPemPrKToVvoNOpqcbbFd1+2sabGPD3t/Tt0p0f8coslf606ZbKsE8aji/V4VQ/Jri48I+IzwPV4FAvhXyoxKZKr6vBoN9CelEIGdmx1aaa+4L2LWqGEjXyWmAgsgAai+xo3G7c/V7qqe2848p+azi3K2j4Ld3yU3Rg1YkF9cyrwjJVLVOK8zvgnNM3fJ0FckyKfmuusbUpKPg+AxqJX+Wgi4WM+XfobPbVlPoCc1EqafgJM1sI6dngy4SO6Nq8iPoTSc5dQ1OKnfOPQp71ZasBoWSxqV1Ra/OAbTkH6GpjhJymnqENOWIJnjT1r5A8qaTtVva82XP0bKEkhbZ8U3+pLR6hTbfYdO4psCRyanfupulsuZHvElO8q4UnFRO0nth9KqtFQ0KTadHu0aTbcOeFHT+ge6a4hT6ZeM62hvPgtfUsVM27RprRwrfT6lkaKS6SRtfsiKpNojyKeJNJ5J3DaaKYr1KtlaDiIlVLULjqRBoQjYoOE4zWsnI44NzLGXryfmVgsZMprVn86kodhF1UXjQh+eL2AFdEMnk/WjdzVJtVAgird/IPOiDc6WtseaCaMzktXQ2v3yRLKQfFd05u41Wh55gk7ruMGudTs5sQ/Jng+hisdD11VPiI89/cqlUJ6qbG+klKzZ5fKuZlB/3IW2MVCiSWbHpu4qulZyg1aPOJyh7F421U5Dvp8mV2pfqk5XQ2PS7HuMR7RptSw17BtH5B7oLi1N+oY3r9pLGVbPDR1EjRTcKTixrQJW2hQYpLajvmuusV53csueWUVn4pNEmfyVZvbKZ7mSF06hGCuoWnFjmK+z4lkFKsui7hq6rqrJ/EcUu6kIKjw9J6yJGxHzVmKoTphWD8SswcTzaRaNtG1LPoPOkU2kxpfyykdbtjWceWh3CBU+tZBLMOVXZoWJshY9qRIpuwVTmCixPbhlESou+tOZ6rkE/qhaTcmEl/1BpimQZyfuto1LRBdvNpO0j7Uk5aAvd1p6QQd+91ogav/YdG7VwHjVoi6oQil+TfNzIItnQPFwFBvNtnrAf1aRINthXlpBOBHImo+JcI2TXquciIR7tn0xNJe1obmTZGKqmtvOPaflMqEiuVV4RlEl4fheeY+qW+n/cQiSCCGqoq/oGWlOks6PsFB0iJVxbO5Q+A2KmVKKhqBiFhexiM3v4jBgH76xdCA6YhvHD+sG7/WCsS1ZBrVazdqpGlRaDuFvFSNowDJ4dO6Kj9tULi07l4dHlBCTrvxMQWbWCW3Nz/YYFGijEaOrUEhLtDjNYWCggUpUtsjJ38UXv1vrz2XH7rj5oXZiE+Mv6c0Q2cHKy1Y9FhbSYONwqTsKGYZ56Gdir1yKcynuEywnJMOszHuMc/8QC72Zo4dkf4+btRrbPcAzs0MDksaM4BfGJ2Wju5Y2WpaLao3vXNhBr3qvSEBN3C8VJGzDMs0Q3HdFr0SnkPbqMhBLlPIbweMpfKWSDy7cTcPGmNTr7dIBUfw0s++KDsE14y6fq529FNk5wsq3KfdXITLiIm9ad4dOhtDXW3AcI2/QWKjQnpB+NXX1GYJx3FnYFB2Da+GHo590eg9clQ8X0ri4Sul4Acyd07eGMskufw7Ot8pEYd1mnvwo+VBUiKF1bw6EsYKBsKEJxYSEbWjwSs5vDy7tlufa7o2ubEskExlatU8nRZ/w4OP65AN7NWsCz/zjM250Nn+ED0aFBMa7GJSG3ZTf0dC3pVdOvL3q0V+FS7EUUafeYw8W3N8rCxx5dfVqjMCkeF/+KQ1JuS3Tr6Voqt+a4b4/2UF2KxUVdAwbsb3zMP46pOmFaMRS/Qsj7YPw4R/y5wBvNWnii/7h52J3tg+EDO8CIq6ulVjIxnRuTc6q1Q/FVxCXlomW3nihzBaZf3x5or7qE2IvmBvxIf3pVGCmXMCLYODmhVHTBdm3w8uiBsDyxEz/dYb6Q/hN2/CrFS2xfIyPyaE1tIRS/pvu4ERiahx9DIN8qTLWXGnf+2IVvQkMRqn19i4MJDw321SXDGJ1UnzMfw8j50VAuqgqRpQUULMPn5+t3VEtt5x/T85khapVXjJSpep0aO8fUHcZb1kTMWHGpQC6yH1a2iBoPsx6iWKSAhaVeDJE5zMvGraWkfoY6DeGTvOH9+kfYFZMJmasvJi4OxHBHgSEUFDB3tEKX0XMQEBBQ+lq4MgShwa+jlb5mEEkk+oK4DBGTpzpEcjau8l2bi1kyIxb4+m3NWMSl0jMxWEBZdcHoOWUyBAQsxMqQUAS/3gpimwH4/Ew0Dm2YDX+XHJzZNBev+Xhh+JarzHlMHDtzKJWK2UBcvmQTQS6X6fVaAJ1YozGnnG4CFq5ESGgwXi9RThUIjkd/nhYhGxCTk11hLinTlxAi5ijl1FuBomI2aLE5hJsT0o8aaeGT4O39Oj7aFYNMmSt8Jy5G4HBHfeAIXS+EBFJJeRuKIdZssg+PWir50OOIWLxUEzBMByomZUXR5JDLSk4QGlv12Az4HGeiD2HDbH+45JzBprmvwcdrOLZcVaFQ80FSLKlofzYOjRxqtUo/KTIdKRQV+jFn9gKxJFmoYloVQ1KxAXZc2wBUpaqp3v7GxvzjmK4TppTq41d/SsUMqJkQSvbYYMDnZxB9aANm+7sg58wmzH3NB17Dt4Cp1DAVG2Uq0tx40FMbmYzMOdXboRA6V6iobBHLk2JNP8yQhvyoWkzOhZXRxI64NFyMabdB/zEYbPsbdu69iVt7d+BEQ3+MflGzOs+IPGqELSogFL8m+zjDkM9oMDQPV4HBfGuyvVgsnvgGX6xejdXa1xcI/zMLBYb6MkonBnLmYxg3PxrMRVUgadcRbpKbSIi/y0ZZGRVSdi3B/M9/xnVVbeefWuSzx52kdFqqXa4zTiZDOjVujqk7hHVVS8QtW8NJnoWYqHjmwOV5iNORCaBmrdDGUr/LAOob4Vi//R76ro7CuZ9/wFcrF2K6fxMUaX4+rrQyfRzzpi5wtMhFnnU3jB43DuO0rzEY4NUK7h6ty+4k1BBVahKScvQbjJz4eFw1d4V76Z268pijqYsjLHLzYN1ttF4G9hozAF6t3OHRWon7UT9g9c7b6Dx5MUL2nEHyzVis6pWDg2EHkJZq2tghdkIbFxluXUxAZulpBbh0+ToLL4Z5U7g4WiA3zxrdRpfoZhzGDPBCK3cPtK5WOULjqXj3U8gGje2c4WiVieRL5RbtFCdi05tjELj/FguAGmQg1nMjZ0dYZSbjUrlVMcWJm/DmmEDsv1VOX0L6Ud9A+PrtuNd3NaLO/YwfvlqJhdP90aTooSbsoRa6XgjVTVz+q5wTZcchLkUMF7dKHzJMQOzUBi6yW7iYkFmm04JLuHxdL5nQ2HRnPY46A1E/rMbO250xeXEI9pxJxs3YVeiVcxBhB+7BifmF+EY84u+XayEvFnF/AS2cXSDR7lAhNSkJZSPPQXz8VZi7uqOdK/MV8Q22fb+cDHmI1TUAF10Dj1HeRUyOeVN1wo5kGIjf22pN0UEoLHhUlsALb+P2PV2L6owo/LB6J253nozFIXtwJvkmYlf1Qs7BMBwwsLJLM9lTYQEelTWK27fv6eWspUwm5ttSWGy4OIpxg+XFiq4Qh7/QAs5ODw340W392Y9jqlxCKcSoduU9MWZYM0Tu+QZbwn9D4yFj0EczdwnmUQjYQtd8eYTi11QfN+wzpmA43+77c7uJfiSG15x9+DMmBjHa1zmEjm8JOwN9HRI51X6ur5hITJwfDWNm9xKG9pLhTNg3SKhYFDEbxyB02VKs3f8XqLbzj6n5jPmIORWioMxJWGq4DV1qqF1eMT3HliA2co6pO0yzck2wehEjBzbGxdUTMD74BxyNuoCYM4fx9Yej8e72+2j7+ih0NeYXrTSfHESFuJuSggdMN6qMP7F5xmL89IC5RYGB7y2s/TB2qB3OffYWlv16k7mQCncjV2Hii70xJOgUcvWn1RS6vx/LAsJxOU+F3EvbMXvxXoj8xmFIk6pVau03FkPtzuGzt5bh15sFbAB3EblqIl7sPQRBpx5BdGUPlk6fgSUHU5mMLPAf3sTfGYWwdXSEtdTEsWu+Ipz4KmyOLsc7Wy4gS5WP6z99iEU7bumd0Rp+Y4fC7txneGvZr9CJFYlVE19E7yFBOGVAOYbHU+lCIRtY9MHIIQ6IXDMf3yRks9yZjYRvFmHp138i29oGIqkMUsrBgwdGlZ6w6DMSQxwisWY+S0LZLPCyE/DNoqX4+s9sWNuUt4+QfjR3NEUovJuCFJ3i8efmGVisUzzyBa8XgB7gQPD72JOSD3XORYS9uxj7JS9j3KDGtQ9Mm5cx8VUbHF3+DrZcyIIq/zp++nARdpR+SBAaWzWYiXBlz1JMn7EEB1O1noqHN/9GRqEtHB2t0ch/LAZaRGDZ9BBEZTJ75V3BjwGBCM/tipGvubOPVxoI9/cvQ0D4ZeSpcnFp+2ws3iuC37ghaGLnj7EDLRCxbDpCojJZ63m48mMAAsNz0XXka3CvdBNIhwhSmRSU8wBaFzE55k3UCbOWwfgVK+HkZIN7x3ZgXwo7WpCKw0tW4VCWbhoxE13BnqXTMWPJQehU+hA3/85Aoa0jHK2r8wQzKJ2cYHPvGHbsS2F9FiD18BKsOpSln5xqJ5PJ+baURvAfOxAWEcswPSQKOlf4EQGB4cjtOhKvtRMb9KNqMUmuSv5RFUa1K4XPmOFwOb0SK39viVdHd4Nu6hLKowK2qMrEQvFrko8L+YxpGMy3jWS19KOKGOzL6eVaz/UV5xoT5sfiSzgUshE7z2Xqd1SBWUuMDZyJjglL8drYlTh8mc15bHfBzd+w9j9jsDKpLaYtnAhn89rOP6blMzOlE5xs7uHYjn3QpYbDWLLqEHSpoZZ5xeQcW4Zxc0wdon82uV5R3TtBy4e2I6VYpNGU9iWSNaXu076jxJKnuzULBhRNafIB3VI5DUUxC8lL4UULY4pYIxkUMf85shWbkdSyAcmltuQ5ZhnN81OScnAo3THwtLbq3kla5u9KlmbsWrmMxCI5tei3kCL0F2keClc0nUylXRf8TrPdFdRt+V+lCwAebPEnhf7Bce1D5DbP0cu+TUkqkZLETEbNe8+jA2m69rSLrhQt6I3DZQ++s7107+Qy8ne1JDMzKcllYhLJW1C/hRE62YuS6bvJHqRkH8PkDa1IIZGQnc902pnCJKjF2Nng6fji/tRCbkYSqYQkjbrShKEdyaJkoQY7fnKZP7lampGZVE4yZiN5i360MOKOwAPwhsdT+eF/IRuoMk9R8EBnUphLyUIhITN27cCPf9f9wsajYzTTTUbmsobUafZx7YP9ihZvUHn1ln+wXyNb5qlgGuisIHOpBdOlGSmcB9LHv5etcC5ZgW9YPyrKiJhPz9mKmW4sqYFcSraeY2jZPD9SKgdTqHagAvqtBq2PWLShQRP6UFOZnORMRomDL71/+JZW71X60GML9xTUdPIB/eJSRlEMLfRSkNfCGO2m6t5xWty/BcnNJMxPJdSo6wQa2tGidAGF4NiqoSj5O5rsoSRzczk1tFKQRGJHPtN3ksZVNe3ejgikFx0VJGLHLZhfyJv70sxd10izFKZE/zbPvUy+TVnsMJ2ZyZpT73kHSB8+bOwRFPiiIylELBYsmK/Im5PvzF10TduAbmFHZfs/OjaT3GTmJGvYiWafLBD0t6oxXScG45dREL+BhrkqyEzMdCK3IGf/BTTteUu9LYoo+bvJ5KE0J3N5Q7Ji/i+x86HpO1PKLUCqgoJ42jDMlRRmTMcWrF1nf1ow7XmyLPG92sgkmHOqsoPOtmWxdZsiAl8kR4WIjcuC5RY5NfedSbt0hhTwo2owMRdW8I/jqbS+n4JavHG4bHGRse0WX6Rlz8lI0iWQLuiGoUMojwrYoioMx6/muAk+LuQzQvNwlRjIt0b4UU0W7hnsS3PUoE6Ec2bFueakpkEDdq0iBrK/pkEyCXVZFKvfUR0qSotYQkPbK0nC8pysgSVJmW80bPUSffDTdX3c13b+MTWfFVD8hmHkqjBjudeC+Ykz+S+YRs9b6n/coFa5TkimIqPmd8NzTN0i0vyjrZafAPnpSYi7dBu5ZtZwat8JLjY1/VJZjezrF3Dhej6UrT3RsZmFfr8xqJCVEov41BzImneARyvbskViNSTjq5fQMrA5diZ/jo6XYnFL5grP9g6Q648bRJWFlNh4pObI0LyDB1rZlpdCjZybCYi78gBmdm7wbNekXJu1GTvT/Z1EXEjOhV2HznBVPn7rQpWVgtj4VOTImqODRytUEMsQBsdTGSEbFCPzSgwS0lSwb+sFd7uyo+rsFERf+Bvq5h541sXIX+kvzsSVmASkqezR1ssd5Zp7DEP6UWdfx4UL15GvbA3Pjs1QleaF9Fs9zObXoxFzUwLXZzxQQ7MaQT7uJF5Acq4dOnR2RWXRjBlblahzcDMhDlcemMHOzRPtmlTyfqb75JiLuAMHtPVojUalus/AVy+1RGDznUj+vCMuxd6CzNUT7R0qRw/zheQYXLwDOLT1QOuyBqqBxUdKNC78rUZzjy5w0d6eMy3mTdaJwfhlFN7FpehLuN+wDbzaN9HfhSxDnXMTCXFX8MDMDm6e7VBZpVVTiLuXonHpfkO08WqPJo99K1cbmWqXc0oozkxGjM6Q8GjdqKINhPyoSkyRqyr/qEztx2s4jwrYokoMx69pPi7kMyZSbb6tGz+qgMHcXru5vqq5xuT5UZAC3L0ch0u38mDeqBU6tW+OBibk6NrOX1VRePcSoi/dR8M2Xmj/mJPUMteZnGPLUe0cU7c80SL5f4XSIvnqJrxs1ETG4XB0lBXJVze9bESRwOFwOBzOP0NVH6c5AohEZjA3K/fTdRwOx0hY3JiZw4wFDw8fDofD4TzN8DvJHA6Hw+FwOBxOJfidZA6Hw+FwOBwOpxK8SOZwOBwOh8PhcCrBi2QOh8PhcDgcDqcSvEjmcDgcDofD4XAq8USK5ILUOCRm6P4GTN6ZjZizYJv2/f/XqK5jX/B7mLP6KNJ1qqka1TXsXTYHq49lsI08nNk4Bwu2JeiO/c+RhVPr5uCjnZf12yaSdwYb5yzAtoRq/rxWBZ3WDYZ8XJV6AIvHDoDv830xad33WG9Itn8pNYvrAqTGJUKvrieICtf2LmMxd0y7ZdBOmxLxz1joCemmIBVxiRnQdiMUL/8Qqmt7sWzOahx78o5SvzwRfVf09frg6bNP/Y+5Pnnq66RK86bpOb/mdUx53Txp6r1IVl37EkO8x2Nbqm6Ahal/4NAvF7Tv/38m//RqzF0WAfLoDHtDVlCl4eQ36xB+7gHbKETqH4fwy4U7umP/a6hzELNrHUKP3dDvMJHCVPxx6BdcuKPS76hEBZ3WHsM+nof9CyZh6W9idB86BP3d83DOkGz/UoyPazaRfTkE3uO3Qa+uJ4gKaSe/wbrwc9otg3bq5PAPfM32hHTDJrsvh3hj/LZUXZEsFC//EKq0k/hmXTjOPfgf+wGmJ6Lvir5eHzx99qn/MdcX/4o6qdK8aXrOr1kdU1k3T5p6nwcoJx13c8oGpxyxGfFnP9Zv/f+KCjfSbTBiQxiC+ij1+4xBiRGb43H24776bU6VKEdgc/xZfNy3rv6UlGEM+rg6G2lp2Wj60iwsfm8GRvWbjC1PULYnhfFxTchJv4ty6vrHMGin52z+gSL5CemGcpB+N0dXIGt4wvHy/z1c35xK/BvrJNNzfs3qmMq6edLU6zygTgvD1PFfIakgGaFje2DClhRk7X4b3fsv0p/BzrlzHCtG+6CllRRiuR3aDpiF7xPzdQezduPtnmOx8rvlGP6MAywkMti6+2HevlRWZupR38HxFaPh09IKUrEcdm0HYNb3idC3UDXqdGyf2gODPo5in2n0FMfis2E9MPnbv7WbGjl7jl2J75YPxzMOFpDIbOHuNw/7UoU+/Rcj9eASjPBxglImgcKuA175cD9KLiu8tg8Lh3rDd8JHWDrlBXj5zcK2i3m6gxry4rF1xgtws5VDat0K/eYfQXrpB/Us7H67O/ovOqnfzkP8t9PR180WcmkDtOg2BetWTsXzw7/QHy/EtX0LMdSrGRpIxFDYt4PfrG0o31115MV/i+l928BGLoOy9YuYt/ULvNFzMr79W83Utx1TewzCx1Gl2mPq+wzDeuiOazHFLo9hovwav+neH4tO6uUzqFOGQVk1Ou+JsSu/w/Lhz8DBQgKZrTv85u3T2tSgjxdfwKrXXsYKpqc7u6eje7e3sTu1kmzFqTi4ZAR8nJSQSRSw6/AKPtyv92/mpyc+nYBe7vawlJiz+GgEt75vISyxQHtpleQexYf9umPSN/q7hFoKcTbYHz3f3K7frgYDelClbMWUnl0xcm2C/jEEFa5+PQnP+/4XYSmqSnGdhbNrJ6BHGztYSqWwdvTG8KAI3FarkRY2FeO/SkJBcijG9piALeza2ujfMCw+ts7AC9r4sEarfvNxpJzhDdopSyOWgdyETOyc1hOj5y/Aq+1sYWnrhbnH8gSuMTQWU3TDyDqLtRN6oI2dJaRsjI7ewxEUcbuc7SuhTkPY1PH4KqkAyaFj0WPCFqRklvdJnYyjgjcjcKAbbGQs/l16YkrIOXZET+E17Fs4FF7NGkAiVsC+nR9mbbvItK2npjLpyYvfihkvuMFWznymVT/MP5LOptcyDOu2GozI9YbkFc51aqSf+BQTernD3lICc2ajRm598VZYIrRRmrkT03qOxvwFr6KdrSVsvebi2K1KOUBIn0Zh2NeFcqkx81292KdW+U9ozAK2qQJhexuRj2poz6e2ThKYN03P+ZlMh2V1jCHfq0o3Js2LtUHzx0TqjexY2hM0lJwlLWlwYAjtiblP90L8SG4/QXe8KI5W+CrJpssbtP5gJEWf/pGWDnYhi9ZT6eB9dvxeCPnJ5dTA5QWav/U4RUXuoyC/ZiRpOpH2ZmsboLgVvqS06UJvrD9IkdGn6celg8nFojVN1TZQDaob9EUfBTlP+5Xy9buo4Dd6101BPVYkaze1csobkMsL82nr8SiK3BdEfs0k1HTiXu3x6iiIXkI+DazJa8oGOhJ1jo6GTKJOlkoasO4qUe4pCuhkQdbPTKY1B05TZMQWmtXDjqTOk2hPuopdnUNH33EjWePn6b1vj9OZ42EU0NuBxCKJXq57FOInJ/sJOhmyI94mN1ljev69b+hY5EnavtCPWkrNSNxurvZ47qkA6mRhTc9MXkMHTkdSxJZZ1MNOSs6T9pC2u+rIOUYz3WVk23UGhR47Q8e+Ztc1tyS5tAetSC5m6vuC+iicadqvpdpj6nuX3BS643VhFw0my6/1G3uasPcR2xDSqZCsOp3LG7jQC/O30vGoSNoX5EfNJE1posYJDfm46jad+eEzGt9BSnb9AujLzYco8WZ52QooeokPNbD2oikbjlDUuaMUMqkTWSoH0LqrxXRvx2hykLehkV8cpqi4OOaDn9BQZwkph26lDHZ11WTS9hGNSdH9Y0rSmEJD/jF6u1UD6vM588FqEdJDLkUu7EINbF6ktX8VU/GVjfSyXUN6NvAP0oykfFwX/fE+8/m2NCHkKEXHn6fDnw4lR2kLmnIwh6lrDwUNdSZJy8EUGLKHYu7XUv8GyDn6jj4+vqXjZ45TWEBvchCLSNJjhfa4QTvlCOQmds36flIys/CkN7aeolPhO+hk2gXD1wiMpea6KaI/3mf+0nYChRyNpvjzh+nToY4kbTGFmKqrIZti9wRp/ajl4EAK2RND9yvEi0ZGGUnljVncfUlHTp+gbfP7kIPEkf6zR+N1uXQqoBNZWD9Dk9ccoNOREbRlVg+ykzrTpD3ppDJJJkbOUXrHTUaNn3+Pvj1+ho6HBVBvBzGJJPqcIjRXVIdgrjcsr2Cuu7eDRjvIqc3IL+hwVBzFsTnqE40NlUNpK1OX6vZ66sdysoXnG7T11CkK33GS0tPL61tIn8Yh5OtCuVRwvqsX+9Qu/wmNWcg2VSE8twnlIxPs+VTWSULzpt5nTMr5Oh2W1DEGfa8q3Zg0L5pO/RbJjKLYRdRF4UEfni/SbpdXbH7Em+Qk70rBpbM5414YvWprRYNC03XGl0nJd9W1UucqOD6DWsmfpaCL7Jr8CHrTSU5dg5OorIV7FPaqLVkNCiXWQtUYWSTLpL606lppz3R8RiuSPxuk364K3Tkyjw/oXIF+F3O2X4PG0OS1Zyk7fBQ1UnSj4MQyaVVpW2iQ0oL6rrlOquxdNNZOQb6fJpeOR3VzI71kJa2iSL5P3w+3pYb919H10sjLoO2j7EmiLZKzKXxUI1J0C6ay7lSUtmUQKS360pqyix4j58dxZCdncpbaRUXXvxxADY0tkuvALrWRX+s3JZOQkE4FZdUXDb6rqMwVjtOMVnJ6NuiidtOQjzMD09oXFOQy/ajO18rLpm1HRh4fnGOeoyfnVwoaM5nWns2jO2e30erQE+U+EBTQyZlttD6ocf/qeLhnAjWVdaFFsTp5cn+ZSk7WfrThhgGdGWOzR+foo65WZDdgDr3XpxFZd19K0XoXKD/mR7tGk23DnhR0/oEubotT6JeN62hvvCZjF1Hsoi6k8PiQtOqqA/1XTTbtGmtHCt9PSTu3aVDdpI0vWZG0cpGsoZKdBHOTtkiWkbzfOrqpl0vwGsGx1FQ3j2jXaJYDegbR+Qe6BotTfqGN6/aSVtXVURRLi7ooyOPD86xHRhVFsuy5ZZRQqrc02uSvJKtXNtOdrHAa1UhB3YITy2Rix7cMUpJF3zUsF5kmU/ausWSn8KVPy4xFNze+RFb6nCOs22oQzPWG5RXKdao7Z2nb6lA6Ue5Te8HJmdRGP0dpi2SZnPqtu6mLBQ0V8pOQPvX7DCLk68K5VGi+qxf71Cr/Cce3kG2qwrgi2UAMm2jPp65OEqxFKspYo5yv1WHFItmQ71XUjcrkedFUnvxjd6WokBYTh1vFSdgwzBMdO3bUvXotwqm8R7ickKz7ekykhGvrskU0ZkolGoqKUVhIUKXFIO5WMZI2DINnyfUde2HRqTw8upyA5LJvTExCpHRFa4fSnqFUNoSo2ECj6kwkXLwJ684+6CDV74Ml+n4Qhk1vdcbVuCTktuyGnq7m+mOsVXtf9GivwqXYi3iUEo/E7Obw8m6JkjPM7LujaxuxfqscxX8hNjEPTs/6oFmpFZXo1rUDJJq3xVcRl5SLlt16oqw7M9j79kB71SXEXizS76uMCtcTkvDQoTOecy6VAs19n0fbKsSoijqxi8nyV6RYQKfGySqC0rU1ylxBCWVDEYoLa+dg6swEXLxpjc4+HVDmLn3xQdgmvOWjgL3PCIzzzsKu4ABMGz8M/bzbY/C6ZKjUaqjLf6tYiYb9R8LfPg47v49GMXJxfPt+POw9AkOaVh/uRulB3gVzN86H+5mV+Ox8B7y/YTaeqeKxSnmf8Rjn+CcWeDdDC8/+GDdvN7J9hmNghwb6M8qoN/0XpyA+MRvNvbzRsszw6N61DYTd2MjcxOSycXKCrVYu468xdizCupGjz/hxcPxzAbybtYBn/3GYtzsbPsMHogpV1wBzuPj2Rutyeuvq0xqFSfG4+FccknJboltP19J40hz37dEeqkuxuFhkikzFSIlPRHZzL3iXGQv23btCF6bG6tYUaqdDM3sfjBjnjaxdwQiYNh7D+nmj/eB1SFaxGC0JUpENnJxs2Ygep/iqkD71+wwh5OtG5tLq57v6sU+t8l+RcHwbZRuTqD6G68SeFfhn6iShebMyNcn5VWF8rcX8zsR50VSqitsnRkEBU4JVF4yeE4CAgJLXQqwMCUXw6610zi4yh3mpt+kQ6f/PGmAOYoUuo+eUuz4AC1eGIDT4dbSq2p6lVNSnRsEV94hYxxW7Lu25GopQrALE5pIqzyxUFbODkoqTNBufmO1Qq1UgdrGKmUSzXYpIDrms+n5J4xj69xUphK67ikoQmYtZ/+walSFvIoiYEObluhVZWEBRQYxK1zM5StVXS7voqI385RDSqVGyipgPVueEtaComMnG9CypqjE10sInwdv7dXy0KwaZMlf4TlyMwOGOwkFr0Qejh7TE5V0/IDIzAjsOFaD/yEFoYuhCI22mevQI+czHqeAh7j+sKokxbAbg8zPROMSKaH+XHJzZNBev+Xhh+JarbLyVqDf9M92yzswqGh5yucwo0xmVm7RyiUvbM/4aI8dihG5sBnyOM9GHsGG2P1xyzmDT3Nfg4zUcW64+pukawPSkUFTwM3Mxk5lY3BWqmGbFqBiWbEy6JAZNWJoiU7HOWHod6RDJ5SgLU2N0Wz0Vs0XFXC8sb6VcUy7XqdPCMcnbG69/tAsxmTK4+k7E4sDhcCyvPM0cJq7GyEboUxghXzculxqa7+rFPrXKf8LxbZRtqqR6e+swEMN1Ys+K/CN1Uk1rkZrk/CowvtaqxbxoIvXVbhmi6gZrjqYujrDIzYN1t9EYN26c7jVmALxaucOjddWfvMtj3tQFjha5yLPuhtEl148bgwFereDu0Vp/h6cqNA5FKCx4VBYOhbdx+57Q0hIBzBrB2dEKmcmXcLu0qWIkbnoTYwIPw4mNV3wjHvH3y/WTF4u4v4AWzi5QOLWBi+wWLiZkMlfQU3AJl6/rlkpVQNwGndopcP1cVLm+HiIqKpGV6gyxE1wcxbgRH4+K3cXhL7SAs4v2fnMVmKOle2tY3LqIhHL6yE+6hNI5Q+PQVIiCR2URX3j7NkpON90u5TBZ/oqIBXRaJ7JW6+OGMWvkDEerTCRfKreoqTgRm94cg8B9fyJ8/Xbc67saUed+xg9frcTC6f5oUvSQnav5zxAydB81DK7XDyBsZRgO4yWMGmirP1Y1Rukh53csmboSKT3mYZ7vDax+czFOZuuuL0ONjKgfsHrnbXSevBghe84g+WYsVvXKwcGwA1pfLa+uOtF/VTD/aeMiw62LCcgsMzwuXb7OIlIIU3JT7fOZhhrpBhmI+mE1dt7ujMmLQ7DnTDJuxq5Cr5yDCDtwW99KVYiqnYJ0qJCalIQc/RYzPOLjr8Lc1R3tXJlM4hts+345H8xDrC6JwcXcFJnEcGrjApkm55QZi4XpZejCtDa6Fcj1agF5DeY6NW6Er8f2e32xOuocfv7hK6xcOB3+TYrwkB1nNZEgYicBfRqT5oR8vda5tH7sU6v8JxjfJtpGYG4TwmR7PmV1ktC8WZGa5fwaU/5i9Y1azIumYUzerhUiqQxSysGDB48r19pvLIbancNnby3DrzcLWG6+i8hVE/Fi7yEIOpWrP8sA1n4YO9QO5z57C8t+vclCRIW7kasw8cXeGBJ0CtW2YKaEk5MN7h3bgX0prN+CVBxesgqHssoCwzQs0GfkEDhErsH8bxKQzSIxO+EbLFr6Nf7MtkYj/7EYaBGBZdNDEJXJ9JF3BT8GBCI8tytGvuYOc5uXMfFVGxxd/g62XMiCKv86fvpwEXbcqsr0SvhPHYtmpxZj7NyvcfT0Cez4aBze3X4HpHWqRvAfOxAWEcswPSQKuu5+REBgOHK7jsRr7pU+dpajod8EDLc/hU/e+QrRD1RMPQexaNF2pOmLZDOlE5xs7uHYjn3Qqe8wlqw6hFL1mWqXCpgufwWEdFoHshrycYNY9MHIIQ6IXDMf3yRks8SdjYRvFmHp138i27oRJGIRCu+mIOUBk1WVgT83z8Dinx4whRcYXpXMkD47Cq+1vYotK3+C9OWR6N9Qf6A6BPWQjROBU7H6Zh8s/XIJlny5FH1urcWbgcfKfvVAixlEV/Zg6fQZWHIwlbXD5r2HN/F3RiFsHR1hbSaCVCYF5TyAVl114itVYYOXJ74Km6PL8c6WC8hS5eP6Tx9i0Y5bRiVSU3JTrfMZK11rpBumyyt7lmL6jCU4mKrVNB7e/BsZhbZwdLTWtlglIilkUkLOgwfVfGAg3N+/DAHhl5GnysWl7bOxeK8IfuOGoImdP8YOtEDEsukIicpk1+fhyo8BCAzPRdeRr8FdYppMNi9PxKs2R7H8nS24kKVC/vWf8OGiHSgLUxN1K5TrBXQolOs0d2dFhXeRkvKA+ZUKGX9uxozFP+EBs1aBUJBqaCSgT5bm8i/uR0jIbsRUDLRyCPl67XNpvdinVvlPOL5NsY3g3CaEEfasiqeuTqpRLVLDnF9DKupGc5fe9HnRJPTPJtcfj47RTDcZmcsaUqfZJys87K15CPveyWXk72pJZmZSksvEJJK3oH4LI+iO5qFszQPpiqY0+YBmQYmOopiF5KXwooUxugfcVfdO0jJ/V7I0MyOpXEZikZxa9FtIEdoGqqcgfgMNc1WQmVhOFnILcvZfQNOet6zwULqi6WQq67qIYhZ6kcJroX67GlSZdCp4IDkrzElqoSCJmYKcB35Mv2sXkarodkQgveioIJE565eNV97cl2buuqZbQKM5495xWty/BcnNJCSVSKhR1wk0tKNFFQv3NORS3NdTqZerkmSSBtTcZyzNGOZGsk4f6A6rblNE4IvkqBCRORujjI21ue9M2nWtpLfquX96Bfk7y8lMImVyNKJn/XtSc3nJ4oUCit8wjFwVZiRm7cotnMl/wTR63rLkuIl2qfTrFibLX2EhkpBOhWTV6FxBTScf0P6Kg5aiGFropSCvhTG6bUM+XmlB2GOyZZ6i4IHOpDCXkoVCQmYKZxr48e90n/lKRsR8es5WTGZSS2ogl5Kt5xhaNs+PlMrBFCrg3xp/jV/yLEnFrjT9aFn8GMKQHu4feZvaypvQoE1X9Qs5iunKxpepsawtvR1ReTV2Mn032YOU5uYkb2hFCqZzO5/ptDNFd+WjYzPJTWZOsoadaPbJgtrrvzpU9+j44v7UQm5GEqmEJI260oShHcnCiIV7bIfh3KRduKegFm8cLlsQJnSNEWOpmW40qv6OJnsoyZzlk4ZWLN9I7Mhn+k7Sq7oaHtGxmSxPmMuoYafZdDKtvE/qcozNcy+Tb1OpVm9msubUe94BStO7nOp2BAW+6EgKEbOvBZNJ3px8Z+6ikrA0TSamu+OLqX8LXc6RsJzTdcJQ6mhRklOEdFs9QrnesLyGc50qI4LmP2dLYiaTZQM5SW09acyyeeSnVNLg0DtUpFm4p2hBbxwu85LHcoCAPtM3DGD5vRst/8uAAgV8XSiXCs939WOfWuU/gTEL2aZqsYTmNuEYFrJnlTyFdZLQvGl6zk/T5pjyC/cM+l4F3Ryv5bxYc0Saf/T1cr2hzk5B9IW/oW7ugWddqriboMpCSmw8UnNkaN7BA61sSx/jNxIVslJiEZ+aA1nzDvBoZVu2EMAQ7FPmpehLuN+wDbzaN0Fd/rR7ceYVxCSkQWXfFl7udhXlKc5EcsxF3IED2nq0RqPHhM3HncQLSM61Q4fOrlBWeb9fjTvxkbhl7YFnWpY8HF+Ao9PbYmD8O3h0fKZ+n6a7ZMRcvAM4tIVH60bG6UZDYTqSov9Cjn1HdEz7CJ79z2JK3AnMaaX7OFx49xKiL91HwzZeaN+kKu2ZaJdKmCx/BYR0WjtZBX3cIMXIvBKDhDQV7Nt6wd2urGd19nVcuHAd+crW8OzYDBb6/cKokf71MLT7xB0Hoj9GV6MHUzc20/SfczMBcVcewMzODZ7tmkCuP6I5lp0SjQt/q9HcowtcrDXGqKt+Hyf/TiIuJOfCrkNnuFYdTNVjSm6qVT4zQTfqHNxMiMOVB2awc/NEuyZlmq4WdTZSoi/gb3VzeHRxgbYbLRn46qWWCGy+E8mfd8Sl2FuQuXqivUPlNpnPJsdAF5YeaF05iZkik4b8O0i8kIxcuw7o7Kp8/KtOU3UrlOsF5DWY65gur1+4gOv5SrT27IhmxgdpOQzoU52OjcP+C2zcjf8zuLBA2NdrnUvrxT61y38Gx2yibYTnNiEE4qMKns46yZhapISa5nzjqawb0+fFmvNEimROfVCM6AXe6PZdJ2w5shGjW8mQEfUFxg96H2n//Q3RH3XRn1c3FP7+HjpVKpI5Tymab8QeRSNoQH8cGHgSv81vD24xjnGUFclXN71cbpLj/FPkn1mE0aFtsXrDSLSsWW3B4XBqCQ+5fy1ieE5fjnedjmGSmxIWDSzh0P0jXO+9Epvm1m2BrEVkBnNzs9o9gM95AhQjamEXWNn64JP8/yJ4Gi+QOTVBxELdHGYs0HmoPx3In1uInSG8QOZw/gn4neR/PcW4n3IRf90pgpVzO7RtUp9fPHD+DaiyruPitXw4tHdHuW8uORwOh8Ph1ABeJHM4HA6Hw+FwOJXgX+BwOBwOh8PhcDiV4EUyh8PhcDgcDodTCV4kczgcDofD4XA4leBFMofD4XA4HA6HU4mnskjOO7MRcxZs02+ZQN4ZbJyzANsSqv4biKpre7Fszmocy6jqTywageoa9i6bg9XHMvQ7hFDh2t5lmLP6mH67HihIRVxihvYncuubau2juo59we+xcR5F+pMQhMPhcDgcDqeeeCqL5MLUP3Dolwv6LRMoTMUfh37BhTsq/Y6KqNJO4pt14Tj3wMQf9lCl4eQ36xB+7oF+hxAqpJ38BuvCz+m36xhWtH85xBvjt6U+kSK5Ovvkn16NucsiQB6dYc+/o+BwOBwOh/Mv5qksZZQjNiP+7Mf6LRNQjsDm+LP4uG9d/qHppxjKQfrdnCdSIGuo2j4q3Ei3wYgNYQjqo9Tv43A4HA6Hw/l3Uu9Fctbut9FzVDA2Bw6Em40MMqULek4Jwbks3fHMndPQc/R8LHi1HWwtbeE195j2mu79F+lOQCGu7VuIoV7N0EAihsK+HfxmbcPFPP3hzJ2Y1nM05i94Fe1sLWHrNRfHbu3G2937Y9HJQu0pefFbMeMFN9jKpbBu1Q/zj6Sj/D1kdfoJfDqhF9ztLSExF0PeyA193wpDYoH+hLx4bJ3xAtxs5ZBat0K/+UeQbvAmdB7it87AC262kEut0arffBypcIEad46vwGiflrCSsv7s2mLArO+RmK8//BhqpJ/4FBN6ucPeUgJzsRyN3PrirbBEFKjTEDZ1PL5KKkBy6Fj0mLAFKZob6Oo7OL5iNHxaWkHKzrdrOwCzvk+Eross7H67J8au/A7Lhz8DBwsJZLbu8Ju3D6klN9+LU3FwyQj4OCkhkyhg1+EVfLg/lZXCOpuW2YdZ6No+LBzqDd8JH2HplBfg5TcL20oNZERfHA6Hw+FwOE8bmj8mUp/cC/EjmVROjZ+ZTF8eOU0nts2nPg4ScvzPHsogFd1e34+kZhbk+cZWOnUqnHacTNdeI7efoL0+91QAdbKwpmcmr6EDpyMpYsss6mEnJedJeyhdRaS6vZ76Sc3IwvMN2nrqFIXvOEnp6SHkJ7enCXsfEeUcpXfcZNT4+ffo2+Nn6HhYAPV2EJNI0oNWJBdrJKQdox1I3mYkfXE4iuLiImnfJ0PJWaKkoVsz2PEcOvqOG8kaP0/vfXuczhwPo4DeDiQWSajHimStjJXJOfoOucka0/PvfUvHzxynsIDe5CAWkaTHCu3xorgV5Ku0oS5vrKeDkdF0+selNNjFglpPPUj3tWdU4t4OGu0gpzYjv6DDUXEUF7mPPhnqTBLlUNqakU2xe4JoqLOEWg4OpJA9MayNIopb4UtKmy70xvqDFBl9mn5cOphcLFrT1IOaHu5RiJ+c5A1c6IX5W+l4FBtzkB81kzSliXuz2fECil7iQw2svWjKhiMUde4ohUzqRJbKAbTuanEF+zADUUAnC7Jm9l1z4DRFRmyhWT3sSOo8ifZoDCTYF4fD4XA4HM7Tx5MpkmXP0bIETUGqQUVpm/xJafUKbb5TpC2SZfJ+tO6mpqDSUVaEZVP4qEak6BZMiSWXa67fMoiUFn1pzXWVrkiWyanfupvsiJ57ZUVy9q6xZKfwpU+1BbEGFd3c+BJZSfVFsuoOnd22mkJPpJddX3CSZraR07NBF6k4exeNtVOQ76fJVNrCzY30kpW0miI5m3aNtSOF76dU1uVN2viSFUm1RXI+RbzpRPKuwZRUOiYmctirZGs1iELT9TvKobpzlratDqUT2qJTR8HJmdRG/iwFXWSNFMXSoi4K8vjwPCuPGfkR9KaTnLoGJ5XKrClWw161JatBocQ+hrDCVUZS31V0raTJguM0o5VuzLr3MvL44Bwrl/Xk/EpBYybT2rP5FYrk7PBR1EjRjYLLDESqtC00SGlBfddcZzoV6IvD4XA4HA7nKeSJPJNs7uKL3q3N9VtmsO/qg9aFSYi/rPv1CZGNE5xsqxCl+CriknLRsltPuJZcrrnetwfaqy4h9mKRbpfIBk5OtlU8O1KMlPhEZDf3gnfLcv1374o24pJNe/iMGAfvrF0IDpiG8cP6wbv9YKxLVkGtVqMoJR6J2c3h5d0SpS3Yd0fX0gYqUZyC+MRsNPfyRlmX9ujetQ20V6jSEBN3C8VJGzDMsyM6dtS9ei06hbxHl5GQrHtEpDxm9j4YMc4bWbuCETBtPIb180b7weuQrFIzGR9/7kOVFoO4W8VI2jAMnvr2O3bshUWn8vDocgJ0XYigdG0NhxKlmSmhbChCcWEh1JkJuHjTGp19OkCqPwzLvvggbBPe8in/nHcxrsYlIbdlN/QsMxCT1xc92qtwKfYidBaqvi8Oh8PhcDicp5EnUiSL5AooyvdkLmYFJ7ECT7cpMjeHWKR7X5FCqFgdLZZULEhF7HoxWIGo0heIInPWZJUNoFilYqPUnF+GSC6HrOR0dRrCJ3nD+/WPsCsmEzJXX0xcHIjhjnqBi1VQMTWJKzYAeWkDlSmGrssKF0Aul7F/NRSggNWGVl1GY05AAAJKXgtXIiQ0GK+3qjhWDeq0cEzy9sbrH+1CTKYMrr4TsThwOEpEfIyCAqY5K3QZPaesffZauDIEocGvQ9eFCOZM7xUoGVIRGwPTmLmkujGWUagzUAX9auyhGb5ardI/+22gLw6Hw+FwOJynkCdSJKtSk5CUo99g5MTH46q5K9yruxtbgtgJLo5i3GDn3y/30w15sXH4Cy3g7CLR76kOMZzauEB26yISMssaKLh0Gdf1P6GsvhGO9dvvoe/qKJz7+Qd8tXIhpvs3QdFDdj6r4sVObeAiu4WLCZllvx5RcAmXSxqoDJO5jYsMty4moKzLAly6fJ2VzwzzpmxMFsjNs0a30eMwbpzuNWaAF1q5e6D1Y3fU1bgRvh7b7/XF6qhz+PmHr7By4XT4NymCXkSGqELNad7UBY4Wuciz7obR+vbHjRuDAV6t4O7RGlXdtC+PWSNnOFplIvnS7bIxFydi05tjELj/ln6HBqZfF0eIb8QjvqKBEPcX0MLZBUIW4nA4HA6Hw3kaeSJFMt3fj2UB4bicp0Lupe2YvXgvRH7jMKSJUPeN4D92ICwilmF6SBQyWZWZd+VHBASGI7frSLzmXunuZBXYvDwRr9ocxfJ3tuBClgr513/Ch4t24FZJTae5CyoqxN2UFDxg+1QZf2LzjMX46YHmhmy+pgFMfNUGR5e/gy0XsqDKv46fPlyEHaUNVMYGL098FTZHl+OdLReQpcrH9Z8+xKIdt/QFpzX8xg6F3bnP8NayX3GzgPV5NxKrJr6I3kOCcCpXe1IFNHfSRYV3kZLygLWhQsafmzFj8U94oLkrrfm5CpEUMikh58EDXSFu7YexQ+1w7rO3sOzXm+wsFe5GrsLEF3tjSNApVNFFRSz6YOQQB0SumY9vErJZIZ6NhG8WYenXfyLb2kZ/ko5G/mMx0CICy6aHIEpnIPwYEIjw3K4Y+Zp76SMqhii+dAghG3fiXLkPMhwOh8PhcDj/JE+kSBYpO6Fl0jvopLSATfsJONT4bYSuGY2mgr2bocnrqxE2rzX+ePc52De0hG3bMdhr9V+Efj0DbY2pwGz9seLb99Hq9NvobGcBqzb/wZkO/dBef4vTzGEk5s30xNVPfNHUqiEaNHsRa1TjMXOAJW5o7wbbwn/Ft3i/1Wm83dkOFlZt8J8zHdCvpIEqsPVfgW/fb4XTb3eGnYUV2vznDDr0a196V9XmlU+wbfGzuPbxi3C0UsCyWXcsiOuA+d8sh7+1/qRSzOAwch5mel7FJ75NYdWwAZq9uAaq8TMxwPKG7g63uSOee84RN798CfYec3Cq0AavfLINi5+9ho9fdISVwhLNui9AXAdW9C73Z2W6EA3x4vKtWNTuDN7ybIyGDRrB4+0/0GHxFizsKdefo8OsyetYHTYPrf94F8/ZN4SlbVuM2WuF/4Z+jRlGGQjIj9yAGW8vx4GbvEjmcDgcDofzdCDSrN7Tv68XMr56CS0Dm2Nn8ufoeCkWt2Su8GzvgIqlljDFmcmIuXgHcGgLj9aNyhaUGUv+HSReSEauXQd0dlVW+nSgRvb1C7hwPR/K1p7o2MxCv788+biTeAHJuXbo0NkVSiM+XuTfScSF5FzYdegM1youUGWlIDY+FTmy5ujg0Qq2hgalzsb1CxdwPV+J1p4d8ZiI7HhK9AX8rW4Ojy4usNZ2p0JWSiziU3Mga94BHq1sa6i3YmReiUFCmgr2bb3gbmfg6uJMJMdcxB04oK1HazSqsYE4HA6Hw+Fwnh6eXJF8dRNermllzOFwOBwOh8Ph/AMYcT+0dohEZjA3E7H/63dwOBwOh8PhcDhPOfV+J5nD4XA4HA6Hw/m3Ue93kjkcDofD4XA4nH8bvEjmcDgcDofD4XAqwYtkDofD4XA4HA6nErxI5nA4HA6Hw+FwKsGLZA6Hw+FwOBwOpxK8SOZwOBwOh8PhcCrBi2QOh8PhcDgcDqcSvEjmcDgcDofD4XAqwYtkDofD4XA4HA6nErxI5nA4HA6Hw+FwKsGLZA6Hw+FwOBwOpxK8SOZwOBwOh8PhcCrBi2QOh8PhcDgcDqcSvEjmcDgcDofD4XAqwYtkDofD4XA4HA6nErxI5nA4HA6Hw+FwKsGLZA6Hw+FwOBwOpxL1XiSrru9D8LszMXNmVa/Z+OJ4pv7M/wHyzmDjnAXYllCs32E6eWc2Ys6CbfotAeqw3zqjhjIVpMYhMUOt3/qnUeH6vmC8N2c1jqaXyJSFU+vm4KOdl/XbtSEfKce/xscL5uGDoC+xNy4Txo28AKlxidCpKQ9nNs7Bgm0J2iNPDapr2LtsDlYfy9Dv+B/haYyxpwTVtb1YxmLlWG3jV5WKA4vHYoDv8+g7aRMS61jVFXJq1imsm/MRdl5WaY48nbHEeYKUz631yJPKjwWpiEvMMHJeqR3V1Sra2u89Ntaj6fUsR13OzY9T/0Xyrd/w7dot+CXpLjIyMh57PXykSVL/IxSm4o9Dv+DCndqPqTD1Dxz65YJ+S4A67LfOqIFMqmtfYoj3eGxLfRIhbQT5p7F67jJEkAc62+tDRJ2DmF3rEHrshm7bZHJxNqg/ugyYi+/+uIz4n1di3LOdMerbq6w0N4QK174cAu/x26BTUyFS/ziEXy7c0R59alCl4eQ36xB+7oF+x/8IT2OMPSWo0k7im3XhOPeA9HtMI2//Akxa+hvE3YdiSP9OcKjj2al8TlXnxGDXulAcu6GpxJ/SWOI8ISrn1nrkSeRHVoh/OcQb47elPpEiuepaJR+nV8/FsgiCR2f7+i0062xurpp6L5K1iBrjhYAt2Lp1a6VXKD58yU5/0v8AyhHYHH8WH/eV6XeYjnLEZsSf/Vi/JUAd9ltn1EAmyknH3ZynpEBmqG6kw2bEBoQF9YFSv6+uUP+9FYGfJODZz87g/M8/Yu+p8/hxshR7lq7FmUL9SVVCyEm/izI1KTFiczzOftxXv82pV57GGPufQo3stDRkN30Jsxa/hxmjnoNNHc9O1edUHkv/f1M5t/7LoRyk3815IgWyhirjSnUD6TYjsCEsCH3qehJ9wjyZIlmQLOx+uyfGrvwOy4c/AwcLCWS27vCbtw+pBm/cqJG+fSp6DPoYUaUFRjFiPxuGHpO/1W5l7X4bPceuxHfLh+MZBwtIZLZw95uHfYYb1lyIt3uOQvDmQAx0s4FMpoRLzykIOZelO565E9N6jsb8Ba+ina0lbL3m4tgtdk33/lh0kgmjvX4sVn63HMOfcYCFRAZbdz/M25dadsewOBUHl4yAj5MSMokCdh1ewYf7dcc1cnfvv0h3npAsmuMl/WoovIZ9C4fCq1kDSMQK2Lfzw6xtF5GnO1oD1LhzfAVG+7SElVQMuV1bDJj1PRLz2SFVCrZO6YmuI9ei5Bto1dWvMel5X/w3LOUxmbLOrsWEHm1gZymF1NoR3sODEHFbDXVaGKaO/wpJBckIHdsDE7awaw31q2nLVJsyPzu7dgJ6tLGDpVQKa0dvDA+KABNDh15v3r4T8NHSKXjBy5DeCnFt30IM9WqGBhIxFPbt4DdrGy4KKdmyB6av2YLgMa0g1u5oAFeXJhDlPMTDam/EqZEWNhXjv0pCQXIoxvaYgC0pmSxmuqP/opPsuC5+RgVvRuBAN9jIZFC69MSUkHPsSAkC8madxdoJPdDGzhJSqTUcvYcjKOK2cKLNi8fWGS/AzVbO7NoK/eYfQXr5cajv4PiK0fBpaQWpWA67tgMw6/tE6E1ZDcJxbUhedfp2TO0xCB+XXYzi2M8wrMdkfPu39gykn/gUE3q5w95SAnMmVyO3vngrLBEF2rMzsXNaT4yevwCvtrOFpa0X5v70Q81iLG8/3u3+HMZ+dUW/ozqKkXpwCUb4OEEpk0Bh1wGvfLhfn/eE5DTsz+r0E/h0Qi+421tCYs7iqJEb+r4VhkTdxSbbPC9+K2a84AZbOeuzVT/MP5LOyowy1HeOY8VoH7S0kkIst0PbAbPwfUnwVkkxLqx6DS+viELhnd2Y3r0b3t6dJSi/Lg8sR+iiIejQmPmfZQt0e5PlifgwvNnTCQ2ZTmzcBmLpyful55fm1Apo4qcklhjqdJz4dAJ6udvDUmLOxtAIbn3fQlip4ozFcB7T5kg2RywPXYQhHRpDLrVEi25vMl3FI+zNnnBqyHKljRsGLj2J+xqjCM0DVfntMeaRAjFYXW7WIqQLE3wo9+iH6Nd9Er4pf9u28CyC/Xvize3V3c03FCcCPqfXc9VzcVW59W6Veiy8tg8Lh3qhWQMJxAp7tPObhW1CCb8+8qMhm6jTEDZ1PL5KKkBy6Fj0mLAFKUxHputHj7G1Ssk84+2LCR8txZQXvCrNM0b09RhCebCeoXqm4Mwcait1oelH8/V7quIehfjJSd7AhV6Yv5WOR0XSviA/aiZpShP3ZuvPqQoV3fiiDymcp9Gvpc0X0G/vupGixwrt1r0QP5LLG5DLC/Np6/EoitwXRH7NJNR04l7t8Wq5F0J+MinJGz9Dk788QqdPbKP5fRxI4vgf2pPBer69nvpJzcjC8w3aeuoUhe84Senp7Bq5PU3Y+0h3vVxODVxeoPlbj1NU5D4K8mtGkqYTSTekAope4kMNrL1oyoYjFHXuKIVM6kSWygG07mqxTm77CVpRhGTR9aXvl3LpVEAnsrBm5645QKcjI2jLrB5kJ3WmSXvSmcaMpyhuBfkqbajLG+vpYGQ0nf5xKQ12saDWUw/SfXY8N3IhdWlgQy+u/YuKi6/QxpftqOGzgfSHRozyMhX9Qe93sqS2E0LoaHQ8nT/8KQ11lFKLKQcpJzuW9gQNJWdJSxocGEJ7Yu4L9muqTYv+eJ86WbalCSFHKTr+PB3+dCg5SlvQlIM57KiA3lQ36Is+CnKe9qu2rdxTAdTJwpqembyGDpyOpIgts6iHnZScJ+2hdKOUXER3Ek7Q7nUzyLdZI+r2USSToHqyY/dQ0FBnkrQcTIEheyjmvi5m7Cdoxqx5LyOpvDGT50s6cvoEbZvfhxwkjvQfrYMIyVtEf7zPfK/tBAo5Gk3x5w/Tp0MdSdpiCmlVUy05dPQdN5I1fp7e+/Y4nTkeRgG9HUgsklCPFcnseBHFrfAlpU0XemP9QYqMPk0/Lh1MLhataepBjSWrQyiuDcuruvEF9VE407Syi6ngt3fJTdGDViQXM3XtoNEOcmoz8gs6HBVHcSw2P9HoVjmUtmrUpbpN6/tJyczCk97YeopOhe+gk0kbahZj+b/R51MmU+CeG5qtaimIXkI+DazJa8oGOhJ1jo6GTGI+qqQB664KymnYn+/RjtEOJG8zkr44HEVxcSynfqKJMyUN1Q7SRJvnHKV33GTU+Pn36NvjZ+h4WAD1dhCTSKLXbVEcrfBVkk2XN2j9wUiKPv0jLR3sQhatp1L1JlfR7TM/0GfjO5DUrh8FfLmZDiXeFJBflwfYhE1OAxbRrtPRdHL9cHKSWFEjx2fpvxsj6I/IXTS3u5Lk3ZaXnl+SUyv6SPlY0qh9NDnI29DILw5TVFwcyy+f0FBnCSmHbiVdz8YhlMe0OVImIYXTAFq06zRFn1xPw50kZNXIkZ7970aK+COSds3tTkp5N1qepPFbgXmgKr9NLzAcg4Zys0ZEg7ow0Ycyt9OIxgrq/nESsVFpyT/2NrVq0Ic+Z3NfVRiMEyGf085F1c/Fj+XWjCr0mHKCAjpZkPUzk2nNgdMUGbGFZvWwI6nzJNpTbcKvn/xo2CbZFLsnSLvdcnAgheyJofu11E9NahXBeVGwryoQzNcV5+a65skUyWIzksgtyMKi0svmVdqqVYx+kvddRddK/K3gOM1oJadngy7qd1SFcUWyTOpLq8oapuMzWpH82SD9djVoE5KMnluWUBrIqrRN5K+0olc236EiTZEsk1O/dTfLCk+tA5QrkllC8111rfR4wfEZ1Er+LAVdZC1qxycjjw/OMYn05PxKQWMm09qz+Vq5KxbJ1cuiKt9vdjiNaqSgbsGJpeeyk2nLICVZ9F1D10uFFSKfIt50InnXYNLk5xLuhb1KtlaDKDRds/WIzn3UlazsBtCc9/pQI+vutDRab4jyMj3aRaNtG1LPoPP0QNt/MaX8spHW7Y1nIc1SRewi6qLwoA/PF7Et4X5NtemjXaPJtmFPCjr/QGeT4hT6ZeM62huvyZQCeisqH4jZFD6qESm6BVNi2cmUtmUQKS360hpjlFycRJ+94kYuDg1I1tSX3t2RxLRpiCKKXdSFFB4fklZNFSZ2XfzInltGCSXyMNk3+SvJ6pXNdEclJG8u7RptSw17BtF5nYGYan6hjev2kkY11ZK9i8baKcj30+Qyv7y5kV6ykuomgfwIetNJTl2DyyZDjaxhr9qS1aBQ0rpQlQjF9SOD8goVyao7Z2nb6lA6UW5yKzg5k9qUxKa22JCRvN86ullySr3EmM5vZR4f0LmyJEC/Bo2hyWvPCspp0J9Vd+jsttUUeqLcB+OCkzSzjS6nsqtNsnn2rrFkp/ClTzUFsRYV3dz4EllJdbrNj3iTnORdKbhi8NKrtlY0SJc0qoH549oXSOEynbT3UwTl15hEkwf0xbmG/CM01VFCTlOP6GNJ16a86WTtVvmcWn2RrKI7Z7fR6tAT5T7sFtDJmW20+UXjHsZhRP7UzxGaWNGdkk9HpjqSxGkqHdEnA1XaWnpB3pQm72c7hOaBqvxWKAYN5mYhXZjmQ0QPac+EpiTrsohitbksl36Z6kTWfhvoRmk/5TEcJ4I+p9dztXNx5dxahR6zw0dRI0U3Ci5LoEz3W2iQ0oL6rrle5qPlqZf8aIR/FsXSoi4K8vjwPBuZppta6sfoWsWIeVHQFo8jnK/rt0h+Mo9bmDXFsM9/xq+//lrxdXgpBljoz4EIStfWZYs1zJRQNhShuLDsK1NTESld0bqsYSiVDSEqNqJdcxf49m4Nc/2mmX1X+LQuRFL8ZWifMBDZwMnJlrVYDSIlXFs7lB43UyrRUFSMwkKCOjMBF29ao7NPB0j1x2HZFx+EbcJbPlU89ygki57iq3FIym2Jbj1dS89lJ8O3R3uoLsXiYpF+nxCqNMTE3UJx0gYM8+yIjh11r16LTiHv0WUkJGv0J0eXuRsx3/0MVn52Hh3e34DZz1Qhu7wPxo9zxJ8LvNGshSf6j5uH3dk+GD6wAxroTynFqH5Ns6m8z3iMc/wTC7yboYVnf4ybtxvZPsMxsEODmumt+CriknLRsltPuJadDHvfHmivuoRYY5Rs7o6Z+y7h6s0UHJ1mjm/GD8eSs7XxdXO4+PZG6zIHQVef1ihMisflfCF5zdFn/Dg4/rkA3s1awLP/OMzbnQ2f4QPBVFMtxSnxSMxuDi/vluX8sju6ttE9SKJKi0HcrWIkbRgGT70dO3bshUWn8vDocgL0pjQBuUnylmBm74MR47yRtSsYAdPGY1g/b7QfvA7JKjXU6pLvQkWwcXKCbRXBXWcxps5EwsWbsO7sgw5lSQB9PwjDprd8BOU05M8aeXxGjIN31i4EB0zD+GH94N1+MNYlq9i1arCrTdBhMVLiE5Hd3AveLUstDvvuXaEzuQppMXG4VZyEDcM8S2O3Y69FOJX3CJcTkmG0yQXl1yGyagW35npZRBZooBCjqVNLSLQ7zGBhoYBIVZOfyWDj8RmBcd5Z2BUcgGnjh6Gfd3sMXpcMFeu31D2EMDKPsQGglVtzvR+JYNFAAXFTJ7TUDQBmFhZQiFQoLvkuWnAeqOi3gjFoZig3C+nC1DhsiP4j/WEftxPfRzOpc49j+/6H6D1iCJpWNZkajJMuxvmcgbm4asrrsRhX45KQ27IbepYlUKZ7X/Ror8Kl2IuoKuTrJz/W1D+NjMm6qFWMnRdraAvj8nX9UZVL1gNS2Lk9i65du1Z8+bjDrlQCEczNyxxQi0j/fyEq6UmjuPK7RKzdii0b2bBIDoWivIrMIWYNEXNGLSLWrthAW5rj1Q2pqJi5rxjmkjqSpYRCllBZuxJdHOphuhWzHexcldE+VYACFj1WXUZjTkAAAkpeC1ciJDQYr7fSd6B6hEf5LINTAR7ef1jNJGiDAZ+fQfQhVkT7uyDnzCbMfc0HXsO34OpjDyIZ169JNrUZgM/PROPQhtnwd8nBmU1z8ZqPF4ZvuQpVjfRWCM28K654MpNJzFpggWu8klkENkL32bPwivUlRERcMfBclhAiyBWKCgFtrnMQJpGwvDYDPseZ6EPYMNsfLjlnsGnua/DxGo4tjxuoDDZzq1iPGhWVwvxULtPboqCA9WyFLqPnlNmRvRauDEFo8OsocaFqMRDXwvI+djFIv0udFo5J3t54/aNdiMmUwdV3IhYHDodjhWyoyUfiqr2qzmKsSFv8iM0lVfYjKKchf1anIXySN7xf/wi7YjIhc/XFxMWBGF5ukKbYvFjFjplp/KYMkVyOMpNrgxej55SL3YCFWBkSiuDXS57DNwIj5NcgkkigrydLEbG8azpqpIVPgrf36/hoVwwyZa7wnbgYgcMdazhZGpk/RUz+xwdQKbeVQ3AeqOS3gjFoKDcL68KkvMGw6DMaQ1pexq4fIpEZsQOHCvpj5KAm1ejYcJwY5XOG5uIqqajHQl0Crei/rE1dyKsqZxsd9ZIfa+6ftdaP0bWKkfNiDW1hXL6uP55QN/WHprCmwgI8KvXSQty+fY+ZpA5QpSIpKUe/wciJR/xVc7i6t6kYLCZg1sgZjlaZSL5UbpFDcSI2vTkGgftv6XeUw0hZxE4ucBTfQHz8/XI6yENs3F9AC2e4VE7I1WHeFC6OFsjNs0a30eMwbpzuNWaAF1q5e6C19iN2Dn5fMhUrU3pg3jxf3Fj9JhafzNZdXw51RhR+WL0TtztPxuKQPTiTfBOxq3oh52AYDmgWiLBJoRSj+jUFNTKifsDqnbfRefJihOw5g+SbsVjVKwcHww7gXssa6E3sxGQU40Z8vG5BjZ682Dj8hRZwNqDkvIPvwMN5EL7ULiDT8ygb2QUiKCwtDCaL8mp6HBVSk5KYRUrIYWO5CnNXd7SRC8jr9BBRP6zGztudMXlxCPacScbN2FXolXMQYQdu689+HLFTG7jIbuFiQrnfeS64hMvXWaZkmDdlOrXIRZ51N4zW23HcuDEY4NUK7h6tq7xLW4LBuFZnGJaXXWtOhSgouxiFt2/jnu5i3Ahfj+33+mJ11Dn8/MNXWLlwOvybFOEhO15aaxigzmKMfUBydrRCZvKlssWjrPxO3PQmxgTuE5DTsD+npYZj/fZ76Ls6Cud+/gFfrVyI6f5NUFQySCEdVokYTm1cILt1EQmZZSMvuHQZOpObo6mLIyxy82DdbXRp7I4bMwBerdzh0drAt26VUN8QkL++UN9A+PrtuNd3NaLO/YwfvlqJhdP90aToIbO15j8jqa88VsM5SSgGlfcN5Oa0VMO6MMmH9Mi6Y9QwV1w/EIaVYYeBl0ZhoK3+WGUMxsmhOvE5w7mV+T3rQ3yD6bpiAoUu5F1QVcjXS340yj9F5eaR2sek0bVKLebF6ql9vq4tJkZqTSlC1o0kJCQkVHpdROLfZevva44ZlE5OsLl3DDv2pWg+uyP18BKsOpRV9Se7mkL3sX9ZAMIv50GVewnbZy/GXpEfxg2p7hNvDbDog5FDHBC5Zj6+Schmxs5GwjeLsPTrP5FtbaM/qRzGytLIH2MHWiBi2XSERGWyVJKHKz8GIDA8F11HvgZ39gku/+J+hITsRoxB1VvDb+xQ2J37DG8t+xU3C1h+vhuJVRNfRO8hQTiVC2SfCMTU1TfRZ+mXWLLkSyztcwtr3wzEsUrtmomuYM/S6Zix5CBSNctRix/i5t8ZKLR1hKO1GURSGaSUgwcPNMlDuF/TYP1c2YOl02dgycFU5ikaMW7i74xC2Do6wtpOWG9lNIL/2IGwiFiG6SFRyGRi5135EQGB4cjtOhKvVTy5AnLPZ+Ca8zM+nR+GxBw1VPdjsOWdj3AQvfD6Ky0M+JUIUpkUlPMAWjU9BuH+/mUICL+MPFUuLm2fjcV7RfAbNwRN2CRjUN52YlzZsxTTZyzBQZ2B8PDm38gotIWjo7Wu+aqweRkTX7XB0eXvYMuFLKjyr+OnDxdhxy195rL2w9ihdjj32VtY9utNpnMV7kauwsQXe2NI0ClUb0qBuDYTGZTXTOkEJ5t7OLZjH1LY4YLUw1iy6hCy9ElBc6dDVHgXKSkPWApWIePPzZix+Cc80PRkcFm5HiNiDMWXcChkI3aeM/THkizQZ+QQOESuwfxvEpDNMn52wjdYtPRr/JltLSCngD9LJRCLCnE3JQUPmDlUGX9i84zF+OmB5s4SG6SADqvD5uWJeNXmKJa/swUXslTIv/4TPly0A2UmH4uhdufw2VvL8KsueBG5aiJe7D0EQTUJXs1dO0Py1xuabwhEKLybghRdx/hz8wws1nWs+9WB/IvYHxKC3QYTaD3lsZrOSQIx+MhgbpYa1oWJPqRDimdHvYa2V7dg5U9SvDyyPxrqjzyO4Tipvc8J5VZNyI/FQIsILJsegihdAsWPAYEIz+2Kka+5s1K0CuolPxrhnyIpZFJCzoMHzCJ1EJNG1yqmz4uGqHW+ri36Z5PrDd3CPe3cVsVLRJbDvmNnaRZOKKjp5ANli5eKYmihl4K8Fsbod1RDQTxtGOZKCjMxyS3kZOHsTwumPU+W5RbuKZpOpgNlDVPMQi9SeC3Ub1eD5gFzuQ0997IvNZVKSCoxI1nz3jTvQJr2gXPtr1soWtAbh8sWB+muKbdwT9GUJpd1zIa0kLwUXrQwRrtagVSZpyh4oDMpzKVkoZCQmcKZBn78e9kvOJRfuGdAlgr9MlS3IyjwRUdSiMyZTmQkljcn35m76JquW0rfMIBkkm60/K+qH5QvRXWPTi7zJ1dLMzKTykkmFpG8RT9aGHGHVPeP0Ntt5dRk0CYqWZBcfGUjvdxYRm3fjqgkUxElfzeZPJTmZC5vSFZsrBI7H5q+M0W3YOHRMZrpJiNzWUPqNPuk4X7Z6SbbtCiZvpvsQUpzppeGVqSQSMjOZzrtTNENwKDeKi8OUN2miMAXyVEhYmOyYDLKqbnvTNpVouRqKaYb+2bT8w5SMpPoxiZr3ofm7b9RupChOh4dm0luMnOSNexEs0+mVVq4Jyeb514m36ZSkjAfMZM1p97zDlBaSaMC8hYlf0eTPZRkbi6nhlYKkkjsyGf6TtKrplpU947T4v4tSG6m8UsJNeo6gYZ2tNCv3tYcP0nL/F3J0syMpHKmU5GcWvRbSBF3BEYrENeG5S2g+A3DyFVhxmxowa53Jv8F0+h5S/3CvYwImv+cLYnNpGTZQE5SW08as2we+SmVNDi0ZAGUglq8cZhKo7uGMUbZX9MgmYS6LIrV76gGVSadCh5IzgpzklqwcZgxHxv4Mf3OkoCgnIb8WZVBEfOfI1sx07tlA5JLbclzzDKa56ck5eBQ0qjfNJur6N7xxdS/hZz5L/M1SSPqOmEodbQoWUDHjp9cRv6ulmTG5JbLxCSSt6B+CyO0fVZP5YV7wvI/lgcKfqfZ7grqtvyv0oVQD7b4k0KfR8vnVEML9zIi5tNztmKWeyypgVxKtp5jaNk8P1IqB1OopuP0DTSA2VbTj0EE8pjWpyrMEQX0+2x3UnRbTqWp+cEW8leUm1MMzQNV+S3DcAways3CujA1b2gpiqclz0pJ7MpsXprLq8FAnGhsZtDnHtMz67rSXFwhtx5PrUKPKrodEUgvOipIxMZqwfqQN/elmbuuaRfHVUfd50cj/JNVUcdmupHMXEYNO82mkwW114/RtYrQvGhEX5URzteV5uY6RqT5hxWs/3IKcfdSNC7db4g2Xu3RpC5+7z/jK7zUMhDNdybj846XEHtLBlfP9nCQ64/XGcXIvBKDhDQV7Nt6wd2u9NH4MkyShbWbHIOLdwCHth5o3ahcu+p0bBz2X2DjbvxfE+F74qqsFMTGpyJH1hwdPFrBtgoRjUGdcxMJcVfwwMwObp7t0KSc/OrsFERf+Bvq5h541kV3F6Ku+q2IGjk3ExB35QHM7Nzg2a4JKqrRgN6qoDgzGTG6k+HRulHZwgYh8u8g8cIl3DNzQHtPNwh0o0eN7JRoXPhbjeYeXeBiXWK7DHz1UksENt+J5M874lLsLchcPdG+CgcxKK86BzcT4nDlgRns3DzRrryBDJKPO4kXkJxrhw6dXaF8zKVUyEqJRXxqDmTNO8Cjla2RehKIawF5C+9eQvSl+2jYxgvtK1+szsb1CxdwPV+J1p4d0ax0AXFNqJmvGKI48wpiEtKgsm8LL3e7Mv0IymnIn5m/XL+AC9fzoWztiY5VDdJUm2v9Nxm5dh3Q2VX5+F1MVRZSYuORmiND8w4eaGVS8Bohfz2hzr6OCxeuI1/ZGp4dm6Fiz2qkbxyG/2Ij9v5fE/2+6qmzPFarOclwDBrOzYZ0wTDVh9g89PWwdvjE/QCiP+5qVE6oNk401MrnqsutlSjORHLMRdyBA9p6tDYyb9d9fhS2STZSoi/gb3VzeHRxgXY4tY5JI2oVPSbPi9VRJ/naNP5HiuR6oDQhXcWml40M+vqijmXJP7MIo0PbYvWGkWhZTS7g/JsoK5Kvbnq5UtHP4XDqlPwzWDQ6FG1Xb8DIJ5lAn6Y5qZZoHjh4FB2EAf0PYODJ3zC/vWlfxXM49Q0vkapDJIKZuRn7n8En+p8MdSyL/LmF2BnCC+T/HUQQmZnDjPnHU+CtHM7/NvLnsHBnyJMtkDU8TXNSbSiOwsIuVrD1+QT5/w3GNF4gc55i+J1kDofD4XA4TwgVsq5fxLV8B7Sv/MgEh/OUwYtkDofD4XA4HA6nEvwLdw6Hw+FwOBwOpxK8SOZwOBwOh8PhcCrBi2QOh8PhcDgcDqcSvEjmcDgcDofD4XAq8VQVycUJ27Dw3fex+Y9s/R5Gzu/4ck4gfkis5u9FZp3CujkfYedlFdvIw5mNc7BgW4Lu2JNCnY6ja1Zg7zWNDE+WvDMbMWfBNv1WPaD6Gwc+fg+zPz2MNP1f03ySaMcX+AOqM39985h+C1IRl5ih/Z1PQSr45lNKTcZTiYLYMCwNjUKOftsUii9+j4WzV+JwyZ9qfeIUIDUuERna7v+h/PEvQHVtD5a+Nxdrjt810lf+ZbpUXcPeZXOw+liGfgenMgWpcUjUBcr/BnkpOP7tSgTOC8AHS9djX9z9anxbjftxhxF+4ioK9XvYxICNhuqSekR1dTeCPz+CO5WFNTCef3oeNRrVVewO/hxHyg3un5b9KSqSM7EneA7W/amEt2fZX3FX58bix7VfIeJa1RpS58Rg17pQHLuhOV6I1D8O4ZcLd3QHnwhq3N71Hqb9aAY3xyf/e4+FqX/g0C8X9Ft1T2HUOgQEHUahhw8c/gFveRS/B+u+ikA15q93KuiXTaRfDvHG+G2pRhUKFX3zKaSG46mMrLULsta8gcATppfJxdci8NWa7xF51xQJaosK174cAu/x25Cq7f6fyB//BvJw6rO5WHHcHF5d7IycNP5lulSl4eQ36xB+7oF+B6c8qmtfYoj3eGzTBcq/HvX9XxHg+wwGzNmKyOQriN69DCN8vDEu7BrLChVR/70d0wa+gnHLf0Xp7btH8dizrvq6pL5QZ57EorGTsOi7s8go97tkQuP5p+dRo1Bn4uSisZi06DucLTe4f1r2p6dIzr+OHOe3EfrNe/A0+c9KKzFiczzOftxXv/0EyD2OpQvOoFfAVLT7B34TXTliM+LPfqzfqmtUuHnHGq+u34bl/W3/v3w2p4J+KQfpd3NMKiifSmo7HotuePcdF2yftxpxT3PyrRZCTvpd5JQq4B/IH/8GVH/jbqMx2Bi2GM+X3b8QgOvyfwnKScfdskD5l6PCXyELsSbVF+siz+PnnTtx8I8L2D1RjJ2Bn+FUgf40DcVJ+PKNd7EnXb/9j1GAv4+uxKjuA7Hiz1yWucpTg/E8pRT8fRQrR3XHwBV/Ivcp+1Hieq97sna/jZ6jgrE5cCDcbGSQKV3Qc0oIzmVpjqqRvn0qegz6GFFmXpgYNA+DnAmxnw1Dj8nfaq/XQcj8PQj+7jaQSq3g/PwUhESXeySjlCzsfrs7+i86qdssTsXBJSPg46SETKKAXYdX8OH+VP0nxUJc27cQQ72aoYFEDIV9O/jN2oaLedqDRqJG2versM38VfynbwP9Pk23B7FkhA+clDJIFHbo8MqH2J+q/3xaeA37Fg6FV7MGkIgVsG/nh1nbLkLXrUb+nhi7PBSLhnRAY7kUli264c3vExEf9iZ6OjVk47eB28ClOHlfl7A0+u3ef5H2PbLOYu2EHmhjZ8nOs4aj93AERdzWF0FM1yc+xYRe7rC3lMBcLEcjt754KyyRhZ+GTOyc1hOj5y/Aq+1sYWnrhbnHsnEr7iQi/rhS+jWTOv0EPp3QC+72lpCYiyFv5Ia+b4UhUR+IWWfXYkKPNrCzlEJq7Qjv4UGIuF3L5Er3Efnxa/BsooBUZgv3/rPxY0rZ5/3Ca/uwcKgXmjWQQKywRzu/WdhWasgsnF07AT3a2MFSKoW1ozeGB0VAJ5JO36OCNyNwoBtsZDIoXXpiSsg5dkRHqX7VaQibOh5fJRUgOXQsekzYghSVkE4rob6D4ytGw6elFaTsXLu2AzCL2TZff7g+dKe+cxwrRvugpZUUYrkd2g6Yhe8TWY9VjkfAdx/DDA7DxqNv6kasPlxVPNYFAnFq0OcNwWI3bCrGf5WEguRQjO0xAVtSMivmD3bOneMrMNqnJaykzNft2mLArO+hUZ8GbW4buxyhi4agQ2M5pJYt0O1Ndjw+DG/2dEJD5m82bgOx9OT9kgvwds9RCN4ciIFuNpDJlHDpyXKZLhlqMd2XhamxvOp0nPh0Anq178ly80cY69UUbn3fQpg22FVI2ToFPbuOxNoE/Sck1VV8Pel5+P43jPlS+Vxc87xWf3bXkxePrTNegJst04N1K/SbfwTp5SdngVgVInPnNPQcPR8LXm0HW0tbeM09JtymoTEJ+I46fTum9hiEj6NKHwhAcexnGNZjMr79W68VE/OPOi0MU8d/haSCZISO7YEJW1LKfMPdHpYSc5ZbGpXzDWMQ8GVj5smV32H58GfgYCGBzNYdfvP2odpUVQECOffBhHffwmsu+jtbZo3w/PMdIL39N/4u0u3SfIMStWwSlmZOxPwhNlX8NVPC/ciP8ZpnEyikMti698fsH1P09UXtYrUy6r83YsLQz3F7wDqEvuUGsX6/DiPHY3AeNV3e3KMfol/3Sfim/LcMhWcR7N8Tb2434psk9d/YOGEoPr89AOtC34JbxcHpEKgB6hXNHxOpT+6F+JFMKqfGz0ymL4+cphPb5lMfBwk5/mcPZZCKbnzRhxTO0+jXfP0FVEC/vetGih4rtFuq2+upn1RE5jbeNO2rCDpzchvN79OEJM5TaH8mO37jC+qjcKZp2gbuUYifnOwn7NW2E73EhxpYe9GUDUco6txRCpnUiSyVA2jd1WLKPRVAnSys6ZnJa+jA6UiK2DKLethJyXnSHkpXabsWRnWD1vVvSC5vHaUy8aNpiU8DsvaaQhuORNG5oyE0qZMlKQeso6vFuXQqoBNZWD9Dk9ccoNOREbRlVg+ykzrTpD3pTBsa+WUkUTjRgEW76HT0SVo/3IkkVo3I8dn/0saIPyhy11zqrpRTt+VJ2u40+pXbT2DviuiP99n42k6gkKPRFH/+MH061JGkLabQwRzNiTtotIOc2oz8gg5HxVFc5D76ZKgzSZRDaWsGO666Tev7ScnMwpPe2HqKToXvoJPpeXRwSnNSDNhA6ZrOmHw7RjuQvM1I+uJwFMXFRdK+T4aSs0RJQzWNFP1B77Oxtp0QQkej4+n84U9pqKOUWkw5SBoRTEHrPyJzatJ7LoWdiKZzh1bS4JYSajJ+j+6E3FMU0MmCrJl/rTlwmiIjttCsHnYkdZ5Ee5ghi/54nzpZtqUJIUcpOv48Hf50KDlKW9AUnVK0+pbKGzM/+JKOnD5B2+b3IQeJI/1nj0Yp5fWbTbF7gmios4RaDg6kkD0xdF9ApxV9s4jiVviS0qYLvbH+IEVGn6Yflw4mF4vWNPXg/XrRHRXF0QpfJdl0eYPWH4yk6NM/0tLBLmTReiodvF/FeAz6rr7Nx7hP371qQ03G/sg0VHMe7Z9EDtLOFHihSL+nIobjVMDnBciO3UNBGnu1HEyBIXso5n75/KFR3wryVdpQlzfW08HIaDr941Ia7GJBraceZKPW+6ZEQU4DFtGu09F0cv1wcpJYUSPHZ+m/GyPoj8hdNLe7kuTdlmvbYxeQn0xK8sYs/r88QqdPaHKZA0kc/0Nad6uVLwtTU3nv7RhNDvI2NPKLwxQVF0eR+z7R+oty6FaWuxm5kbSwSwOyeXEt/VVcTFc2vkx2DZ+lwD8eaa4up8ua57X6tDuxiDr6jhvJGj9P7317nM4cD6OA3g4kFkmox4pkdlwgVgVR0e31/UhqZkGeb2ylU6fCacfJNIE2hfK3Yd+pmGt0FPz2LrkpetCKZE3w1iL/ZMfSniBNnm9JgwNDaE/MfWHfEMCwLxszT8pJ3sCFXpi/lY5HsXkoyI+aSZrSxL2mZCGG6jptHmRHiq7LKEGf6zIj3qGOzfrR5/EPae8Ee5L7hbCe9WjtweqSJr1pbtgJij53iFYObkmSJuNpDxOhtrH6GLkplHhVMzbmJ/M7ksJ7SamcVVJpPELzaK3kzdxOIxorqPvHSVQiUv6xt6lVgz70efUTRzlyKSXxqnb+KPpjPnVUeNOScoMTrAHqmSdTJMueo2Wlg1ZR2iZ/Ulq9QpvvFBlXJMvk9Pwnl0oNoLq5kV6yYoXZt6zMrq5ILjhOM1rJyOODc6xFPTm/UtCYybT27D0KH9WIFN2CKbHUFkyuLYNIadGX1lw3skrO3UVjGlnQS1+Vhg7rdga1knnQB+dKe2XdBtGYyWvp7L1wGtVIQd2CE0vHQqo02jJISRZ919B1lW4ykbKxa/MaI//IVHKUONHUI5qJh8HOX/uCnJpO3q/d1OhXV8Q9ol2jbalhzyA6/0Anf3HKL7Rx3V6KZ96nunOWtq0OpRPlPgEUnJxJbeTPUtBF1pm2SJaRvN86ull6Sn7FIll1h85uW02hJzSJSk/BSZrZRk7PBl2k4ke7aLRtQ+oZdJ50IhRTyi8bad3eeJMKKA1a/5E+T5+UKIRZ8/Rsd5KzJKEhO3wUNVJ0o+AyQzIVbaFBSgvqu+Y6M9Fosm3Yk4LOP9DJXJxCv2xcR3s1StFP3rLnyhKjRr+b/JVk9cpmusMuKNMvoyiWFnVRkMeH51mqEtZpBd/Mj6A3neTUNbgskWj6D3vVlqwGhVJ6PeguP+JNcpJ3peCksh7pXhi9amtFg0KZRSuNx6Dvls29lSimhCXeJHefTafLLjMaw0VytkCc5hr0eWGKKHZRF1J4fEjntd2Xyx/M9yPedCJ512CqqL5XydZqEGnUp/PNkiKEkX+EpjpKyGnqERaNGpisa18gedPJ2i12AZtYZfTcsoRSH1ClbSJ/pRW9svkOZdXKl4WpmbwqunN2G60OPVHupkEBnZzZhuTPBpEmZWh4dO4j6mplRwPmvEd9GllT96XR+hsG5XVZ07xWz3bP3kVj7RTk+2lymR20c4pUVyQLxap+T/XoimSZvB+tK0mmgm0azt9CvlMkVCTXMv8UxS6iLgoP+lAbKMb5hiEeGfLlbCPnSd9VdK2kf+18r5uHaowqnX6d9xzzrY40K0L3IUiVFk7jWznSa9+mMBkeVVMkS1ldUuZDBadnk7tcV+AZHF+tMKJIrmI8QvNo7eR9SHsmNCVZl0UUq82jufTLVCey9ttAN0r9wziqLZINyF7fPJHHTM1dfNG7dckDu2aw7+qD1oVJiL9s5IOM5k7o2sMZpS3YP4dnW+UjMe5y6WMAlVFnJuDiTWt09ulQ9rfhLfvig7BNeKvzTcQl5aJlt55wLX2OmMnl2wPtVZcQe7H0+xaDqO+l4kaOFRwcLEv2IDPhIm5ad4ZPh7K/SG/Z9wOEbXoLnW/GISm3Jbr1dC0dCxsMfHu0h+pSLHTdimDVyg3N9SeILBpAIW4Kp5YS3Q4zC1goRFAVV/6qQY4+48fB8c8F8G7WAp79x2He7mz4DB+IDg003fhgxDhvZO0KRsC08RjWzxvtB69DskoNtbrke0YRbJycYFudVzBZfUaMg3fWLgQHTMP4Yf3g3X4w1iWrWBtqkLwPxo9zxJ8LvNGshSf6j5uH3dk+GD6wA8oeRqk5ImUruJUohNnJyqoBRAWaLwmLcTUuCbktu6FnmSGZmL7o0V6FS7EXYd5nPMY5/okF3s3QwrM/xs3bjWyf4RioUYoWc7j49kaZe9qjq09rFCbFQ8g9jdOpDlVaDOJuFSNpwzB4duyIjtpXLyw6lYdHlxOQbFbXulMhLSYOt4qTsGGYp74/9uq1CKfyHuFyQnKl2DHsuz7VrhMwR/PmDsCt60it6+eSi68KxKm5QZ+vFao0xMTdQnHSBgzzLLFXR/RadAp5jy4jIVmnPZFVOd8UWaCBQoymTi2hi1YzWFgoIFKVU4y5C3x7ty6Xy7rCp3UhkuIv4q9a+7IwxsvL9OwzAuO8s7ArOADTxg9DP+/2GLwuGSoW6yXuLe8yFxvnu+PMys9wvsP72DD7GVTtKjXIa/Vs9+KUeCRmN4eXd8tyduiOrm103/MKxmp1k04lRDZOcNInU+E2DedvLdX6zmWWCQ1Tt/nHON8whNyALxdfNW6eVLq2LltMbqaEsqEIxYVGGqeE/EvY9sYLGLI2B69u2YsVLyiZgyRj0xszEdl3HdaPcSqToTIiJVq5NS+zh5UVGogKkP+IDI6vXqlqPHqqn0cN20OYhug/0h/2cTvxfTTzxNzj2L7/IXqPGIKmdVRhGpK9vnkiRbJIroCifE/mYuZYxAoJ/XaloNIUGBV3SSCVlG9ADLFmkwxEY1ExKxNYP5LHnyTSPO+mmQfEkooPv4iYXGJWLKhVRkQ5g4qKUCxissnK+ijSJHmxOaruVsWSmRgVuxUxdbAdTBm6bkWQSPQTRykiJpv+rQFsBnyOM9GH2ETlD5ecM9g09zX4eA3HlqusiE0LxyRvb7z+0S7EZMrg6jsRiwOHw7GCBzBZmA6qEl2LOg3hk7zh/fpH2BWTCZmrLyYuDsTw0kZsMODzM4g+tAGz/V2Qc2YT5r7mA6/hW8BEMBmdXaqmUGfIiseZsnQqVYFsBuDzM9E4tGE2/F1ycGbTXLzm44XhW67qnx0TQa5QVAgEc2Y/EPMD/XZ1GKdTPQUFzOus0GX0HAQEBJS+Fq4MQWjw62glrnvdFRSwCcOqC0bPKesvIGAhVoaEIvj1Vo/p1KDvGkAil0FcXIwi48KmBgjHqSGfrx0F0KlvNOaUs1fAwpUICQ3G6610MolYrD4WrYaCVSSHomIy1KicuZu6DnxZGOPlVSMtfBK8vV/HR7tikClzhe/ExQgc7lhp0lDh0aN89i+h4OF9PKy2RqlJXqtnuzM/V7FRaPRaCrOLvCSPC8aq7jQhRObMdiWxZESbgmMy4Ds6KgUg2186RdZp/jHWNwxgyJeNnCfNmX4rUMO8pc44iSUv98akg3Z476ejCBnhqo294oSt2PBzOm7teQOeLZqhWTNX/Cc8AwXH56Kj4ytYW2oPXWw+hka+OojVmlLdeEowNI/WVl6LPqMxpOVl7PohEpkRO3CooD9GDmpSZwWmQdnrmboag0FUqUlIKvcrUTnx8bhq7gp39sld4+hUWAD24UtPIW7fvlexQFHdxOW/yjWQHYe4FDFc3B6f6Eswa+QMR6tMJF8qt5ijOBGb3hyDwMNyuDiKcYPJUbpOhJEXG4e/0ALOLpWTedWY2zaGrVk27t8vcSMzNHJ2hFVmMi6Ve+K9OHET3hwTiMNyJziKbyA+vvzvMeYhNu4voIUzjOy2atQZiPphNXbe7ozJi0Ow50wybsauQq+cgwg7kIYb4eux/V5frI46h59/+AorF06Hf5MiPGSClOZYAdQ3wrF++z30XR2Fcz//gK9WLsR0/yYo0jeizojCD6t34nbnyVgcsgdnkm8idlUv5BwMwwFTVywYRAwnF0eIb8QjvqIhoVOpEx5G/YDVO2+j8+TFCNlzBsk3Y7GqVw4Ohh3QL0pQITUpqdxv/eYw+1yFuas79DeWysEmdf07NuAa6dS8qQscLXKRZ90No8eNwzjtawwGeLWCu0drKO/Xte7M0ZTpxiI3D9bdRuv7Y68xA+DVyh0erTW/VlJ+PIZ9d3+1v2OsRlbmAxTbNEKjus5iYifDcer00IDP39afbRhRdROreVPWtwVy86zRbXSJvcZhzAAvtHL3QOtqv24RQJWKpIrJEPFXzeHq3g6utfblOkR9A+Hrt+Ne39WIOvczfvhqJRZO90eToofM4mUfIHN+X4KpK1PQY948+N5YjTcXnyz7mSxTqWe7i53awEV2CxcTMkvHgYJLuHydVeYMoVg1xfSCbcJQ/taPqVrfacOKZXOYUyEKyiZSFN6+jXv6AdY6/5QPFCN9o3rUyDDgy/daMlnra54sIS8Ky4cOwYo7L2Hz8YMI7G1fWgxpvr2ZNH8uZrwxCZMmaV4TMMBdDnFLX4z9jz88rYWqccPjq/NY1WBgPMLUgbyy7hg1zBXXD4RhZdhh4KVRGGirP/Yv54kUyXR/P5YFhONyngq5l7Zj9uK9EPmNw5AmYiidnGBz7xh27EvR3LtB6uElWHUoq+JnYnqAA8HvY09KPtQ5FxH27mLsl7yMcYMaVz8Aiz4YOcQBkWvm45uEbFa0ZCPhm0VY+vWfyLZ2hf/YgbCIWIbpIVHIZLkx78qPCAgMR27XkXjNvcrbG4/T0IMVGwVIvnil9Osuiz4jMcQhEmvmf4OEbJYwshPwzaKl+PrPbFi7DsLYgRaIWDYdIVGZ7Jo8XPkxAIHhueg68jUY222VmIlwZc9STJ+xBAdTNSuMi/Hw5t/IKLSFo6O19q6MqPAuUlIesJBQIePPzZix+Cc80Gjd2G8tNHe5RIW4m5KCByxwVBl/YvOMxfjpgeZGRT4T4Qr2LJ2OGUsOQifCQ9z8OwOFto5wtGaWyr+I/SEh2B1Ttpq/tjTyH4uBFhFYNj0EUTpD4seAQITndsXI19pBfGUPlk6fgSUHU7W/OFH88Cb+ziiEraMjNCJpPvbf378MAeGXkafKxaXts7F4rwh+44agSWXnEkkhkxJyHrCikG3WSKfWfhg71A7nPnsLy369yc5Q4W7kKkx8sTeGBJ3Co3rQnbXfWAy1O4fP3lqGX2+yRlV3EblqIl7sPQRBp3IfG49B37UxQ/GlQwjZuBPnMstnzSJcvJgM87ae8GCTV9XnCED5yExJREJCQtnrYhJuZjcyHKftxAZ9XhgRpDIpKOcBHpQEcCnW8Bs7FHbnPsNby36FTn2RWDXxRfQeEgSN+kyC7mP/sgCEX86DKvcSts9ejL0iP4wb0gR2tfblukRzJ0+EwrspSNEFO/7cPAOLdcGu+0WE7BMInLoaN/ssxZdLluDLpX1wa+2bCDxW2/iuZ7vbvIyJr9rg6PJ3sOVCFlT51/HTh4uwo+SDoECsmmR6oTYF8rcWA74jVjrByeYeju3YhxR2eUHqYSxZdQhZJRNpLfOPSCqDlHLwQBsoRviGQVh7hnzZzr/+5kktxYj55E0ERVqh76td8PDXLfjyyy91r5D9SLJ5AdMXByEoqOQViJEeljBv5Y95i/8PPRsJBZvA+LTpfD9CQnajbqZCw+O5KGgQYXmFkeLZUa+h7dUtWPmTFC+P7A+jfy2y1uTj4v4QhOyOQd1VFuXQP5tcb2gXPtk8Ry/7NiWpREoSMxk17z2PDqTpn+guiKcNw1xJYSYmuYWcLJz9acG058my/MI9izY0aEIfaiqTk1xiRhIHX3r/8C3tA+bV/7oFO5Z5ioIHOpPCXEoWCgmZsfMGfvy7dmW6ZqFaROCL5KgQkbncgmRiOTX3nUm7rlW1gKg6NA+Qt6UGfb+gsrV+Kso8FUwDnRVkLrUgBZNX4TyQPv5dvyDgdgQFvuhICpE5G6+MxPLm5DtzF+m61civoKaTD+gX0rAefp9N7oputPyvkofWH9AWf0XpGLX61S8sK0r+jiZ7KMncXE4NrRQkkdiRz/SdlMIuVWVE0PznbElsJiXLBnKS2nrSmGXzyE+ppMGhd0ilXbinoBZvHC77pY7HFu5lUMT858hWbEZSywYkl9qS55hlNM9PScrBoXRHVUTJ300mD6U502lDsmI6l9j50PSdmsUPjPQNNEAmoW7L/9JsGYVmfIqmk+lAiUKoiOI/6kKKTh/ot1V0OyKQXnRUkIiN20LG/Ki5L83cdU27GI0phb6b7EFKc6bvhlbMHhKy85lOOzVK0fuLzXMvk29T5ptS5iOy5tR73gEqcc/y+tUsjjw2041k5jJq2Gk2Hb9lWKeVF9Oo7p2kZf6uZGnG9CdnthfJqUW/hRShWSHIpK1r3Wl0c+/kMvJ3tSQzJqOc6UYkb0H9FkZoFyVWHs/JAsO+m/31IJJJutAi3eoMHUXRtMCzIfmu1C1gqfIcA2gX7plpPxNXfImUNCo8lw3BcJwa8nljeHRsJrnJzEnWsBPNPplWIX8wg9HJZf7kamlGZlI561tE8hb9aGEEixd2+DHfLPidZrsrtDYq6f7BFn9SlPiPZrGP3Iaee9mXmjJfkzL9ypr3pnkH0rTt1c6XhamZvCrKiJhPz9mK2dgtqYFcSraeY2jZPD9SKgdT6J0MOvJ2W5I3GUSbSlawF1+hjS83Jlnbtymiwi+F1Dyv1bfdVfeO0+L+LUhuprGDhBp1nUBDO1rof91Cc9xQrAqhW7inaPEGHS5LpoJtGhyToO8UUPyGYeSqMGNzigWbW5zJf8E0et6ybKFmrfLPo2M0001G5rKG1Gn2cQHfMEJHAr5c03mSimJooZeCvBbG6HcYoOAszesgfjznaF7SF+nLx+SvZuGeoilNLpuYqCj+I+qi6EQfRDEhBcaXvmEAy5Pl/d9Yqli4Z8R4Hot91k6FebSWuUVLUTwteVZKYtfpdLRMLTWiuoV7hmuAdNowQEaSbsupxuo0ApHmH6bMeiPjq5fQMrA5diZ/jo6XYnFL5grP9g6Q64/rKMTdS9G4dL8h2ni1R5MqV36okXM9GjE3JXB9xgPNLPS7BSlG5pUYJKSpYN/WC+52ZYuSNBRnJiPm4h3AoS08WjcqW+RnJKrLn6Ffj30YFBmBWa3KfcQtzsSVmASkqezR1ssdFbtlMiXHQNetB1o3qmmvBlDn4GZCHK48MIOdmyfaNSmnaXU2rl+4gOv5SrT27FgDHZZHjezrF3Dhej6UrT3RsYpG1Dk3kRB3BQ/M7ODm2Q5lIqiRvnEY/ouN2Pt/TfT76gim7+SYi7gDB7T1aI2KKmW+czMBcVcewMzODZ7tmuj9LwNfvdQSgc13IvnzjrgUewsyV0+0d6jonRVgOkyJvoC/1c3h0cUF1qipTlXISolFfGoOZM07wKOVbQWfqxfdqbKQEhuP1BwZmnfwQCvbcj1WHo/mroFB361I4R/z4T30KuZHf49R9nV+O7MUg3FqyOcFYf6cEo0Lf6vR3KMLXKq4baLKSkFsfCpyZM3RwaMVyquvRmR8hZdaBqL5zmR83vESYm/J4OrZHo+5m0m+XD+os6/jwoXryFe2hmfHZjApZdSC+rO7hnzcSbyA5Fw7dOjsCuVjpjccq6Yh0GZ1YzLSdwrvXkL0pfto2MYL7aucSE3NPxpfSEH0hb+hbu6BZ12s68A3hHy5HufJJ8L/Y+9M4KKu1v//mYHZQGGAQNxYXMAVQok0Epc0Kc01fxquV7v+Tc30llvllojlNUsNU9wq0VS01NS8SS5wUwwLZBE0TCRFcUGJRbaZ539mYZlhmO+waMs9715jfLdznvNs55nvfM+MmfGpb2PTiH8Cm77G/6vxkeUfRQNzCxvTZyM64t/eR5DwQY9GiBXLUd/eBJ06/1/NT4AbirZUfoTUfBfwd+N3OjbNi7q8+d+qd7Uc0zw8Q0uG/5O+zLLgTsNjwcQdiT8rfzrdabhH+8e3pYCl1b5mkVM7Ju4+cTgWwX3nb8XDM0to+D+/pD9VOm8AmmEU/LycAp16UNXX/T4uHtKZJcPpn19m6T9VaVwe+VsYkUgMK7HI4Ln/vxdNMSB0DZ49vRLbrjyqdat/E+RPY/G+CIxp/Wd558z8UmwFMXPOP717/ul0B5TEr8XHmWOxbm73x3rX4C8L8zOxlZj972+bDDmPCu47fyvkTy/Gvogx+BOl8/pTHo/F3e3gGPBvFP9zJaZ3avBD43VEjqcX70PEmNaPZJHdI3/cgsPhcDgcDofzd0SFvGsXcbXYFZ28nf92N0x4kczhcDgcDofD4Rjxd7jZz+FwOBwOh8PhNCq8SOZwOBwOh8PhcIzgRTKHw+FwOBwOh2MEL5JNUJKVjLR7ul9fKjq7CXMX7dL+/Vek+lgajOoaDq38F2bPnm3y9da6U6jLD61ZTh5iw+fivX2X9duPgZIsJKfdwyMZzh8xnj+KvFiEz30P+y7zb375K6G6egAr3pyH9afu1D8GDGKoCGc3zcWiXanarT8a1dWDCJu7FicbKzf+0RSdxaa5i7ArtcZPR3I4nAbAi2QjVFc/xTD/CdiVpUuepVk/4tvvLmj//qthPJYGo7qJ/37xCbZ9l4479+7hnvHr94d4JKWQugCJ+8Ox/eR1/Y5HjOoqPh3mjwm7sh5Nkfy4x/MHoi5IxP7w7Th5nU/efx2KEPvRPKw6ZQW/7s71myRqxFApsn78Ft9dyNFu/dGosmPweXgUzj/4m6xbL83Cj99+hws5/M0oh9OY8CLZCCq4jTsFVaWRcvRWpJz7QL/118J4LI2DCE88Nx/bduzADqPX9ndfgPPfwaOoALfvFDyiu8gczp8c1W+44zQWmyKX4dmm+n11pUYMKTF6awrOfdBPv81pVJSjsTXlHD7oZ/LnajkcTj155CVN7r7p6BWyEItGdoSjrSP85p0E1Dk4tSoEAa3tILWWw7nDQMz5Mg3F+muQdw6fTAxEe2dbSKX2cPMfhdDoW7qEm/c1Xu/1ClZuXYJBXg6QyZTw7PUqIs7naS/VoM45hVUhAWhtJ4W13BkdBs7Bl2mVrQPlWTi6fDQC3JWQSRRw7vwS3j2chbLsSEybsBnpJRnYPi4QE7dlsu5exzMDlgIPDuOtPkGYc+i+vhENBfjPgn7o869D7G81bp/+EBN7e8PFVgIrNi4nr36YEZmGEu25efj69V4Y9/52LB3WGU/IpbBt1ROvsXGnRL6GXu5N2Vgd4DVoBWLu66cWAT1pZOs1bjV2vj8KT7raQCJzhHfwAhzKUkFtYiwaBHXTGGhtNA6rd76PUU+6wkYig6N3MBYcyqr1TnPD5CpH1tHlGB3gDqVMAoVzZ7z07mEwNWgpvXoIi4f7oUUTCawVLugYPAe7LhbpDubuw/ReIVi4aCQ6OtrC8cnpePvVCdicXoKM7eMQOHEbMlk7Ztuogc7Wr6zciiWDvOAgk0Hp2QuvRpxnR0ygvo3TH05Eb28X2Eqs2Pid4NVvBiLTmOeob2DHqz3g7+9v9OpRadO6ycakO/cJJga2h7OtFFJ7N/iPCkX0rYpyRo2cU6sQEtAadlJryJ07YOCcL1GbKbQ++MpKbF0yCF4OMsiUnuj1agSqhaMB6tun8eHE3vB2sYXEirXv5IV+MyKhGWqF3sat3on3Rz0JVxsJZI7eCF5wqNKWgvKZ06VJhOIWKEr5AjP7ecGRxWwTFrOvhq/GtGdHYV1KeU3/8ZuHk0z1gv5clIIvZvaDl6Mc0iat0PPVcKye9ixGrUvRHjavp1zsm94LIQsXYWRHR9g6+mGeplMD6pNv9Lrr1AuTQt/DOL/mhrozl5ero85G5DTjGNLI8wwGLI1hJ1gSH6W4emgxhvu1QBOJNRQuHRE8Zxcq3dpSWfQUpezArOd0NrRv2x8Lj9+GwT1koTmpOkxPe6YFYsgH8UxKPeVJ+GhEIKZ88Ztu24x86tt7MC1wCD6Ir7yaXf4RRgROwRe/ac8Q8EkT9v9mN15/ZgCWxujbLL2KQ4uHw69FE0isFXDpGIw5uy6i9qzA4XBMovme5EeHim5t6E9SsQ35Tt1BsbFRtDcmm5JXBZHSoTtN3XCU4hLO0FcrhpKnTTuadvQ+u6aMfny7K9l2mEgRJxIo5edj9OFwN5K2epWOFrDDmp/nlElJ/sSTNOXT43Tm9C5a2NeVJG7/oAP3NJcn06ogJTl0n0objsZRwpmvaMVQT7JpN420zVMJJSwPoCb2fvTqxuMUf/4ERUxm/SkHUnhyAh0IHU4ektY0dEkEHUi8r/1ZbbnLRDaUW/TZUAdyGL6D7mqa0XB/L73ioqTBW24yufZSiKuc2o9ZR8fikyk57hD9e7gHSZTDaYdGLu1PIMtIonCngUv305mEGNowyp0kdk7k9tQ/aVP0jxS3fx49o5RTz/fT2fllAnrSqILJJm9Cns8tpB2n4inuUCgFt5BQ80kHifKTaoxFWDcClJyluR2k5DnzBBXrd5lEYyO5nJp4PkcLd5yieKaL0OAWJGk+iQ7m68+pjpBcquu0rq+CPKZ/rzvfiJKE5RTQxJ78Xt1Ix+PP04mIydTVVkkDw38lKoyl+V1tyP7JKbT+yBmKi95GcwKdSeoxmQ7cVjGzbqD+UjHZ+E6lHbGxFLX3GJ36KpSGe0io9dAlFHEgke4LtFETna2l8ifoySmf0vEzp2nXwr7kKnGjf2ic1Gg8d/eGkKu8PY1Zd4zik5OZHf+t7V/JfO0e/U5Jh7ZSRESE/vUpLR7iRhJbP5p/+nfB8dWg7Ed6u6stdZgYQScSUujnYx/ScDcptXr1KGnCqyx5FQUpHaj71A10NC6Bzny1goZ62lC7aUfJlItofFAmldMTrP9Pj5+h07sWUl9XCbn94wCTXTPUddRX4UHTv9d4zF3aG+JK8vZjaN2xeEpOjqND/9b4qJKGa4NEozc5yZt40nMLd9CpeHY8NJhaSJrTJL3jCMlnXpcmEIrb/Gh63UtGTzz7Jn1+Mo5i9iym4NZSElt3pHlxJSb8J4ZulwjFWT5Fv+5FsieepTc/P0lxMXtocXBrlietqeO8OI1Q5vXEctGG/kwGG1+auiOWYqP2UkwNW9c13wjpTiAvG5BPSQeMYkhvW5eJLDfpZas1PhiFsfOpq409O76ejpyJo+htcyjQWUoekw/QbVVdZGEUnKA39Db84tRZOhU5n/q4WpNIEkirMjQ/oSucaw2oFr+VebDkv/QvLwUFrspgG+blM4wJHSX//Rd5KfTyCPmkKfunb2Q514UmHtT8bHUhxc7vSjb2bI5cf4TOxEXTtjmB5Cz1oMkHbj+Sn+7lcP6uPJYiWSbvT+E39KFZHE2vucupx8p0qvqF77sUOdKR7IZsp9v0kPaHOFLTXqH08wPdNeWZ39Gm8IOUopkntUWyjJ4OS628XpW9hQYr7eilrTlUFP0auct70Mr0ar8ffjeSRjra0ZDtt1k2OkWz2srI553zrFzWU/A9hY6dQp+cK6aypKXUXeFD7/5cpj1UWSQzcveMIRflENp2SyfXvZ0vk9MTL9NOVjWrcs7RrrXb6XS1yaokZja1lz9FoRc1sugnhsBVpM3LjOLj08hN4k7Tjut/j1+VTZ88J6fmUw5boCedbDJpEK25WtFnCZ2a1ZbkT4Vqt4zHUiykGyG0RbI1iSVysrGxMXo50Mgd+gpY/0YmaM3VyoRccmoWta3UhSGCcpktknVjlvm8Q+erDErfh46lKZ+co/yoV8hJ0ZNWplW1rcreRkOUNtRv/TUq0xQ5Mjn1D79RNXmUJdHS7gryefdnNt2xKV+gjSqLV6CztezpMKr8GXtm2y2DlWT30lbKKas+HhXlnNtFa7efZpO/7lTNmGJmt9fa0VBdKrp9bDb52rWiEdsy6ifbw/0U4tiUeoX+TLrwKqfM7zZR+MEUVtoUU/Rr7iTvsZIMTTGSHO2GkCkX0fqg7Olqv9evouwtg0lp9xJtzWFvQqoXBKocOrdrLW0/XW2iLomh2e3l9FToRSaJPkaC1lCVS2viVXeceYqAfHXRpQ6huL3/5ShybDqAwq9VHb+35xVykVQrko38R9Cf739Jo5gNBoRXs8+9PewNt0RXJAvpSVskyUjeP5wq0mpN6phvWE/mdSeQl40xiiGdPIZFcq3xocqnqFecSNFzJVW5NfOrbUNIadOP1l8rrJMs+fvHkbMiiD6sUARr68amF8hOqi9KLci1BggWyeZ1JVQkC84lpuyvvTGhL5Lzo+gVJwX1XJlWNR6m321DlGTTbz1Vc2UOhyPAY3mCVOTgDndHXVeq7EQk3yxH+sYR8O3SBV20r95YGluEh5dTkVEqR98J4+H20yL4t2gF3wHjseDrfASMGoTOTbRNAFaeCOrTDhW/EC526YGAdqVIT0lDVmIybpanY+MIX33b7NV7KWKLHuJyagaKc1Nx8YY9ugV0rvr5RNt+eCdyC2YEmH+ey+HFEAyyPY193+RArb6Nb/Z+D+kLbJ+TRoYAjB7vj7z9KzF/+gSM6O+PTkPDkaFSs3MrPtgTwa6tF1rqBRfZNIHCujncW0t0O8Q2sFGIoCpXWaAn3SUiZRu0c60woxhKZVOIyqs+xqtChWwB3Zi6qiZiNB/xMf7z/ff43uB1DCsG2ujPYYiUaNPOtfJ5HrFSiaaicpSWGi+UaaBc6lykXrwB+24B6FxlUPR7JxJbZnTDr8npKGzdE73aVP2evNglCIGdVLiUdBFlmh0iB7i7O9by7FG5ZW3UwAqeQX3QrspJ0SOgHUrTU3DZYA2bGC4BozHePw/7V87H9Akj0N+/E4aGZ0ClZr5TTV1FFz5GyITPIHvjS2z7R1tY10c2eV9MGO+Gnxb5o0UrXwwYvwBf5wdg1KDOaKLKRmLyTZSnb8QIX70d2Kv30lgUPbyM1AqnM8LKMwh9qgYKlx4BaFeajhTDgWp1EDB6PPzz9mPl/OmYMKI//DsNRXiGisWIWv/xtwjKNu1Q5dJKKJuKUF7K+haUr9xiXVZgPm7L8EtSGorcn0JAiyrvUPbsgc76kNVi4D/C/lz0SxLSitzxVECLKp9T9kSPikYt1JODuzv0abUWLM83bENAdxbk5TphJj6Kf0VyeiFa9+yFKrdm8gUFopPqEpIuWtVBlnJksnkhv6Uf/FtX89FneqC9tW7L0lxrOQ3TlaVzSW32L/81GemFrdGzV5vKOVKj36DATlBdSsJF0wmLw+GYwGyKbSxEVlawFuk3SkpY0WOH7iFzMX/+/MrX4tUR2L7y/9CWJS6HgR/jbMK32PjWYHgWnMWWeS8jwG8Utv2qfzBRJIdCUV101j7LBsSSeUkJy2h23REyt6rt+fMXY3XEdqz8P1ZYlJWzacwaVpIKgepAkwEYO9QR/913EDduHsTe000xOOR52LND6uwoTPb3x/+9tx+JuTK0CZqEZUtGwc1AwyJIJNVnVw0iph/9n9WxQE8aNLo1vLz2cQnqRn+eEFJnLzzVowd6GLwC4F191R4bFBPNgNoka5hcZdDM8dZWEpPtl6pYoWYtMWyDyWbNdqjVKl3BoZG10kFrYlEbNRBBrlAYBJiVzkmNnptUIztqMvz9/w/v7U9ErqwNgiYtw5JRbgbXqn+LwvSXF+NK/w3Yu+RZrc9pqLtsDhj48VkkfLsRbw32RMHZLZj3cgD8Rm3Dr6oS6EwRgrmVdmCvxasRsX0l/q/C6YwQyRUwDEcWX6xnFo6GqLMRNdkf/v/3HvYn5kLWJgiTli3BKIMgETG/qc1xhOQTW6TL6lgUtxqb1fawqwYj/7HMnzX6qaVRi/VkbdLnq6hDvrHADwXzcp0wFx+lrHDXuLWhv4nYeK3ZUbWK6iRLuYrtE2uurUIkl0NWoTwLc60xhrHF5KKqPcLyGUUm84WKyy2dS2q1f6mKvTWwhqH62Pm6pACmPg6HYyEGYfc4sGruCTebQhTZ90TI+PEYr32NxUC/tvD2aQdH3EP87rXYd6sbpiyLwIGzGbiRtAa9C44i8sgtXSOqLKSnF+j+1lCQgpRfrdDGuwNae7rBprAI9j1D9G2z19iB8GvrDZ92jrB28oCbXS4yLlVb5FGehi2vjcWSwzdZLjE37cjRa+wItIg7gM+3ReG/TwzD2L62bL8a16M2YM/dflgbfx7/2b0ZqxfPxOBmZfiddWJ2gq0FQT1ZYjmDsVihuYBuHrszaGmgXGIneLjZITfjEirXnrEpIm3Laxi75BjcWdvW15l/VCxO0lCUhORfgFYenjAuIXSwQkL/F5uq69mGClnp6ajy0gKkpPwKqzbelXewtKivI2rDHtzttxbx5/+D3ZtXY/HMwWhW9rtm2tX5aN5/sXTUVBxqvhC7I16Be2WRU3fZ1PfisXvtPtzqNgXLIg7gbMYNJK3pjYKjkThypxk83WxQWGSPniF6O7DX2IF+aOvtg3a1OJ0qKx2G4ZiCX63awNtgoJqhRmHDnrvotzYe5/+zG5tXL8bMwc1QZmmQWDU3L5+SFZdCujRAKG6t0b5rRyiunUd8lXPh9/h4pNV6N07Yn6Xtu6Kj4hrOx1fLQb/HI17faIP1VB+E/FBtQV42oHoMmcJMfMjdmZ2tcZ35kaFbJ+MXtIKH++91kIXFSHtPyG5eRGq1L3EvuXQZ1/QfdNQ912puABBKSx5Wlbqlt3Drrr59IV1pbmxQKUoeVlWrpbduQXd5w+cSa3c2HuvrTJ/3q/wLRUjSJQV4mk5YHA7HBI+/LrIPxrjhzjj/0QyEfX8DJSxZ3olbg0nP98Gw0FgUikW4cmAFZs5ajqNZmrW85fj9xm+4V+oINzf9/TO6j8Nh8xF1uQiqwkvY89YyHBQFY/ywZnAIHofhzufx0YwwfH+DXa+6g7g1k/B8n2EIjS0EbPpizDBXxK1fiM9T81nSyUfq50ux4rOfkG/vAJFUBikV4MEDfQY1QhowFqM8z2D16h/QemQIeuqf0NDc9RCV3kFm5gOWmFS499NWzFr2DR5o7n6ZXCItgJCe9KeZw3gs9kK6Ybq+9G0ENu07b/ZHQcryriM9NRWpRq+Lab8hz4IkboywXOawQd8xw+Aatx4LP09FPptF8lM/x9IVn+GnfHs4DR6HQTbRCJsZgfhcpoeiK/hq/hJEFfbAmJe92XRnApEUMimh4MEDphHUrw02fd4/HIb5UZdRpCrEpT1vYdlBEYLHD0Mzg6jT3PERofROJjIfMOWp7uGnrbOw7JsH2jtcxeWXsHniGKy60QdLlg+FbWaVvtOyHtRZNrHoCg6smIlZy49CF16/48Zv91Dq6AY35v/B44bD+fxHmBH2PXSmiMOaSc+jz7BQ1GYKun8YYfOjcLlIhcJLe/DWsoMQBY/HMMOBaoIE1qJS3MnMhG6oP2HrrGXQDdWSILEXkE9Al/pWqiMUt8rB0zCuRSyWjZuHz06cwem972H8v/Ygh2ovAgX9WTkY08a1QOyycZj32QmcOb0X743/F/bkkO59bYP1VB8EdGdJXq6OUQzVxFx8OGHwuEGwiQ7DzIh46Nz6K8xfEoXCHmPwckfrOsni8OIkjHQ4gfff2IYLeSoUX/sG7y7di5tsmFrqmmvFSri7O+Duyb04lMn6L8nCseVr8G2evugV0JVY6Q53h7s4ufcQdJcfw/I136Li8gbPJU6DMW6QDaLDZiIiPpf1XoQrX83HkqhC9BjzMrw1SYHllW8jNmHf+VzdNRwOxzT6Z5MfEbqFe4pWU+lY1RoFUt2NobDBbchWLCapXEbWIjm16r+YonN0KwrKMnbSFB8lWVnJqamdgiQSZwqYuY8yNasQtAsUHOjpF4OouVRCUomYZC370IIj2fpFLiq6GxNGg9vYklgsJbnMmkTyVtR/cTTpmydVbiytHORBCisp2SgkJFZ40KAPftCt3n94kmZ7ychK1pS6vhWjXZhUsXBPRzldDHuaZJLutOSCbkmKBtW9aFr4tCNZsz5tm8hJ6uhLY8MWULBSSUO352ikoohgBTWfcoT0y2ao5Ie3yFvRk97/pWJ5xQPaNlihX9wirCeNbIrmU+hIRYNURomL/Ujht1i3aTQWYd3k02dDZCTpvpSSqoZWhX7hnsZtTL1EtiNoZyE7T2MjRXOaUiUYlSUuJj+FHy1ONNWwgFwC327BDEqxKweRh8KKpDbMX8Ts3EEf0A9agzIfjF5Cz7spSMT8yYa1LW8ZRLP3X9UuKNIuvFK0oqnVHZRZ6ORsL5JZyahp17copsR8GzXRLVJyePpFCmouJQnzU7GsJfVZcISya4xHRfeiF9LTjtYkltpSE7mUHH3HUtiCYFIqh9LWpHX0nNS0vmWDt2mvr5tsZZSxcwr5KK3ISt6U7Jj/S5wDaOa+TN0iH9VdigkbTG1sxUweOcmsRSRv1Z8WR2t8uCba+HB4ml4Mas5ikY1VLKOWfRbQEe1ANUOtvnDvHkUvfJocrZk/2zYhudSRfMeG0YJgJSmHbme2rhkjzHFosZ+C/BYn6rbNymdel9srEkA1hOOWqDD5M5rWuw0pZRJq0jKAxs0aQV6yrvTO+bJa/Ec4B7FG6bNpvamNksVbk5YUMG4WjWCx2vWd88J6KtMs3FJQq6nHzHzLTF3zjbDuzOblGhjHkEae6gv3zMSHBtUtil7yPLkpRMxPbZid5dQyaDbtv6rz6rrJwuxxahkNaCUnscZHJU7UY+Jw6mJT8e0W7AyBXGtMScpGGtFGQWImlw2Tz2PwIpr+rK1+4Z6QfCWUsnEEtVGIyZpdK7fxoMGLptOztvqFe0I+qV24Z2T/6gv3GKpb0bTkeTdSiKxY+2w88pYUNHs/6dXHUv1nNIT5c/elSfodHA7HFCLNP2zC/QNQIS8zCSlZBZC17Ayfto5VC+k0qAtwIzUZVx6I4ezli47N5Lr99zbjhdZL0HJfBj7ucglJN2Vo49sJrvrDlajykJmUgqwCGVp29kFbR4PWGeXIvZKI1GwVXDr4wdu56rg6PxMJF36DuqUPnvI0cZekNtT5uHbhAq4VK9HOtwtaVFvHVn8E9CSAybEI6uYPooFyledeQWJqNlQuHeDn7Wyop/JcZCReRA5c0cGnHZyEmma2zEy4gN/ULeHT3RP2mpuiFrdxD5tfaI0lLfch4+MuuJR0E7I2vuhUw0mrUOdfw4UL11CsbAffLi1QZ9ep4/jUBTeQmnwFD8TO8PLtiIrwqkCVl4mklCwUyFqis09b1GaKe5tfQOslLbEv42N0uZSEm7I28O3kCjMjRf61C7hwrRjKdr7oUs8gMSdfnXVpJm7VOSmIu2kPnydbo2LNVcmJmegwKAVvXDqB2YYPihpSmz+rc5ASdxP2Pk+idVWjmNlhEFLeuIRTs93YjsbRU10R1F1tedkUpmJIi+XxUZ6bgcSLOYBrB/i0c7JsjqiN4hykXchAoXNndGujNPExah1zbekdXEq4hPtN28OvUzPUWPYtIF/pnUtIuHQfTdv7oVMzo6sbZS5hc1xGInTq80E7waTH4XCM+QOL5HpSWST/ii0vCiRFDucPoaoI+HXLi2YKxr8+lUXyr1vwdwzH8oRF8O+5E123HcemkLaQ3YvHuglD8Hb2P/Hf+PfQvZZFXWYpT8Ai/57Y2XUbjm8KQVvZPcSvm4Ahb2fjn/+Nx3v1avSvxP9OfHA4nL82Zm6D/EkRiSC2ErP/mV8WwuH8cYggEltBzHz07+6lIpEYVmI2zr/pQK19Z+L9f7nj5GQvKG2awNb1Gbx3rQ9Wb5lXvwJZg7UvZr7/L7ifnAwvpQ2a2Lrimfeuoc/qLZj3ty+QNfzvxAeHw/lr89e7k8zhcDiPmfL7mbj4Sw7K7DzQsUOzuj8OY4ry+8i8+Atyyuzg0bEDmj2eJyo4HA6HYyG8SOZwOBwOh8PhcIz46z1uweFwOBwOh8PhPGJ4kczhcDgcDofD4RjBi2QOh8PhcDgcDscIXiRzOBwOh8PhcDhG8CKZw+FwOBwOh8MxghfJHA6Hw+FwOByOEbxI5nA4HA6Hw+FwjOBFMofD4XA4HA6HYwQvkjkcDofD4XA4HCN4kczhcDgcDofD4RjBi2QOh8PhcDgcDscIXiRzOBwOh8PhcDhG8CKZw+FwOBwOh8MxghfJHA6Hw+FwOByOEbxI5nA4HA6Hw+FwjOBFMofD4XA4HA6HYwQvkjkcDofD4XA4HCMeeZFcfvFLLH5rNY7dVOv3/BUpwA+fzsWS3Wko1+8xJi82HHPf26ff4tSJkiwkp91DfT1EdfUgwuauxcl7f5CP5cUifO572HdZpd/RuBj41iPuyxJKspKR9kfpupFovHgtwtlNc7FoV6p+W4WsI8swbmAQnu03GeFfbsDcRbv0x/7iFJ3FprmLsCu1tixoOUVnN5nVS+PHdAmyktPwuNy2YfILzzdCFPzwKeYu2a3f+iugwtWDYZi79qR2S8g/HjfG+aLBObCBc15dqFWXqms4tPJNpvMTuN1gQdS4fWI9Vh28yizZ2Bj6xuPm0RfJV6Oxef2XiLvzmLLTo0BdiKSvPsHm6Ku1JC01ChL3I3z7H2PEvzSqq/h0mD8m7Mqqf5GcHYPPw6Nw/gHp9zxe1AWJ2B++HSevN7x4qImhbz3avoRRXf0Uw/wnYFfWXzieGzVeS5H147f47kKObrPoMBZNXoH/Wj+D4cMGwLvoPL797oLu2F+d0iz8+O13uJDT8GmwNOtHs3pp3Jhmk+ynw+A/YRcel9s2SH7B+UaYkmvn8O3xJP3WXwEVsmM+R3jUee2WkH88XgzzRYNzYCPMeXWhNl0Wn1mLeWHRIJ9ucGlgJai+tR9vTv8KYi83WOn3NR6GvvG44Y9bcP5YqAC37xQ8lmTBaThUcBt3Cri1qlBi9NYUnPugn3ZLnZ+N7PzmeGHOMrw56xX0n7INKec+0B77y6Mcja0p5/BBP5l+R/1Rjt76GPVCKLh9B/9LbusU8hlSzoTpt/56PF7/qBsNzoGPec4zrUsVrt92wOiNkQjtq9Tvqy+FOLViEc72no9pHRu/RP6j+RMUyaW4emgxhvu1QBOJNRQuHRE8ZxcuFukPIw/nPpmIwPbOsJVKYe/mj1Gh0bhVq4fl4evXe+GVlVuxZJAXHGQyKD174dWI8+yIhlzsm94LIQsXYWRHR9g6+mHeSdZZ6VUcWjwcfi2aQGKtgEvHYMzZdRGVYjAo9weEDvaGA5PDzuNZ1mYC8vXHDFEj59QqhAS0hp3UGnLnDhg450ukFesP532N13uNw/vbl2JY5ycgl9qiVc/X8GVaCiJf6wX3plJIHbwwaEUM7mvHqcbt0x9iYm9vuNhKYGUth5NXP8yITEOJtkHW5LlPMDGwPZxt2bX2bvAfFYro2pWE3H3T0StkIRaN7AhHW0f4zdO8SzYvd97Xr6PXKyuxdckgeDnIIFN6oterETivU6yW0quHsHi4H1o0kcBa4YKOwXOwq8KYufswvVcIFi4aiY6OtnB8cjrefnUCNqeXIGP7OARO3IZMlfBYi1J2YNZzXnCUM39o2x8Lj99m02A1BGxZV11BfRunP5yI3t4usJVYwVruBK9+MxCZViGRBZRn4ejy0QhwV0ImUcC580t493AWS1WMxmi/GuVZR7F8dADclTJIFM7o/NK7OJylv/unzsGpVSEIaG0HKdOtc4eBmPNlGqpck9l43GrsfH8UnnS1gUTmCO/gBTjErldnR2LahM1IL8nA9nGBmLgtk10h4OvGNvebB0241cR8nKtzTmFVSABa20mZfpzRYeAcFi8VndSCOZ0bIORz5mTT5JtnMGBpDMovrMHLL65CfGkOvp75DHq+/jWymD6fGbBU24oGc7ZR3z6NDyf2hreLLSRWTJdOXug3IxI6N9DltXGrd+L9UU/C1UYCmaM3ghccQoVpa2JBPNdia5No8tYzA7A0plSzISyPGf1r+q6uF6GYNm9/c7KokR05DRM2p6MkYzvGBU7EtkwmgUAcsCSBTyYGor2zLaRSe7j5j0Jo9C2mUdMI5iSh/kxgdr4RyBma/P5M8HLt3xo/EMqp5tHr9/3tWDqsM55gY7Rt1ROvMflTIl9DL/emTEcO8Bq0AjG6CcuC8RYhZccsPOflyOY/e7TtvxDHb1dpzNA/6i6/2XnIBOZjr4racqDF8qmzETnNeM5ju+vt3/ozzMxpxrGm040/gia+hxWvPge/6rrR1yard76PUU+6wkYig6N3MBYcMpU3daizv8SaXVYY+Y9+aKLfZzb3Cs535n2jsedLQegR8/DwZHKVdqMlF8r0ewwpjJ1PXW3s6ckp6+nImTiK3jaHAp2l5DH5AN1WEZX9+DZ1te1AEyNOUELKz3Tsw+HkJm1Frx4t0LdgzF2KCJaRVP4Ea/NTOn7mNO1a2JdcJW70jwP3iFS3aEN/KYltfGnqjliKjdpLMbfzKXZ+V7Kxf5KmrD9CZ+KiaducQHKWetDkA7dJpb9GZOVA/tM3U/TZGG2bzSQe9OrhXNaniq6v60sKj+laCcqSV1GQ0oG6T91AR+MS6MxXK2iopw21m3aU7mtOuBtBwTIJKdwH0tL9ZyghZgONcpeQnZMbPfXPTRT9Yxztn/cMKeU96f30cnb+XgpxlVP7MevoWHwyJccdon8P9yCJcjjtYENiSqK3u9pSh4kRdCIhhX4+9iENd5NSq1ePkmktqejWhv4kFduQ79QdFBsbRXtjbgvKfTcimGRSOT3x5BT69PgZOr1rIfV1lZDbPw6QRgxmTJrf1Ybs2fH1R85QXPQ2mhPoTFKPyXSAGVN1awP1l4rJxncq7YiNpai9x+jUV6E03ENCrYcuoYgDiXRfaKwFJ+gNLxk98eyb9MWps3Qqcj71cbUmkSSQVmUwXVGheVvWWVca9YeQq7w9jVl3jOKTkynu0L+1MiuH79COW3V9HfVVeND074t1F9SghBKWB1ATez96deNxij9/giImdyVb5UAK/7VcoH1D3xLsqySBlgc0IXu/V2nj8Xg6fyKCJrPxKgeG06/lZZS8KoiUDt1p6oajFJdwhr5aMZQ8bdrRtKNaz9TaWC5vQp7PLaQdp+KZLKEU3EJCzScdJMpPogOhw8lD0pqGLomgA4n3BX2mps1jtHFtjNk4L0umVUFKcug+lTYcjaOEM1/RiqGeZNNuGunFNoE5nZca6FQovsznIE2+kZPLxINsrGdp90cTqLPUmfrP/5S2fptGNzT6dJmo68esbe7S3hBXkrcfQ+uOxVNychwd+rdG10oarnV8XT/yJp703MIddCqeHQ8NphaS5jTpYL6ufSMsiedabW0KTd6Su9DEgw81GwLyCPh8db0IxbSg/c3Lkp90gEI19mw9lJZEHKDE+0JxUEY/vs1k7TCRIk4kUMrPx+jD4W4kbfUqmZx2BHOScNwZIDjfsBEL5AxNfpc3n6I9V3D+EEQ3p0oU7jRw6X46kxBDG0a5k8TOidye+idtiv6R4vbPo2eUcur5fjo7X3i8BSfeIC/ZE/Tsm1/QqbOnKHJ+H3K1FpEkcJX2uIF/1FV+gXmoJkKxVy0Hm8iBdZMvn5IOGM15DfRvofnfQJdCutHGuJyaeD5HC3econg2ltDgFiRpPolMpxmmm/AB1NRzBp2onJIaMt9Z4BsC1zc2f3CRnE9RrziRoudKStPkEi0qyt42hJQ2/Wj9NRU93B9Cjk17UejPD9gRRnkmfbcpnA6mmJ4YdA4lI9nTYZRa0aYqm7YMVpLdS1spp0yTgGQk7x9ONyriJT+KXnFSUM+VaVQlRjZtG6Ikm37r6VrFNc/+my5VtnmDNr1gxwzzhVEhU0zRr7mTvMdK0tS3FdyNHEmOdkNo+23NhqZIllLgqgx9f8V0fJobSdyn0XHN/MNQZX9Cz8mb05TDD0mVc452rd1Op6sFeEnMbGovf4pCL7IWHu6nEMem1Cv0Z3qgUxJlfreJwg+mMA2bQpdEZfL+FF6pBGG5NcEmkz1NYVWKpewtg0lp9xJtzVExNb5CToqetLLKmGwc22iI0ob6rb9GZZqCSSan/uE3dLbUUJZES7sryOfdn1lqZecLjDV//zhyVgTRh9rJR4OKbmx6geyk+glJyJaFdddVzrldtHb76WrFXQnFzG5P8qdCSaN+4cL1FM1qKyOfd86zK/UUfE+hY6fQJ+eKBNqvW5FccmoWtZX50DvnK3tiXYXS2Cmf0Lm8aHrNXU49VqZX6YbFS+RIR7Ibsp10rql5IxREa65WCFNCp2a11cqioSxpKXVX+NC7P2usJewz2iLZ2OYmMBfnxdGvkbu8B6007IRGOtrREG1AmUBA5wY6FfA58zlIN4FpimQN2rhVeNJM/YxRfYIya5uiHDq3ay1tP83eyOmPMSFodns5PRV6kdlLl9ekQWuoyjSaMeqO18TCeDZj6xrUKJLNyGNW/8UGehGKaWH7C+mmjJKWdieFz7ukc1uhOHhI+0McqWmvUPpZlySYyb+jTeEHydS0I5iTBPszQlskm59vhHJG9SJZcP4QRK9fVqRUDLH4+DRyk7jTtKoJiz55Tk7Npxy2YLz5tH+cMymCPqxsr2J8mj40VPePusovNA9VtaJHJRR7hjnYMAfWXT7jOa/B/i0w/xvEmpBu9LVJ0JqrlbrQ5q1afaWQ9o91IpsXNjMp9ZiNfaH5Tsg3hOfjxuaPfdyi/Fckpxeidc9eaFP5KIsYLkGB6KS6hKSLZZD3nYDxbj9hkX8LtPIdgPELvkZ+wCgM6lx5Y98EVvAM6oN2FW2KXdAjoB1K01NwWbsSQgQHd3c46kdf/msy0gtbo2evNlUPnbNrggI7QXUpCUwMhhXcewTCo1qbTz/VFsVpybis+fSxAlU2EpNvojx9I0b4dkGXLrpX76WxKHp4GakZ+pNFdmjr1VLfnwg2TRSwbu6O1hLtDohtbKAQqVCu0nQVgNHj/ZG3fyXmT5+AEf390WloODJUaqjVBKYkTBjvhp8W+aNFK18MGL8AX+cHYNSgzlUff5hA5OAO9wolWCi3lWcQ+lQpFi49AtCuNB0pl4vxa3I6Clv3RK8qYzLZgxDYSYVLSRehVaPIAe7ujrU+52N+rGXITElDfks/+LeuJsMzPdDeWrclaEuruuqKtR8wGuP987B/5XxMnzAC/f07YWh4BlRqJpPBZ6qmUeem4uINe3QL6Aypfh9s++GdyC2YEaCod/vqnB+x//Pt2L5d9/riaDJ+S72IG/bdENC5sifW1TuI3DID3e8lIvlmOdI3joCv3r5duvTG0tgiPLycikrXVLZBO9cKC4mhVDaFqLy6k+ux2NfN21xD7XGuQHZiMm6Wp2PjCN/KPrr0XorYooe4nJoBE5IJ6NzwmVqh+KpfDjJGjVwztglQuCBg9Hj45+3HyvnTMWFEf/h3GorwDBWTQa3/6F4EZZt2qDKNEsqmIpSX1t82FtvaJLXLY7n+ywViWmWh/S3XjSpbKA7k6DthPNx+WgT/Fq3gO2A8Fnydj4BRg1DT5ELyW9Kf7jxDzM03dctJgvOHRYhg19YLLfXyiGyaQGHdHO5VExZsFCKo2IQlON6iTKSk5aOlnz+qVOaCZ3q0h15lBtRN/nLL5qHqsL6FY692GqbfRvBvi+d/C3UjUqJNO9fKfC1WKtFUVI7SUhNjUd9F1vUC2Lm6wrZiV0PmuzIh32j4fFxXTPnkY6SUBRUTQmIohsjKmgnGBqxiI3YYiI/PJuCF3Tux/8h3OLFlHnauXY1hG2MQNblaIWSACHKFotLIGqys2ZnE2tRuiWDF+hBp/2aUsmKU9WgoBjvHmu1giteIoUEilRi0aW2t2SKjICpBCfNbu+4hmDuxo6F84qbo0FbfiUgCiT6/VCJifer/rI46OwqTe43HnoedEBTUHV2DJmHkS2fxzvxL+jMcMPDjs0h4YTd27j+C705swbyda7F62EbERE2u9gbEEJGVFawrlWCB3CnsGrkCCkPFsnNJoyamRq0xDZ1KxPrQqlGl0xPbtqrqtAZCYy1Xad41aPyjCpFcDllFk4K2dMCgOulKjWy2v9f4PXjYKQhB3bsiaNJIvHT2HVSqX4iycpYKmZ4kpsZd//bV2afx+bqdlc+lWfvNRkdftsF83WRXJSUs4uzQPWQuJhotsBA37YBK12R+YXi0NntZ4DMaowvYXEutcX4Sy3WdIGTuRBiKLUbTDm0N/a0Cszo3RDC+zOYge905FlCmecdbm23U2aytXhi/5yE6BQWhe9cgTBr5Es6+Mx9VbqDJW0YOWuvwLIxni21tCjPy1EH/QjFdYpH966AbC+LAYeDHOJvwAnbv3I8j353Alnk7sXb1MGyMYb5ilCQEc5KFcWdM7fNN3XKG8PxhCSI2X9WYsDShXRPB8ZbjmFZlBhqDXC4zabK6ym/RPFQdi2Kvdhqq34b7t/n5v3qGsniOrq0rY6iMhTrzDWk12zVovmPXmvWNRpiP60j1GHz8WLvD080a11NS9AvUdBQlJeMXtIKHpxXuxe/G2n230G3KMkQcOIuMG0lY07sARyOPoPa1VipkpaejQL8F9ldKyq+wauNd+e6+OtbunnCzvs7Ouc9MUEERkpJ/AVp5wFObG1S4cfmXam3mIzk5E9aeXoZJzqo5G5MNCovs0TNkPMaP173GDvRDW28ftKu4c2sxalyP2oA9d/thbfx5/Gf3ZqxePBODm5XhdyaspjhV34vH7rX7cKvbFCyLOICzGTeQtKY3Co5G4oi5BWnVsVBuVVY60quUgAJmu1+t2sC7vRzunm6wvp6CFENjQqdGTxinWB0s0er/Eh6rNdzbe0J28yJSc6v6KLl0Gde0nxAI29L99zrqSn0dURv24G6/tYg//x/s3rwai2cORrOy31n7FW+6zCN28oCbXS4yLlVb+FOehi2vjcWSQz/Vu31rv7k49FMiEhN1r/PbJ6FzGzfY5WbgUrWxlKdtwWtjl+BbkTvcbApRZN8TIXr7jh8/FgP92sLbp13lJytmYW/kKmk0X1ebifNjELu7waawCPY9Qyr7GD92IPzaesOnnek71GZ1fvimfocGIZ8zJ5u5HGSMGE4etdvm0E97sGHPXfRbG4/z/9mNzasXY+bgZiirCPK60uh5qG5Yrn+hmLZCc5ZX6mp/YwzdluUIc3GAe4jfvRb7bnXDlGUROHA2AzeS1qB3wVFEHrmlb6UC4Zwk2J/JAZiZb8R1yUnC80djIzheqTvae8pw82IqqlRWgkuXr7ESyZi6ys/sUcd5SH09qm6xV92Z6qXf6nNew/3b8vm/7roRxMoRTzAHzr9/n3msjgbNd6wmNOsbjTAf15VHmykroGLkZqYhNTW16nUxHTfynTB43CDYRIdhZkQ8cpkWiq58hflLolDYYwxe9pZAdOUAVsycheVHs5iqmK5/v4Hf7pXC0c0N9rVKT7h/OAzzoy6jSFWIS3vewrKDIgSPH4Zmpq5xGoxxg2wQHTYTEfG5zBhFuPLVfCyJKkSPMS/DW/uuivDgyEq8fSATxeoCXIz8F5YdluDF8UPwhEGb9ggeNxzO5z/CjLDvcYMJrboThzWTnkefYaGILdSfVgc0d9pFpXeQmfmAOYEK937ailnLvsEDzd2iYmZE0RUcWDETs5YfRZZOSbjx2z2UOrrBrXYlGWGZ3HT/MMLmR+FykQqFl/bgrWUHIQoej2FMsU6Dx2GQTTTCZkYgXmdMfDV/CaIKe2DMy95Gd6z0iKSQSQkFDx5og0BorA4vsnfpDifw/hvbcCFPheJr3+DdpXtR+Vs1ArbsaF1XXWnuSotQeicTmQ9YJ6p7+GnrLCz75gGL3RKzq9MrsemLMcNcEbd+IT5PzWeJMx+pny/Fis9+Qr69U8Pbr4ZN3zEY5hqH9Qs/R2o+Sxr5qfh86Qp89lM+7N1fxLjhzjj/0QyEfX+DaVSFO3FrMOn5PhgWGgtLXFMklUFKBXjwQGOtxvJ1sdk4b/3iOAx3Po+PZoThe10niFszCc/3GYbQ2joxq3MH/Uk6zPucedksDi+GWds4yWAtKsWdzEzo3OAnbJ21DDo3qKsXaGj8PFQn6qB/oZi2D66H/Q0QQSqTggoeQOe2webjQCzClQMrMHPWchzVJQn8fuM33Ct1hJtbzU8OBHOSUH/60wwxN9/ULScJ5VSwKy4ejkDE14mo9kVF9UdwvA54cdJIOJx4H29su4A8VTGuffMulu69abLIEZbfkDrPQ5o7q3WIPcMcWHf5jOe8hvp3Xeb/es3RZmkKH/bGpyTjIq7o1NHA+U7INxphPq4r+meTHxnahXti7V18w5dISa9EFZJmkUL0kufJTSEiK7kNyazl1DJoNu2/qnsonsoyaOcUH1JaWZG8qR0pJBJyDphJ+zJre0Jb85C7nByefpGCmktJIpWQWNaS+iw4QtmaB721iyIU1GrqMaq+9El1K5qWPO9GChHrx0ZG1vKWFDR7P2nF0F5jQ+2HTKS+zWUkl7M2Ja4U9PYxuql9eNzwwX5S3aWYsMHUxlZMYqmcjUlE8lb9aXF0ju5heM3D8YrmNOWIftEDldAPb3mTouf79EvFsB5so8EK3SIZ1b1oWvi0I1mLpWTbRE5SR18aG7aAgpVKGrpd02YZZeycQj5KK6bDpmSnkJDEOYBm7sustnCiOrqFHYpWU+mYgRLMy61dAODwNL0Y1JykEqZbsYxa9llAR7SK1cDajV5Cz7spSGQlJxuZNclbBtHs/Vd1i/I0i7gUrWiqQacP6eRsL5JZyahp17fo1E2hsaro7qllNKCVnNmAySBxoh4Th1MXm4qV5Jp+zNiyHrq6F72Qnna0ZjqxpSZyKTn6jqWwBcGkVA6l7TlMIsFvt2Ct5MbSykEepLCSkg3rU8zOH/TBD3RfsP2yOi3c08ibG7uSBnkoyEpqw+JFzK4dRB/8oFtVrrobQ2GD25CtWExSOdONSE6t+i+maDYODRobK5pPoUrXZPpKXOxHCr/Fus2HJ2m2l4ysZE2p61sxmgbN+oxpm5vAbJwzm8eE0eA2tiRmfiFnfiWSt6L+i6NJL7ZJzOncQKdC8WVWNl2+sWThnmYctdpGdY+iFz5NjtbMLrZNSC51JN+xYbQgWEnKodvZODX9KKj5lCMsYvSUJdJiPwX5LU7U7zDCgng2a2tjaizcMy9P7fqvqRfzMS1kf2FZHp6cTV4yK5I17UpvxZQIxkFZxk6a4qMkK5bHmtopmEzOFDBzH5medizISQL9GWDBfCOUMwwW7gnOH7dp40AZSarPPwbU1G/JD2+Rt6InvV81YdG2wYqqOBAaL/PNU8sGUCu5WDtHS5x60MThXcjG1MI9QfmNMT8P1UAw9ozmd6McWHf5DOe8mJKG+rf5Oc041szqpkZtoulqMfkp/GhxokntUcmZt6hDk3607lrVSOs/37E2zPqGBdc3MiLNP6xo/cMpz81A4sUcwLUDfNo5VT3wrUWNghupSL7yAGJnL/h2bAa5/khN7mHzC62xpOU+ZHzcBZeSbkLWxhedXGu/oopy5GYkQieGD9o5GUqhQV1wDQmJNyBp8yR8Wtjo95pGlZeJpJQsFMhaorNPWzjWbM5y2Luxaxcu4FqxEu18u8BU1+qCG0hNvoIHYmd4+XZEM0uGbILa5L63+QW0XtIS+zI+RpdLSbgpawPfTq41bVGei4zEi8iBKzqwd5km1GgIG1tmwgX8pm4Jn+6esIfwWFGcg7QLGSh07oxubZQmPhIxb8u66kqdfw0XLlxDsbIdfLu0gHnL1waT6UoiUrNVcOngB2/nKpkap/1qMBtcSUxFtsoFHfy8Ua0rhgp5mUlIySqArGVn+LR1NIo386jzM5Fw4TeoW/rgKU/dnbXG8XWBOFflITMpBVkFMrTs7IO2FnVSu84NEIyvuuQgAWq1jRr51y7gwrViKNv5ootAfrGURs1DdcZC/WsQiul62b8CptvMBFz4TY2WPt3hqb3DJhAH6gLcSE3GlQdiOHv5oqNQkhDMSXWPO3PzTe05Q42b4c+jzUpPPLy+Wb/LvH+rb2/CiH8Cm77+f6Y/ba0XwuMtzknDhYxCOHfuhjZKMx1bMP/VoE7zUN1ir0YOrKt8xnOe1h0b4t+sybrMaXWdo82huoyP+gfi0JA4RM9pW+1udMPmO3O+0ejzpRn+NEVy41FVJP+65cX6T2ScGlQWyb9uwYtcsRwOh/MnpARx87uhzzeDUXzRkl+tK8bZpSHY3mEtNo5p/ZieweT8ncj/z2vwf8sW2+JXI/BvVhv8DeNBBJHYCmJR9YfjOY2BSCSGlZjplSuWw+Fw/nyUnMIb3g4I+vA6fP5vhH6nEHI8vXgfIniBzKknTQeEYs2zp7Fy2xVULOD7u/A3vJPM4XA4HM7/IkW4lX4JN0Qt0cXbBYbfCM7hcOoKL5I5HA6Hw+FwOBwj+KcrHA6Hw+FwOByOEbxI5nA4HA6Hw+FwjOBFMofD4XA4HA6HY8QjL5KLzm7C3EW79FsNoQhnN83Fol2p+m1jVLh6MAxz157UbzcCJVlITrsHU78C9OfkEejAGFUWjiwbh4FBz6Lf5C1Iq/iVnXpSkpWMtHt/HQ3/4eTFInzue9h32ZI1xCVIilyB7fHVfkecw+FwOByORTzyIrk060d8+90F/VZDKEXWj9/iuws5+m1jVMiO+RzhUef12w1EdRWfDvPHhF1Zf6kiuVF1YIKiw4swecV/Yf3McAwb0BWuDfAg1dVPMcx/AnZl8SLZUtQFidgfvh0nr1vy7kSGdp55WD91CU7zOpnD4XA4nDrxyItk5eitSDlnyReaC6HE6K0pOPdBP/32I4YKcPtOwV+oQH4cqJGfnY385i9gzrI3MeuVp+HQAA+igtu4U8A1/Cix6fkvvOG5BwvWJqOBN/05HA6Hw/mf4pEXyXlfv45nBiyt/LvXuNXY+f4oPOlqA4nMEd7BC3Aoq+qj4/Kso1g+OgDuShkkCmd0fuldHNYez8PXrz+DAUtjdCeiCCk7ZuE5L0fIpfZo238hjt+u/m12auScWoWQgNawk1pD7twBA+d8ibRi3VGzsqizETltAjanlyBj+zgETtyGTM3unFNYFRKA1nZSWMud0WHgHHxZ0WANNPL2wisrt2LJIC84yGRQevbCqxHn2RGG+jb2TAvEkA/iUao9n1GehI9GBGLKF7/pd5gfQ0N1UBM1bp/+EBN7e8PFVgIrazmcvPphRmQaSliJdWHNy3hxFZM352vMfKYnXv+ajUSdg1OrQhDQ2g5Sdr5zh4GY82UaKrsoz8LR5aMR4K6ETKKAc+eX8O7hLJRlR2LahM1IL8nA9nGBmLgtU6uT0x9ORG9vF9hKrJiOneDVbwYi00p0beXuw/ReIVi4aCQ6OtrC0W8eThbpDlVhbgw1Ud/eg2mBQ/BBfKUVmBk+wojAKfjiN00Br7PjuNU78f6oJ+FqI4HM0RvBCw6hwm3Vt0/jw4m94e1iC4kV07OTF/rNiESF2DXIO4dPJgaivbMtpMxubv6jEBp9i0muo/TqISwe7ocWTSSwVrigY/Ac7LpYY6BaBPsWu2LEhH7I2rQWx/L1+zgcDofD4Qij+Z7kR8ndiGCSu0ys+lvehDyfW0g7TsVT3KFQCm4hoeaTDmqPU0kCLQ9oQvZ+r9LG4/F0/kQETe5qS8qB4fRr+V2KCJaTy0TduQUn3iAv2RP07Jtf0Kmzpyhyfh9ytRaRJHCV9nhZ8ioKUjpQ96kb6GhcAp35agUN9bShdtOO0n123Lws+ZR0IJSGe0io9dAlFHEgke6XJdOqICU5dJ9KG47GUcKZr2jFUE+yaTeNjmoarIFGXhlJ5U/Qk1M+peNnTtOuhX3JVeJG/zhwj0h1ndb1VZDH9O+pWH8FlfyX/uWloMBVGdpNoTE0VAc1uLuXQlzl1H7MOjoWn0zJcYfo38M9SKIcTjvuqejW2d300YTOJHXuT/M/3UrfphVQ8qogUjp0p6kbjlJcwhn6asVQ8rRpR9O0SimhhOUB1MTej17deJziz5+giMldyVY5kMKTE+hA6HDykLSmoUsi6EDifdZ9CLnK29OYdccoPjmZ2eTfWhsoh+8gpjFS3dpA/aVisvGdSjtiYylqbwzdVmklr8LsGPTnVEN1fR31VXjQ9O8rrcDM8C/yUgTSqoxytqXzO3kTT3pu4Q46FR9Hh0KDqYWkOU06mK89vjfEleTtx9C6Y/GUnMyO/1szLiUNN9UhldGPbzMddJhIEScSKOXnY/ThcDeStnqVjhaww4WxNL+rDdk/OYXWHzlDcdHbaE6gM0k9JtMBNlhDeS3s+/5OGunQjMZ9pZGXw+FwOByOJTz2IlkmDaI1VysqmxI6NastyZ8K1W2dmkVtZT70zvkS7baGgu9DaeyUT+hccfUiOZ/2j3MmRdCHpK1jNKhu0KYX7EiqLRCLKfo1d5L3WEnpFccZdyNHkqPdENp+W1gWKkuipd0V5PPuz6ysYS1Gv0bu8h600rBBGuloR0M0DdZAVyTLng6j1EoZs2nLYCXZvbSVcsqEimShMTRcB8aocs7RrrXb6XS1yrMkZja1lz9FoRc1jago+5PnSOE5k05ohC6Optfc5dRjZTpVdXGXIkc6kt2Q7XS75BTNaisjn3fOM+3qKfieQsdOoU/OFTMVL6XuCh9692eNhlWUc24Xrd1+ulrhW0Ixs9trbaLpXlsky+TUP/wGO9s0wmMwxLIimb3ZCVpDVa6iGZecngq9qOmQzu1aS9tP366SqSSGZrfXHa/Z40PaH+JITXuF0s8PdFeUZ35Hm8IPUgqrYfOjXiEnRU9amVZ1pSp7Gw1R2lC/9deorLq8lvZdnkrL/eXk/daZKjtwOBwOh8MxyyN/3MIYkbIN2lWu9hJDqWwKUbnmo241clMv4oZ9NwR0luoOM2z7vYPILTMQUP33NcszkZKWj5Z+/mhtpd8ndsEzPdrDWvO3KhuJyTdRnr4RI3y7oEsX3av30lgUPbyM1AzdR+u1y2KMCtmJybhZno6NI3wr2+vSeyliix7icmpG1SMTBljBM6gP2lWTsUdAO5Smp+Cy0AOiQmNI/6VRdFAdsUsARo/3R97+lZg/fQJG9PdHp6HhyFCpoVbX/GFGVXYikm+WI33jCPjq2+/SpTeWxhbh4eVUXL6Vios37NEtoDMqLWrbD+9EbsEMA4NqEMMlYDTG++dh/8r5mD5hBPr7d8LQ8Ayo1Kz/iu5FDnB3d6z1OaG6jsEyRFC2aVe1SFGshLKpCOWlTIdM5wGjx8M/bz9Wzp+OCSP6w7/TUIRnqFh/atTsUY6+E8bD7adF8G/RCr4DxmPB1/kIGDUInZuU49fkdBS27olebSqMqukiCIGdVLiUdBFl+n1aLO3bqiVaugI3r2Xx55I5HA6Hw7GQx18kW1mx0rE6Iv3/gbJyFWBtBUnVrlooh4qdKrbWloN6RJDLZfrWSlDC6he77iGYO38+5le8Fq9GxPaV+L+2uuvMyWJMia5BhMyt1t78xVgdsR0r/6+trjCtAZNJoTBQshUbH4gVbPptwyJKUwxW7BEaAzWKDqqjzo7CZH9//N97+5GYK0OboElYtmQU3GrzkpIS9ubADt1D5la1z16LV0dg+8r/Q1tidmKasRI2KEON7KjJ8Pf/P7y3PxG5sjYImrQMS0a5GTqpiNnMuvb26jwGLUalrKbANNglghXzFQMqRFBnI2qyP/z/7z3sT8yFrE0QJi1bglFmOnQY+DHOJnyLjW8NhmfBWWyZ9zIC/EZh268qlKpYGWstMfQnNmaNmdVqlaGkFvctgVxmjfLyMhNFO4fD4XA4HFOYLR0eL2I4ebjBLjcDl25VfeNBedoWvDZ2CQ7frPYtCNbuaO8pw82Lqcit3F2CS5ev6e6UWTWHp5sNCovs0TNkPMaP173GDvRDW28ftHO0ZNiiyjpIc0e4uacbbAqLYN8zpLK98WMHwq+tN3za1XZnU4Ws9HRUfftWAVJSfoVVG2+0Z8WylRWhtORhVeFSegu37uoHJDQGF89G1oEa16M2YM/dflgbfx7/2b0ZqxfPxOBmZfidtc/qxhpYNfeEm00hiux7IkTf/vjxYzHQry28fdrhCWcPuNnlIuNS1aI0ZlBseW0slhy+yVRcrdhVX0fUhj24228t4s//B7s3r8bimYPRrOx3zVuHquvNUvcxMCPAikpR8rCqfCy9dQsVZhBCfT0KG/bcRb+18Tj/n93YvHoxZg5uhrLaOlTfQ/zutdh3qxumLIvAgbMZuJG0Br0LjiLyyF24Mz+zvp6ClPvVri1KQvIvQCsPT1buVmFx3+o85D4oh4OTUy1v5jgcDofD4RjzJyqSAZu+YzDMNQ7rF36O1HxWGOWn4vOlK/DZT/mwN/iuMQe8OGkkHE68jze2XUCeqhjXvnkXS/fe1BdT9ggeNxzO5z/CjLDvcaOElat34rBm0vPoMywUsYXak8wjkkImJRQ8eKAtOu2Dx2G483l8NCMM3+saRNyaSXi+zzCE1tog4f7hMMyPuowiVSEu7XkLyw6KEDx+GJpZK+Hu7oC7J/fiUCZrryQLx5avwbd5FcWa0BgaXwfWEmuISu8gM/MBa0OFez9txaxl3+CB5q60qW/EsA/GuOHOOP/RDIR9f4OdpcKduDWY9HwfDAuNRaFNX4wZ5oq49QvxeWo+q9vykfr5Uqz47Cfk2zswFcsgpQI8YAUc6x0SaxFK72Qi8wEbgeoefto6C8u+eaC9Y13rF3IYUdcxiJXucHe4i5N7D0FnhmNYvuZbVJpBCM1dX1Ep7mRmQif2T9g6axl0YpvqUIQrB1Zg5qzlOJrFOmTe9fuN33Cv1BFubvZwGjwOg2yiETYzAvG5TC9FV/DV/CWIKuyBMS97G37yYWnfZRdxMcMKHXx9tEV2+aVvEbFpH85XvbvicDgcDodjjP7Z5EeG8cI9RfMpdOShdpNRRomL/Ujht1i/raLc2JU0yENBVlIbUkjEpPAYRB/8oP0+imoL9zSn3qVTywZQK7mYJFIJSZx60MThXchG/80OmuMxYYOpja2YxFI5yaxFJG/VnxZH52gXOQnL8pBOzvYimZWMmnZ9i2JKVHQ3JowGt7ElsVhKcpk1ieStqP/iaMqpXDVVHZ28Dk+/SEHNpVoZxbKW1GfBEcrWn1+SspFGtFGQ2FpONnIb8hi8iKY/a1v57RZCY2ioDoxR3YumhU87kjUbn20TOUkdfWls2AIKVipp6HbNNUYL9zTX3I2hsMFtyFYsJqlcRtYiObXqv5ii9UpR5cbSykEepLCSko2C6UDhQYM++EH37RoPT9JsLxlZyZpS17dO0b3ohfS0ozWT1ZaayKXk6DuWwhYEk1I5lLaz9rQL9xStaOqxqkV2xgiPwZgSStk4gtooxGTNbCC38aDBi6bTs7bVF+4pqPmUI8wj9JQl0mI/BfktTtR0SNELnyZHazZ+2yYklzqS79gwWhCsJOXQ7SZ9oyxjJ03xUZKVlZya2ilIInGmgJn7KFO70k5Ft6KX0PNuChKx4zbMz+Qtg2j2/qvaBaQGCw0t7LssYRH5Ng2i1foVnvmfDSGZpDstTdK0yOFwOBwOxxQizT/6evnPQ3kuriSmIlvlgg5+3nCuWsdXg+KcNFzIKIRz525oo6x5Y1yVl4mklCwUyFqis09bOJppqwbqfGQmXMBv6pbw6e4Je03zqjxkJqUgq0CGlp190LbWBu9h8wutsaTlPmR83AWXkm5C1sYXnVzl+uN6Su/gUsIl3G/aHn6dmsF4OZsGoTE0qg7YmK9duIBrxUq08+2CFjb6/WZRIS8zCSlZBZC17Ayfto5VC/W0lCP3SiJSs1Vw6eAH72oGVednIuHCb1C39MFTnvZs+xouXLiGYmU7+HZpAYu6N6YeYyi9cwkJl+6jaXs/dGpmygrmUCP/2gVcuFYMZTtfdLGkQ3UBbqQm48oDMZy9fNGxmZFfsBjISLyIHLiig087ONVqM6G+S/HjQn8M/3UhEr58BS5/qs+OOBwOh8P58/LnLJL/FlQVyb9ueRFGJRCH83jI/QoTAj5A2z2xWNLd3LsjDofD4XA41eH3lR4ZIojEVhCLqi8A5HAeJyWIX/sxMseuw1xeIHM4HA6HUyf4nWQOh8PhcDgcDscIfieZw+FwOBwOh8MxghfJHA6Hw+FwOByOEbxI5nA4HA6Hw+FwjOBFMofD4XA4HA6HYwQvkjkcDofD4XA4HCN4kczhcDgcDofD4RjBi2QOh8PhcDgcDscIXiRzOBwOh8PhcDhG8CKZw+FwOBwOh8MxghfJHA6Hw+FwOByOEbxI5nA4HA6Hw+FwjOBFMofD4XA4HA6HYwQvkjkcDofD4XA4HCN4kczhcDgcDofD4RjBi2QOh8PhcDgcDscIXiRzOBwOh8PhcDhG8CKZw+FwOBwOh8MxghfJHA6Hw+FwOByOEY+8SC6/+CUWv7Uax26q9XseNUU4u2kuFu1K1W83gKKz2DR3EXallut3GKG6ioNhc7H25D39joZTkpWMtHuPS1eMRzAGY/JiwzH3vX36LUZJFpLT7qFhoyxBVnIaHouqavUDFa4dWok3567FiduP0WaNhOrqQYQx2U8+Tn/7k1J0dhPmLtql32os8hAbPhfv7bus3zZFw/244IdPMXfJbqTVkqYEKfgBn85dgt31bsAEjyGv/F1QXT2AFW/Ow/pTdxqYEx8nKlw9GIa5a0/qt2tiEFN5sQif+x72XVZpNiyIC87flVpzreoaDq18k/nUCfyZptNHXyRfjcbm9V8i7s7jGnUpsn78Ft9dyNFvN4DSLPz47Xe4kKMJbBOoshHzeTiizj/Q72gYqqufYpj/BOzKeowe0shjqIkaBYn7Eb5dn0zZ5PnpMH9M2JXVgAmBJehPh8F/wi48FlXV5gfFZ7B2XhiiyQfdXP56H8qosmPweXgUzj8g/Z7/XUqzfsS3313QbzUS6gIk7g/H9pPX9TuMaQw/VqMw6St8sjkaV+tb45Zcw7lvjyPpdi15rj488rzyd6EIsR/Nw6pTVvDr7vwX+mhXheyYzxEedV6/XZPqMaUuSMT+8O04eZ05qWBccP7O1JZri8+sxbywaJBPN/yZptO/3swuiBKjt6bg3Af99NsNQDkaW1PO4YN+Mv2ORwsV3MadgsdYIP8RUAFu3ylo4B0TQsHtO3hsqqrFD1TXb8Nh9EZEhvZlXsf5K6McvRUp5z7Qbz0uHrMf14ZTCD5LOYOw3o8nz3GqofoNd5zGYlPkMjzbVL/vb8IfE1OcPzum/UKF67cdMHpjJEL7/rlm0z9BkVyKq4cWY7hfCzSRWEPh0hHBc3bhYpH+MPJw7pOJCGzvDFupFPZu/hgVGo1btU4sefj69WcwYGmM/u9eGLd6J94f9SRcbSSQOXojeMEhZFXeNClH1tHlGB3gDqVMAoVzZ7z07mHd8byv8fozA7A0plR3alEKdsx6Dl6Ockjt26L/wuO4Xf0mnDoHp1aFIKC1HaTWcjh3GIg5X6ahWHvQvCzq7EhMm7AZ6SUZ2D4uEBO3ZWoaRM6pVQgJaA07qTXkzh0wcM6XSNM1yKirbhgNGkMtqG/j9IcT0dvbBbYSK1jLneDVbwYi00r0J+hRZyNy2gRsTi9BxvZxCJy4DZkqNW6f/hATe3vDxVYCK9ank1c/zIhMg9HVetTIjpyGCZvTUZKxHeMCJ2JbpkaB9de97pRz+GRiINo720IqtYeb/yiERt/SFfPGflB6FYcWD4d/0ES8t+JVPOcXjDm7LkLnspb4XE3yvn4dvV5Zia1LBsHLQQaZ0hO9Xo3A+TzNUaajPdMQOOQDxOtF0Pht0kcjEDjlC/22RgWnsCokAK3tpMwGzugwcA6+rHIWZvodmPWcFxzlzFfa9sfC47dZmVaF+evrM65c7JveCyELF2FkR0fYOvph3kmmJUEfK0LKFzPRr70D5DIl2j2/ADvWTUUv7Vgt0YVA3OTuw/ReIVi4aCQ6OtrC0W8evtn9Op4ZsLTW4xqxTSGk89ox7ce5+6ajV8hCLBrZEY62jvCbd5KF12l8OLE3vF1sIbFi43HyQr8ZkTAIL8rFD6GD4e0ghdTOA88y30nI1x8Tik/NeJ8JxvIfdAotvXoIi4f7oUUTCawVLugYPAe7qhKyaRo9r1hgZ01c9hqH1Tvfx6gnXWEjkcHROxgLDmWxKVdDXXOLHn18+7VoAom1Ai4dq8e3KfSx8f52LB3WGU+w+LJt1ROvsfGlRL6GXu5NWU5xgNegFYi5r0/OFTbp1AuTQt/DOL/mhjYxl49qoTzrKJaPDoC7UgaJwhmdX3oXh7WTy23smRaIIR/Es9lWT3kSPhoRiClf/KbbFszhLCZ3zMJzXo6QM3na9l+I49UNLBRT5hDqu6660PrFK1i5dQkGeTlAxnKIZ69XEaFLplrMx5TpvGVRHBqRd+4TTAxsD2dbFpf2bvAfFYpo7QRtWU43oJa8ZDYHCepCKEZM6aJAOK7Ks3B0+WgEuCshkyjg3PklvHtYF5eaua66X+jyjT+CJr6HFa8+B7/q+UYwxh8D9Ih5eHgyuUq70ZILZfo9hhTGzqeuNvb05JT1dORMHEVvm0OBzlLymHyAbquIyn58m7radqCJEScoIeVnOvbhcHKTtqJXjxboWzDmLkUEy8ll4sHKv+VNPOm5hTvoVHwcHQoNphaS5jTpYL727JKE5RTQxJ78Xt1Ix+PP04mIyaw/JQ0M/5VdHkHBcheaePAhO7OATrzhRbInnqU3vzhFZ09F0vw+rmQtklDgqgx2vIySVwWR0qE7Td1wlOISztBXK4aSp007mnb0PjsuIEt+Eh0IHU4ektY0dEkEHUi8T2XJqyhI6UDdp26go3EJdOarFTTU04baTTtKmhbrrpuGjsE0d/eGkKu8PY1Zd4zik5Mp7tC/abiHhJTDd9A9UtH1dX1J4TGdnZlPSQdCtcdaD11CEQcS6f7dvRTiKqf2Y9bRsfhkSo47RP8e7kES5XDacU/XvjH5SQcoVHNO66G0JOIAJd5voO7ZuH98uyvZdphIEScSKOXnY/ThcDeStnqVtKo08INCip3flWzsn6Qp64/Qmbho2jYnkJylHjT5wG02WmGfM8XdiGCSSeX0xJNT6NPjZ+j0roXU11VCbv84YKDD74v1F1AJ/fdfXqQIXKXbLEumVUFKcug+lTYcjaOEM1/RiqGeZNNuGmlVUHCC3vCS0RPPvklfnDpLpyLnUx9XaxJJAmlVRrnw9fUZl+oWbegvJbGNL03dEUuxUXsp5naJoI8VnJxN3jJH6jFrO508e5I+Y/ptaSsnqXaswroQihvVrQ3UXyomG9+ptCM2lqL2xlD6xmCSu0zUXm/quCYX1UBIZ6rrtK6vgjymf68734iafqyiWxv6k1RsQ75Td1BsbBTtjUmnvSGuJG8/htYdi6fkZKb3f2vyhJKGawNEf43Iihz8p9Pm6LMUo/GdZhLyePUw5bIzzMenfrzy5jTlCPPvwlia39WG7Jkfrj9yhuKit9GcQGeSekymAyaVoOFR5BULfF4bl3Jq4vkcLdxxiuJZ7ggNbkGS5pNI65L1yC3C8W0KTWzISKJwp4FL99OZhBjaMMqdJHZO5PbUP2lT9I8Ut38ePaOUU8/303VXmLWJQD4yRUkCLQ9oQvZ+r9LG4/F0/kQETe5qS8qB4fRraZUfVqnyv/QvL4XePsI+UnDiDfKSPUHPvvkFnTp7iiLn9yFXaxFJ9LYQjKnr66ivwoOma4xpFBeNrguNX8ikJH+C2fDT43Tm9C5a2NeVJG7/oANau981H1Mm89ZtgTg0QdmP9DazQYeJEXQiIYV+PvYhDXeTUqtXj7KIscC/jTCZl0oEcpCQLoRixJQu0ncLxFUJJSwPoCb2fvTqxuMUf/4ERUxmNlQOpPBfy7VzXYVfCOYboRh/DPzBRXI+Rb3iRIqeKymNzdM6VJS9bQgpbfrR+msqerg/hByb9qLQnx/oElR5Jn23KZwOptSmId1kXlUky0gatIauVmS3klM0q62cngq9qNmgU7PaksznHTpfojusSfjfh46lKZ+c0xtIXxzl76dxzgoK+jCDKkRV3dhEL9hJdYmmOJpec5dTj5Xplcc1/UeOdCS7IdvptqAsLKaSllJ3hQ+9+7NGV8UU/Zo7yXuspPSqBulu5EhytBtC228z3dZVNw0egylUlHNuF63dfrpaIVFCMbPbk/ypULpYXr1IZpQl0dLuCvJ592eW/tjVOedo19rtdLraBFwSM5vay5+i0IvVBm5AGSUt7U4Kn3dJp6qG6v4h7Q9xpKa9QunnB7oTyjO/o03hB0mrSgM/iKJXnBTUc2VaVV+qbNo2REk2/dbTNZWwnU2hLZJlT1NYaqVlKHvLYFLavURbc8oEE2px9GvkLu9BKw2dhUY62tEQ5iz5+8eRsyKIPtQUxFpUdGPTC2Qn1RXJQtdr9FnncWkTrIzk/cPpRsU1grYqoK/GO5Oc5YRKUVTX6NOBTS0skoXjRjvZyOTUP/yGLm40x6slblPHTSGoM4EiuYYfs940Ba9M3p/CKxSmyqFzu9bS9tPVCrSSGJrdXqf38sprnqV/X6pUmM62bNL64p5QfOrHqy+S86NeISdFT1pZlZCZe2+jIUob6rf+mml9PKK8YlGRzAqAoDVXK+UqOTWL2upzR71yi2B86/cZoI8NJldFeBUfn0ZuEneadlzzxprB2vjkOTk1n3JYsyFgE4F8ZALtuGU+9E7VREYF34fS2Cmf0LkioSJZSJ582j/OmRRBH1aOjxmYNr1gp49JtikUU7UWyY2vC51fyOjpsNQqf8zeQoOVdvTS1hxSCcWUqbwlGIcmeLifQhybUq/Qn0knejllfreJwg+msMqnnkWykY4Fc5CALsqEYsSELgTjSjsvyMjnnfNsRHoKvqfQsVPok3PFBn4hmG8EYvxx8Mc+blH+K5LTC9G6Zy+0sdLvgxguQYHopLqEpItlkPedgPFuP2GRfwu08h2A8Qu+Rn7AKAzq3ER/vhAiKNu0g2vFSMVKKJuKUF5aCqhzkXrxBuy7BaCzVH8ctuj3TiS2zAjQb+soz0xBWn5L+Pm3RoWoYpdn0KO9tfZvVXYikm+WI33jCPh26YIu2ldvLI0twsPLqcjQfqRiRhZjVNlITL6J8vSNGOFb0V4X9F4ai6KHl5HKGqyrbhpnDMYwewWMxnj/POxfOR/TJ4xAf/9OGBqeAZVaDXX1j1xNIHYJwOjx/sjbvxLzp0/AiP7+6DQ0HBkqdq3QxXoarns5+k4YD7efFsG/RSv4DhiPBV/nI2DUIBirsvzXZKQXtkbPXm0qdcgGgaDATlBdSgJzWUYd7FwNK88g9GlXaRm49AhAu9J0pFwWWpGlQnZiMm6Wp2PjCF/9+Nmr91LEFj3E5dR0/JKShvyWfvBvXa39Z3pAZ3qh6zP0H9PWZ1wiOLi7w1F/jaCtHl5DavrvcO32NDwqRW2JoGc7QOelAlgQN1pEDnB3d2RaqAWh4xbrrO6IHNzhXqEw5lsBo8fDP28/Vs6fjgkj+sO/01CEZ6hYfKgrH5excu+BwCqFweXpp9C2OA3JzHcsj89y/JqcjsLWPdGrKiEzEYIQ2EmFS0kXoXVvIx5NXrEQkRJt2rlW2kmsVKKpqBylpVSv3GJZfJtCBLu2Xmipv0hk0wQK6+Zwby3R7RDbwEYhgqpc8yGxUM60PB/pUCM39SJu2HdDQNVEBtt+7yByywwECD5qLiBPWSZS0vLR0s8fVenDBc/0aG8Yk4IxY4rG1oUeK08E9WlXzR97IKBdKdJTLqPcopgyzFua8VoShwbI+2LCeDf8tMgfLVr5YsD4Bfg6PwCjBnWGpdVLDQx0bGEOMqMLtUUxYqgLobhS56bi4g17dAvojKqyqh/eidyCGQbOaGG+MRPjjwOL5p1HRylLGkwIiaEYIitrJhhTuIopwWEgPj6bgBd278T+I9/hxJZ52Ll2NYZtjEHU5GqJrFZEsLIyOkuk/z8zgSZnWVtJqnbVBjtRxcxkXV1UkRxymf7KkhI2Gjt0D5mLiR0N+xM37YC27LoUs7IYU4IS5uF23UMwd2JHw3GKm6KDpsG66qYRxlATNbKjJqPX+D142CkIQd27ImjSSLx09h3Mv6Q/xQzq7ChM7jUeex52QlBQd3QNmoSRL53FO5ZcXEEj6N5h4Mc4m/ACdu/cjyPfncCWeTuxdvUwbIxh8tnrT9JQqmKhbQ1Dl2Vta5TKkqXGZbXbFtu5CpFcAUX1GYbFgRVLv6xZHUY5QZOQKnaV6JwFIXMnwlAFYjTt0BZ0mDm6WBNXVYjkclSZ3vz1uuvqMy7NNdZVp1lgq+9JxHzUqlrTItjYKAy7qlUXFsSN5kSRFVOvGeGFjjOEdVZrRWUWEdNxZdfqbBbLvTB+z0N0CgpC965BmDTyJZx9Zz4MIkQihaS67zB/1GwS1S0+S3UJ2cBPNLrQubfKWO06Hkle0VOrnfVo7FSLS9Yrt1gU36YQQSLRF8SViDTimUDYJmbzUbWCooIy3UQGiRmXNRRdU4BW7BGSpxwqbfowMDDkclmlrrVYEDM1aXxdaGH+pzBMphr1gDTJ1KKYMspblsahAQ4Y+PFZJLywGzv3H8F3J7Zg3s61WD1sI2KiJkFbLgr5tzFGOhbOQSlmdWFZjBjqQvCaMuYvrGcrc86ox6J8YybGHwfVNff4sXaHp5s1rqekoGI9g4aipGT8glbw8LTCvfjdWLvvFrpNWYaIA2eRcSMJa3oX4GjkEfML1CxB7AQPNzvkZlyq1lY50ra8hrFLDuu3dVi7t4en7CYupuaysNZTcgmXr+nu8lk194SbTSGK7HsiZPx4jNe+xmKgX1t4+7SrekdqDlE101s1Z7qxQWGRPXqGVLQ3HmMH+qGttw/aOaLOunkkY1BfR9SGPbjbby3iz/8HuzevxuKZg9Gs7HdNGq7qpxI2cej/YhfjetQG7LnbD2vjz+M/uzdj9eKZGNysDL+zCyuLQxMYqqqBulffQ/zutdh3qxumLIvAgbMZuJG0Br0LjiLyyC39STqs3Vlf1teRknK/2tiKkJT8C9DKA57G82QdUGWlI71Av8EoYHHxq1UbeLdnCYdlCSotwcPKDFqKW7fu6mWwQnNPN9gUFsG+Z4h+/Ow1diD82nrDp50LPNt7QnbzIlJzq6QuuXQZOtMLXV/Xu0O1I2grSWt4t7PBzYupuFspajHSL/3KEq8Os7oQjJtGG0mj6Ky6H5tCfT0KG/bcRb+18Tj/n93YvHoxZg5uhjKjAFHduIxfqvlOfnIyMq094eV5qw7xaQ13Nibr6ylIMUzI0Lm3J0y596PKjeZ9Xoj65ZZHGd+VCOXMOuQjHWI4ebjBLjcDl6ol/vK0LXht7BIcvqkpcgilJQ+rCrDSW7hVEWBC8rB5ur2nTBuTVemjBJcuX2OzZQNpdF3oUWUh3TCZIuVXK7Txbg+xhTFVHUvjsDrqe/HYvXYfbnWbgmURB3A24waS1vRGwdFIHGF2aph/a7AwB9Wqi7a4VecYEY4rsZMH3OxykXGp2uLK8jRseW0slhy+qd+hoX755nHTWDOGeagYuZlpSE1NrXpdTMeNfCcMHjcINtFhmBkRj1wWcUVXvsL8JVEo7DEGL3tLILpyACtmzsLyo1nalZPlv9/Ab/dK4ejmBvsGS2+DvmOGwTVuPRZ+nop8ZuH81M+xdMVn+Cm/+u1DhsOL7J2jA068/wa2XciDqvgavnl3KfZW/EiKfTDGDXfG+Y9mIOz7G0xWFe7ErcGk5/tgWGgsCnVnmUUklUFKBXjwQJN67BE8bjicz3+EGWHf4wYbvOpOHNZMeh59hoUitlBcd908kjFo7rqIUHonE5kPWDuqe/hp6yws++YBy6MlNVevi6SQSQkFDx5oE6zmUwRR6R1kZj5gAaXCvZ+2Ytayb/CA9V5S4+IKRJDKpKCCB9CpqoG6F4tw5cAKzJy1HEeztJrE7zd+w71SR7i5GfmB02CMG2SD6LCZiIjPZWcW4cpX87EkqhA9xrwM71pubFgC3T+MsPlRuFykQuGlPXhr2UGIgsdjWDNrKN3d4XD3JPYeytRoBlnHlmPNt3mVk5598DgMdz6Pj2aE4XudsyBuzSQ832cYQmMLmenZu32HE3j/jW24kKdC8bVv8O7SvagyvfnrGw1BWzVF8MRRcIn9N97YnIAHKjbWo0uxdE82O1ODWEAXQnGjPalRaLjOjPzYFJq7LKJS3MnMhC68fsLWWcugC6+qAKEHR7Dy7QPILFaj4GIk/rXsMCQvjseQJ6R1ik+nweMwyCYaYTMjEK9LyPhq/hJEFfbAmJe92bRsgkeSV4TsLEy9cssjjO8qBHJmXfKRHpu+YzDMNQ7rF36O1HxWXOan4vOlK/DZT/mwd3KEu7sD7p7ci0OZrL2SLBxbvgbf5lVoUiiHO+DFSSPhcOJ9vLHtAvJUxbj2zbtYuvdmHQq62mh8XWih+zgcNh9Rl4ugKryEPW8tw0FRMMYPawaxhTFlQD2uEYuu4MCKmZi1/Ch0ov+OG7/dQ6mjG9zshXO6JViUg8zoQlqPGBGMK5u+GDPMFXHrF+Lz1HxWOOcj9fOlWPHZT8i3d9A1oqde+caI8kvfImLTPpyvdgOoUdE/m/zI0C7cE2vtbvgSKemVqELtg+HRS54nN4WIrOQ2JLOWU8ug2bT/qn6hX1kG7ZziQ0r2Vlje1I4UEgk5B8ykfZm1PbStWURRfeGegppPOUL65ROsvURa7Kcgv8WJum1VLsWuHEQeCiuS2ihIIlaQx6AP6IeKlaGV32rATr17ipYNaEVysYSkTA6nHhNpeBebyhXCqrsxFDa4DdmKxSSVy8haJKdW/RdTdI7mkXMLZHl4kmZ7ychK1pS6vhWjaZBiwgZTG1sxiaVyphsRyVv1p8XRObqH2Ousm4aOwRQquhe9kJ52tGYy2lITuZQcfcdS2IJgUiqH0vZqi850PKSTs71IZiWjpl3folM3o2nh045kLZaSbRM5SR19aWzYAgpWKmnodv04TfDw5GzyklmRrGlXeiumpMG6L8vYSVN8lGRlJaemdswPJM4UMHMfaVVp7Ae3omnJ826kEDG927C+5C0paPZ+0rmsBXY2gXYxg8PT9GJQc2YXKfNDGbXss4COZOs1UJJCG0e0IYXYmvUpJxuPwbRo+rNkW7nIQ0V3Y8JocBtbEjNdymXWJJK3ov6Lo0lnOnb81DIa0EpOYk37EifqMXE4dbHRf7uF4PX1GJd20YeCWk09VrVgiCHsY/fpzKrB5CEXk0TKZHV6igb3aknyirEK6UIgbrQLYBStaOqxKqlqLNwzOm4aAZ0JLtwz9uOH2kV4ilZTqbJr1T2KXvg0OVozXdk2IbnUkXzHhtGCYCUph25n/egW7tm0H0IT+zYnmVzOfEdCrkFv07GbWiEE4lOlG2/Ft1uw829FL6Hn3RQkYrFgw8YkbxlEs/df1S60rY3GzysMITtr4lJRIbeOssTF5Kfwo8WJZUx19cst5uPbFDVjo+SHt8hb0ZPe/6UiFz+gbYMV+nlJ2CZm85FJVJQbu5IGeSjISmrD5gIxy7mD6APtRKZR5UYa0UZBYja/2rB51mPwIpr+rG3lwj0heTQxdWrZAGqljUkJi8keNHF4F7LR20Iwpsws3Gt0XWjztQM9/WIQNWeySpkuZC370IIj2TqbC8VUmYm8JRiH+vMMKKOMnVPIR2nFapumZKdgenMOoJn7MnWL6ARzuiGm85JADhLQhWCMmMjhlsSVKjeWVg7yIIWVlGzYuMXM9oM++EH77ULV/UIjv9l8IxDjGvI/G0IySXdammQuQ9UfkeYfVrT+4ZTnZiDxYg7g2gE+7ZyqHvjWokbBjVQkX3kAsbMXfDs2g1x/pLEoz72CxNRsqFw6wM/b2aj/6hQjJ+0CMgqd0blbGyhr3LFVIS8zCSlZBZC17Ayfto5m2qqJOj8TCRd+g7qlD57y1L1TVuVlIiklCwWylujs0xaOBg3WRzeNPwZ1/jVcuHANxcp28O3SAjb6/SZh7ywzEy7gN3VL+HT3hD3yce3CBVwrVqKdbxe0MHtxBWrkZybgwm9qtPTpDk/trfOG6V7zS1A3UpNx5YEYzl6+6NjMnCbLkZuRCJ3L+qCdU516qsG9zS+g9ZKW2JfxMbpcSsJNWRv4dnI1smUp7lxKwKX7TdHerxOamVqQo8pDZlIKsgpkaNnZB20NnYWZPgdpFzJQ6NwZ3dooa36UJHR9oyFsq9Lb6Uj4pQAuXbog+z1fDDj3Kor+O7fiqKAuzMdNI9IgnZnyY2PYOdcu4MK1Yijb+aJLbQHC/PdaQiJuSNrgSR/DGDQXn+qb4Xi+zUp4fnUFm1/QK7I8FxmJF5EDV3TwaQfL3PtR5EYLfN4cLNfUPbdoaNz4NoVgzqxTPtLD7HYlMRXZKhd08POGc3WxS+/gUsIl3G/aHn6dmumeia2GJTm8OCcNFzIK4dy5G9rUNHC9aVRd3NuMF1ovQct9Gfi4yyUk3ZShjW8nuBpcYmFMGVCfazSi30Bq8hU8EDvDy7cjDEVvoH9XUFsOskQX9YkRi65hMXQlEanZKrh08IO3gTMaUa9883j40xTJHM7/MpVF8q9b8KIFc+H/FqX44c2uRkUyp7EoiZuPbn2+weDTifjg6T/R7MTh1IfKwvBXbPlfT6ZcFw2m8d4KcjiceiMSiWElFgku5PpfRSS20uqH05iU4NQb3nAI+hDXff4PI57kBTLnbwBLomIrMfsfzxdcFw2H30nmcDic/1GKbqXj0g0RWnbxhkt9P+rlcDicvym8SOZwOBwOh8PhcIzgj1twOBwOh8PhcDhG8CKZw+FwOBwOh8MxghfJHA6Hw+FwOByOEY+xSFbjzomP8eacRdiZUqrfZwbVVRwMm4u1J+/pdzw6VFcPYMWb87D+1B0m5V+LvNhwzH1vn37rcaLC1YNhmLv2pH77EZIXi/C572Hf5YofJi5BVnIa7jWSsUqykpHWWI2ZpQhnN83Fol2p+u0qVNcOYeWbzN9P3H5kPqi6ehBhc9fi5GMZK+ePpOjsJsxdtEu/9Xipa9+qrCNYNm4ggp7th8lb0lDbjw8+GlS4dmgl3mRxceJ2w+Pi8eXjxs2Bj5Ua+byOPIbaQH37BNavOoir9RTRYhqqi0ZDhawjyzBuYBCe7TcZW9IaGoV/Yf804vEVyeos7F6xCBsjPsLCj4+j2i+Jm0aVjZjPwxF1/oF+x6OiCLEfzcOqU1bw6+78F7u1rkZB4n6Eb38MhWoNVMiO+RzhUef1248OdUEi9odvx8nrmsBlxfmnw+A/YReyGiEAVVc/xTD/CdjVGI0JUoqsH7/Fdxdy9NsVFOPM2nkIiyb4dHN5ZD6oyo7B5+FROP+Ar9X9u1Oa9SO+/e6CfuvxUre+i3B40WSs+K81nhk+DAO6uj7eHFx8BmvnhSGafNDNpaE9P6583Lg58HFjmM/rwaOuDdS3sP/N6fhK7AW3RvkZ8tppsC4ai6LDWDR5Bf5r/QyGDxuArq4NiYW/tn8a89jykerSl9h5zgP/eGMACg9sxdeN8K69UVD9hjtOY7Epchmebarfx/kTQyi4fQcFjeQ+VHAbdxqrMUGUGL01Bec+6Kff1qO6jtsOo7ExMhR9lfp9HE4DUI7eipRzH+i3Hi916ludj+zsfDR/YQ6WvTkLrzzt8FiLZNX123AYvRGRoX1ZdP5VaNwcyDGk8NQKLDrbG/OndcQjrpH/NKjzs5Gd3xwvzFmGN2e9gqcdGhKFfy//fEz5qBwJO7/EBbcXMHZOCAZaHcf2XZns/UY1ilKwY9Zz8HKUQ2rfFv0XHsft6je81Dk4tSoEAa3tILWWw7nDQH8ywk0AAJCdSURBVMz5Mg3F+sN5X7+OXuPex/alw9D5CdaGbSv0fO1LpKVE4rVe7mgqlcLBaxBWxNzXXaC+jdMfTkTvTr0wKfQ9jPNrDq9+MxCZVqI7jjyc+2QiAts7w5Zda+/mj1Gh0bhVH8NbJPtq7Hx/FJ50tYFE5gjv4AU4lFX3j2BKrx7C4uF+aNFEAmuFCzoGz8Gui0X6ow0ZUxFSdszCc16OkEvt0bb/Qhw3NBByTq1CSEBr2EmtIXfugIFzmP4rBmkWNW6f/hATe3vDxVYCK6YjJ69+mBGZhgpr6FAjO3IaJmxOR0nGdowLnIhtmSpmytP4cGJveLvYQmLF+nbyQr8Zkag0ZS2osyMxbcJmpJdkYPu4QEzclqnZa3YcwrYyp+M8fP36MxiwNEZ7pubO8tVDizHcPwgT31uBV5/zQ/CcXagwV0P9oihlB2Y95wVHOZOjbX8sPH6bpa8q1DmnsCokAK3tpLCWO6PDwDn4stJgAr4i4NOV8eXtAluJFWvfySi+zFOedRTLRwfAXSmDROGMzi+9i8P6cQv5+Nev98K41Tvx/qgn4WojgczRG8ELDqFSbaVXcWjxcPi1aAKJtQIuHYMxZ9dF5uEVlCPr6HKMDnCHUiaBwrkzXnr3cOX1ZvWWuw/Te4Vg4aKR6OhoC0e/eThZ1EBd1kLeuU8wMbA9nG2lLGe6wX9UKKL1jWp855kBS7V/184jkqt633lf4/Ve47B65/sY9aQrbCQyOHoHY8GhLKjKL2DNyy9iVXwpcr6eiWd6vo6v84Tsm4t903shZOEijOzoCFtHP8z7Zre2j/e3L8Wwzk+w/GSLVj1fYzZJQeRrveDelOnHwQuDVsTgfsXY9D7gHzQR7614Fc/5GftALTTQrysw60PmdFZLDqyvrXL3TUevkIVYNLIjHG0d4TfvpAVtsbngi5nop50LmjBdv4rw1dPw7Kh17BjL5XumIXDIB2Bm1VOOpI9GIHDKF/rt6liQ+4VqA4F4NjnG2lBn48s1u2A18h/o10S3q/Y4s2ys5vOsEWZ1b0Fuqw0zflt+YQ1efnEVG0MOvp75DHq+/jXrSXg+N52jy+oxR5uI6ZO1R2J95/t6o/me5EdO8Wl6o52cnlycQGWUT4entCTZk4spoUx/nAroxBteJHviWXrzi1N09lQkze/jStYiCQWuymDHyyh5VRApHbrT1A1HKS7hDH21Yih52rSjaUfva1u4GxFMMomC3Acupf1nEihmwyhyl9iRk9tT9M9N0fRj3H6a94yS5D3f152/N4Rc5e1pzLpjFJ+cTHGH/k3DPSSkHL6D7rHjZT++TV1tO9DEiBOUkPIzHftwOLlJW9GrRwu011uOZbLL5U3I87mFtONUPJMllIJbSKj5pIPa47Wjouvr+pLCY7puszCW5ne1Ifsnp9D6I2coLnobzQl0JqnHZDpwW9WgMRWceIO8ZE/Qs29+QafOnqLI+X3I1VpEksBV2uNlyasoSOlA3aduoKNxCXTmqxU01NOG2k07SrpRmuHuXgpxlVP7MevoWHwyJccdon8P9yCJcjjtYMZQXV9HfRUeNP37YspPOkChmmOth9KSiAOUeP8u7Q1xJXn7MbTuWDwlJ8fRoX8PJw+JkoZrLjZHfhIdCNWc25qGLomgA4n3BcchZCvzOr5LEcFycpmoO7cwdj51tbGnJ6espyNn4ih62xwKdJaSx+QDxMzVAL9gFJygN7xk9MSzb9IXp87Sqcj51MfVmkSSQFqVUa4xGK0KUpJD96m04WgcJZz5ilYM9SSbdtNI45bmx2GBTwvEl1lKEmh5QBOy93uVNh6Pp/MnImhyV1tSDgynX3837+MVOpY38aTnFu6gU/HMH0KDqYWkOU06mM+OF1Ls/K5kY/8kTVl/hM7ERdO2OYHkLPWgyQdus4jSdL+cAprYk9+rG+l4/Hk6ETGZ6UJJA8N/FdSb6tYG6i8Vk43vVNoRG0tRe2MoO65hujRJ2Y/0NtNJh4kRdCIhhX4+9iENd5NSq1ePsmyq9x2Xibpza6GhNq4Ng77vRlCwXE5NPJ+jhTtOUTyL7dDgFiRpPokO5t2is7s/ogmdpeTcfz59uvVbSssVsK/qFm3oLyWxjS9N3RFLsVF7KSZ9IwXLJKRwH0hL95+hhJgNNMpdQnZObvTUPzdR9I9xtH/eM6SU96T305nvW+ADtWHer43ycW0I+JBZnTEXrpkD62srFd3a0J+kYhvynbqDYmOjaG9MtmBb+dGv6+eCz+lkXAztWRxMrZnPW3ecp22zQgcsXespof/+y4sU+rmiej4Xyv3CtYGQLU2N8bamYZOorofTgKaeNOOEXnizcSY8VsF8UV0XgjEnlNtqx5zf3rl1lnZ/NIE6S52p//xPaeu3aVQgNJ+bydHJCXWco03FtDaXm6IB8309eSxFcsHhKdRK0ZNWpmkSFNHDk69TW2kbmvF9oXab8vfTOGcFBX2YQbozmN5ubKIX7KS6QCiOptfc5dRjZXrlcY2yIkc6kt2Q7aRxeU1ilkn1BYCG4uM0zU1C7tOO00PtDhVlf/IcyZtP0f6dc24Xrd1+WluM6CihmNntSf5UKF1kTTzcH0KOTXtR6M8P2NmM8kz6blM4HUwx74w1sFj2IFpztUKYEjo1q61WFvMYJuX8qFfIqZqeNaiyt9EQpQ31W3+NCus9pnzaP86ZFEEfUoV6mYFo0wt2JNUmg2KKfs2d5D1WknYO0nM3ciQ52g2h7bXnJC2qnHO0a+12Ol0tMEpiZlN7+VMUyoxhnEiSlnYnhc+79LPmTZYqh87tWkvbT1eb3EpiaHZ7OT0VerGazk1TlrSUuit86F1tY8LjELKVeb+pXiTnU9QrTqTouZKqzMV8dNsQUtr0o/XXVA3wC01IjSNnRRB9WGUwurHpBbLTx0hx9GvkLu9BKw0HSiMd7WgIG6jZcQj6tHB8maPk1CxqK/Ohd86X6PewHPJ9KI2d8gmd3GXex5nWmI5lJA1aQ1VqO0Wz2ur8gQUJveKkoJ4r06pkV2XTtiFKsum3nq6pdDqW+bxDVd0X0PehY2nKJ+cE9aYtkmVy6h9+Q6c3RsN0WQsP91OIY1PqFfozPdA1SpnfbaLwgynMs1gL1QvVWngkcjEM+tYUfDIpBa25WqkPrX31sa3R/SfPKchz5gkWfcI5TKWdUGUk7x9ONyoa1PehmSt0VxXT8WluJHGfRsd1yZ+18Qk9J29OUw6zHYI+oN9XAyG/tqxIFvIhQZ0Z58B620pXQMrk/Sm8QpmCbd2nL0c5UtMB4dX0dI/2vOJCknoUyUK5X7A2ELSliTGaoXD/WHKyeYE239XvMBtnwmMVzBfV5zZB3QvktloRzsfa+FB40kztmwPhedBcjj5XXMc52lRM10YD5/v68Bget7iPI5GHkNO8JXDmC2zfvh1fZtjC0y4LUVuOsKNAeWYK0vJbws+/deUzQGKXZ9CjvbX2b1V2IpJvliN94wj4dumCLtpXbyyNLcLDy6nI0H/UIbJrC6+W+hZENmiisEZz99aQaHeIYWOjgEileUBeDJeA0Rjvn4f9K+dj+oQR6O/fCUPDM6BSq6EmQN53Asa7/YRF/i3QyncAxi/4GvkBozCos/4zGAuxWHZlG7SrfFheDKWyKUTlFnwLSCXl+DU5HYWte6JXm6onqcQuQQjspMKlpIuwqu+YyjORkpaPln7+aF1lIDzToz20FlJlIzH5JsrTN2KEb8UYu6D30lgUPbyM1IpB1oLYJQCjx/sjb/9KzJ8+ASP6+6PT0HBkqJgtNMYwB5MjYPR4+Oftx8r50zFhRH/4dxqK8AwVu1Zt8HiBIBaOw5ytLPab8l+RnF6I1j17ocpczC+DAtFJdQlJF8u0e+rnF+XITElDfks/+FcZDC7P9IAupFTITkzGzfJ0bBzhWznOLr2XIrboIS6nZkBsZhzCPi0cX7WjRm7qRdyw74aAzlL9PsC23zuI3PL/4Jhu3sf1WoOyTTtUqU0JZVMRyktLmdqTkV7YGj17tal63pD5UFBgJ6guJeFiSS5SL96AfbcAVHVvi37vRGLLjO6CetNaRuQAd3dHpnEd5nzC0vxQA3lfTBjvhp8W+aNFK18MGL8AX+cHYNSgzrA0Qz0SuUwhUqJNu6oFeWKlEk1F5SgtNXYE4RxWYV8Hd3c4VjSoQWSHtl4t9TYVwaaJAtbN3dFal/whtrGBQqRCuUoTegI+oOvEBA3x6wqEY0/nQ5bqzPI5pjZEDu5w1ytTsK2iX5CUVgT3pwLQolL/SvTs0Vk/z9YNodwvVBtYasvqY6wdNe5mXUeBnStcbfW7GhRnFtpaj2V2rD231U4d/VZwHiw2k6NnIMD45+0tmqNNxLQpGnO+txCdpz1C1Le+RuSxPNg/cRm71/2i3wtQkybIPbINe38biSksc6mYIa2rSyOSQy4T6f4uKWHOZIfuIXMxsWNV8tQgbtoBbfXXiSSSGoEqEhmer0ON7KjJ6DV+Dx52CkJQ964ImjQSL519B/Mv6U9xGIiPzybghd07sf/IdzixZR52rl2NYRtjEDW5WkAKYansVlZGberHXgdKNW8ArCWGRmXj1+hVrVaBHAbVc0zlULHJRWxoIMjlMr2UJShhMWrXPQRzJxotdhA3RYeKQdaCOjsKk3uNx56HnRAU1B1dgyZh5Etn8U6lMcygzmay98L4PQ/RKSgI3bsGYdLIl3D2nfmw4GojLBhHioCtzPqNvf4kDaXQmctQNyIra2Y/lrhU+tRRT78o1xnMwBdEcjmqQko7UITMnQhDtxSjaYe2sHZwqXUcu58R8mkL4ssMZZpKxtoKEhNDFfRx3Q5YMb0ZUNFWKSuU2NWGamfn6xqAisq0hZS1lcSkpgX1hkStPFbW1a424xPCutRv1MABAz8+i4QXdmPn/iP47sQWzNu5FquHbUQM0311T6uVRyKXCTT6qMUcxlhuX2vDNkQs99dM/qZzmqAP6HfVoGF+XYGwD2mTjMU6s3SOqQ1Njql0VwvbIk1xpfvTNEY61BS8ptQqmPuFagMLbWkwxlohlJWVM1eSVuZJ83E2Cdp60MxYhW1d7duhLNB9itb3LXWMCurqt8LzYFl87Tm6BhbN0SZi2hSNOt9bhlDd3kBUyNobiRPqAVgZk4DExMTK18/RixBYdhLbd6RD5N4enrKbuJiaWxV4JZdw+Zrmri9g1dwTbjaFKLLviZDx4zFe+xqLgX5t4e3TTvjdhzHq64jasAd3+61F/Pn/YPfm1Vg8czCalf2uKU+0/92L3421+26h25RliDhwFhk3krCmdwGORh6pWthiAY0ue61Yw93TDdbXU5BSuTqFUZSEZPbepJWHO36v75is3dHeU4abF1ORW2UgXLp8jSUohlVzeLrZoLDIHj1DKsY4HmMH+qGttw/amR2kGtejNmDP3X5YG38e/9m9GasXz8TgZmX4nfXF8lwN2NxXifp6FDbsuYt+a+Nx/j+7sXn1Yswc3AxltV1sTPXGGjQODXXwG6ZTTzdrXE9JqVpMxChKSsYvaAUPz/rcl6mA+UJ7T8huXkRqlcFYSF2GLqSs0Jz5ik1hEex7hlSOc/zYgfBr6w2fdkrcNzOOO80EfBpC8WUOMZw83GCXm4FL1RRWnrYFr41djksOrc34uKfg3Sxrdya79XWkpNyvJkcRknQNsDzkBA83O+RmXKpmr3KkbXkNY5d8K6C3qrvHVZj3CUFd1uJy6nvx2L12H251m4JlEQdwNuMGktb0RsHRSByxKEE9GrkahlAOE7avJQj6QG2dCM4bliAUe6Z8qCaGaavxbCXYlrQ9unZU4Nr5+Grx8Tvi49P0d/lZG6yIo9ISPKwsHktx69ZdE/oRzv3WArVBvW1pEis4PsH0n38f91kNqEEozsyPtW62fmS1Ql39VnAetDaTo5fg8E11487R1WjMtizlkaS6SlSXsGvXWUieG42hzQy7svIcg7F9Zfh5x3acs32RvRtwwIn338C2C3lQFV/DN+8uxV6mbC32wRg33BnnP5qBsO9vsPJMhTtxazDp+T4YFhqLQt1ZdUDzzlOE0juZyHzA+lDdw09bZ2HZNw9YAJagmKlFdOUAVsycheVHs1h/zAF+v4Hf7pXC0c0N9mwoxRcPIyLiayTm6VqslUaXvXacBo/DIJtohM2MQHwuSyJFV/DV/CWIKuyBMS93hLXAmGrHAS+yd54OJ97HG9suIE9VjGvfvIule2/qA8weweOGw/n8R5gR9j1usMZVd+KwZtLz6DMsFLECg9TcTRWV3kFm5gPWngr3ftqKWcu+wQMmZUm11bQ6RJDKpKCCB3igyZOau06iUtzJzITOlD9h66xl0JmyxsU1EEllkFIBHmgba9g4NOEk5DdVOGHwuEGwiQ7DzIh46Mz1FeYviUJhjzF42dvobkEdcXhxEkY6nMD7b2zDhTwViq99g3eX7kVVSI3DcOfz+GhGGL7XDRRxaybh+T7DEBr70Pw4HIR8Wii+zGPTdwyGucZh/cLPkZrPknh+Kj5fugKf/ZSPVi+PN+Pj3mxaEsBpMMYNskF02ExExOey8rcIV76ajyVRhegx5mV4W9mg75hhcI1bj4WfpyKfJd781M+xdMVn+CnfXkBvphxEwCcEdWkasegKDqyYiVnLjyJL1yhu/HYPpY5ucDMfzHoejVwNxXwOs8C+liDoA/rzatAwv66g7j5kjFEObMw5RrAtJQZPG4cWscswbt5nOHHmNPa+Nx7/2pMD0lZGYijd3eFw9yT2Hspk15cg69hyrPk2z+SdZMHc7yBQG9TblqZp6sOKwJIMXLyiUaxQnFkLjrVOtn5ktUJd/VZ4HjSXo+0drBp1jjagMduyFP2zyY+Esvi3qavkCRq9J1e/x5B7X/4fPWHdkiZ/8zup7p6iZQNakVwsIalEQk49JtLwLjb6FazEjsdQ2OA2ZCsWk1QuI2uRnFr1X0zRObrHtzWLRRTNp9AR/UINKvmB3vJWUM/3f6l8mPvBtsGk0C4oUdG96IX0tKM1iaW21EQuJUffsRS2IJiUyqG0XdNmWQbtnOJDSisrkje1IwWTyTlgJu3L1LV2e+NAkkl60vu/CD8qXmfZqYwSF/uRwm+xfrs2jBeKqOhW9BJ63k1BIis52cisSd4yiGbvv8paZAiMySyqu3Rq2QBqJReTRCohiVMPmji8C9lUrOJlx2PCBlMbWzHTqZxk1iKSt+pPi6Nzqh6wrwXVvWha+LQjWYulZNtETlJHXxobtoCClUoauj2HygwW7hE9PDmbvGRWJGvald46dZOiFz5NjtZMt7ZNSC51JN+xYbQgWEnKodtJr+LaeXiSZnvJyErWlLq+FSM4DkFbmdVx9YV7DNUtil7yPLkpRGQlt2F9yall0Gzaf1VrrQb4hQYV3T21jAa0kpNYIiWJxIl6TBxOXWwqFrey4zFhNLiNLYmZ3uXMV0TyVtR/cbROZwK+Yt6nLYgvs6goN3YlDfJQkJXUhvUtZj4+iD74QbOuWsDHtTpWUPMpR/QLdhllibTYT0F+ixO1m6pb0bTkeTdSiNjYbJjs8pYUNHs/6dXOTsil2JWDyENhRVIbBUnECvIY9AFpuxfQm3bhnqIVTT1WuZKngbqsjTLK2DmFfJRWzHeakp2CxaRzAM3cl6nNdwaL52rjkchl1LdmEZqiOU2pcmJmjsXkp/CjxYlM4UYL9zT6NWtf7SIfBbWaekx/PqNGHyX0w1vepOj5PlWm5wfbaLDChSYe1J0j6AMmEfLrMosW7mnaMRt7QjpjGOTAmJJ62kq3qE3RaipVd1fhtgop+bNp1LuNks2BTahlwDiaNcKLZF3f0R0uSaGNI9qQQsxsZ8Ns6DGYFk1/lmxNLdwTyP2aHgVrA7O2ND3GWik5Q291aEL91mkWAWswH2dCY9X0bzZfGM1t5nUvnNtMI5yPDRfuaS4Rms/N5eg6ztFlJmK6NlT3Gjbf1wOR5h99vfwnoBg5aReQUeiMzt3aQFnjhogKeZlJSMkqgKxlZ/i0dUTVY+N1R51/DRcuXEOxsh18u7SAjX5/FWoU3EhF8pUHEDt7wbdjM8j1RzTfO7hpxD+BTV/j/xndJTdN48pulvJcZCReRA5c0cGnHZwMOjIzJgsozknDhYxCOHfuhjY1DQRVXiaSUrJQIGuJzj5t4WjpINX5uHbhAq4VK9HOtwta1DRGNdTIz0zAhd/UaOnTHZ72QP61C7hwrRjKdr7oYv7iGqjzM5Fw4TeoW/rgKU1jjHqPQ0vddFyem4HEizmAawf4tHNqXL8ozkHahQwUOndGtzZK1AypPGQmpSCrQIaWnX3Q1mCgQuMw79PC8SUA8+MrianIVrmgg583nKs3btbHLaEcuRmJ0KndB+1MNFCeewWJqdlQuXSAn7ezoV3M6s0UDdNlbagLbiA1+QoeiJ3h5dsRzeoSzFoejVwNpsH2tQRhHzBFg/26gjr7UHWMc6AmshvTVrW1pUZOShxu2vvgydYVS9dKcGJmBwxKeQMPT83W7yvFnUsJuHS/Kdr7dUIz48Vc1bEo9wvVBvWzZU1UuPxRfwQeGoK46Dloq78TbT7OLBhrnWz9aGKuPn4rOA/WmqMbd442hLXdaG0J8ycrkv86FJ9dipDtHbB24xi0tqRG5nA4HA7nL005Ehb5o+fOrth2fBNC2spwL34dJgx5G9n//C8S3uuuP+8vTP5/8Jr/W7DdFo/VgXV+18n5m8GL5PqiVkMtFte8M8fhcDgczt8Udc4xvDvmVayJuQ2xQoyyEgW8Xw7F55tnoLul3z/4p0aNe0dmIPjTrth9cHrl3WTO/ya8SOZwOBwOh1MHynE/8yJ+ySmDnUdHdGj2aD/y5nD+KHiRzOFwOBwOh8PhGMGfFuBwOBwOh8PhcIzgRTKHw+FwOBwOh2MEL5I5HA6Hw+FwOBwjeJHM4XA4HA6Hw+EY8TcrkotwdtNcLNmdBt2PSv7vUXR2E+Yu2qXfagglSIpcge3xBfptDofD4XA4nP8d/mZF8kOkHAjH5uir/7NFcmnWj/j2uwv6rYYgQzvPPKyfugSneZ3M4XA4HA7nfwz+uMXfDOXorUg594F+q2HY9PwX3vDcgwVrk/9n33RwOBwOh8P53+SRF8l5X7+OXuPex/alw9D5CTmktq3Q87UvkZYSidd6uaOpVAoHr0FYEXOfna3G7T3TEDjkA8SX6q7XfGl50kcjEDjlC/0225N1FMtHB8BdKYNE4YzOL72Lw1kq/VGA7sfhg5d90UwhhczRGwPe+gqZFYdLr+LQ4uHwa9EEEmsFXDoGY86uiyjSH0beOXwyMRDtnW0hldrDzX8UQqNvMclqor69B9MCh+CDKmFRnvQRRgROwRe/aa7Iw7lPJiKwvTNs2Tjt3fwxKjQatzSH1LexZ1oghnwQj6qhJuGjEYGY8sVvum12zukPJ6K3twtsJVawljvBq98MRKaVaA/n7puOXiELsWhkRzjaOsJv3kmtvp8ZsFR7XPOb8lcPLcZwvxZoIrGGwqUjgufswsWqwdYunwaxK0ZM6IesTWtxLF+/j8PhcDgcDud/gEdeJJffzUD83vewLM4Py7+Jw/ern8HNrdPQa9A6qMZvw4nY3ZjqfAahCyK055fdvoyE5CzkV/7EiRr511ORcClHt1maiPdHjcaHv/ji7X0/IO5oGHpc+xjjp27CVW0hrEbOwQicajsPUWfP4uA7HXFp3XQsOax5ZqAI/108FK+sy0T3t/ci5ofD+OCFAuz8xyC8fvAOu7Ic8av+iQU/tse8vT8g4dxezHb7Ecv/sQj/KdS0bUTZbVxOSEZWlbBQ519HasIl5JQSyuNX4Z8LfkT7eXvxQ8I57J3thh+X/wOLtI2V4fblBCRn5aNqqPm4npqASzm6svne/jkY8+5ZtJi5A6cTLuCHqIXocnUzXn8nCrlM2rI7v+DHPevwzRPv4NB/IvD2S120+k5IytReX/TfxRj6yjpkdn8be2N+wOEPXkDBzn9g0OsHcYcVwubl09G0TzB6FhzGnmj+zAWHw+FwOJz/HR7P4xaibpgR/i5G9HwSvSZPxQvNH6LJi2FYN/U5PPX0MMwO6Q5k/qI/2TylZ7fjswttMHNzOP5ff3907/tPrPt4IQa1ItzRPxMg6fkWtoSNRdCT3RH8+nyMbpOHi6zwRsFRbNiSAd8FX2LTzBfR8+nn8I/VUfgg+AF2r9uD6+py/JZ5A2Ln9vDv5oPOfgPxxkdbsH7hS3Crx+8Slv+WiRtiZ7T37wafzn4Y+MZH2LJ+IV6yqDE1VO6DsfDTLVg3YyD8u3TB0y/NwpxhHii+fg05+jvjIukzmLokBM8++zJG9XLW7dRSgKMbtiDDdwG+3DQTL/Z8Gs/9YzWiPgjGg93rsOc6e0tgiXxNn8STbfMQfya56o43h8PhcDgczt+cx1Iki+zawqullX7DBk0U1mju3hoS7Q4xbGwUEKkseepVjdzUi7hh3w0BnaX6fYBtv3cQuWUGAmSaLRGUbb1Q0R3EdrBrIkJJ8UOU/5qM9MLW6NmrDSoOQ+yCoMBOUF1KwsUyOfpOGA+3nxbBv0Ur+A4YjwVf5yNg1CB0bqI/vw7I+07AeLefsMi/BVr5DsD4BV8jP2AUBlnUmBguAaMx3j8P+1fOx/QJI9DfvxOGhmdApVZDra9jRQ7ucHc0YcbyX5GcXojWPXuhTdVg4RIUiE6qS0i6WGaZfFYt0dIVuHktiz+XzOFwOBwO53+Gx1MkSyT6grgKkaiycquJ0Y1WNasIK3aVlasAaytIRPodNRDBytpa/3d1WAulKlboWUNicFh/Pis8VewUh4Ef42zCt9j41mB4FpzFlnkvI8BvFLb9WvXMsyE1hAVV7HIYiI/PJuDbjW9hsGcBzm6Zh5cD/DBq26+oaM3wak3xW7FHjeyoyfD3/z+8tz8RubI2CJq0DEtGuRkYTWRlBWuTuiiF5n2HteFg2fnWTAOsH91gBeUDs5xcZo3y8jLjkXI4HA6Hw+H8bXk8j1vUAStW9FFpCR5WVmSluHXrLivrNIjh5OEGu9wMXKpcXQaUp23Ba2OX4PDNqn2msHb3hJv1daSk3Ne3p6EIScm/AK084Gl1D/G712LfrW6YsiwCB85m4EbSGvQuOIrII7f051eDyWpFpSipEhalt27hrrZxNe7F78bafbfQbcoyRBw4i4wbSVjTuwBHI4/glppda0UoLXlYVXyW3sIt3cXs8uuI2rAHd/utRfz5/2D35tVYPHMwmpX9rilxq8lfC9bu8HSzxvWUFNyvdnJRUjJ+QSt4eFoJyKe/QJ2H3AflcHByYsU1h8PhcDgczv8Gf7IiWQyluzsc7p7E3kOZKGH/ZR1bjjXf5lUWkjZ9x2CYaxzWL/wcqfmsWMxPxedLV+Czn/Jh7yAwHKfBGDfIBtFhMxERn4tyViBf+Wo+lkQVoseYl+EtEeHKgRWYOWs5jmZpvkGiHL/f+A33Sh3h5mava6MaYqU73B3u4uTeQ8hkp5dkHcPyNd8iTyusGKIrB7Bi5iwsP5rFRsJa+/0GfrtXCkc3N9hbK+Hu7oC7/7+9M4GLqnr//2eA2UBwAEHcWFzAnUjCHZc0LcndUly/Wv3NzLSva6Vo7maWlqZYUrmkIqbmVpILpqKYqCAuoSKJAgouLLLNPP9zZwYYBpg7IJh9f+fda4y7nXOe9Txz556ZI9uxR3cxDs5fgQO6ixnCHW8J8u4lIOEhq1jVafjzu0mY98tDdm4ucvRnlY8jAkb0gXX4IkwMjkJ6ASuQr+/EjKBQZLUbisFeUtPjK1Rlfhzi4i3R1Ls1pEwfVw8EY92Os0gXrdI5HA6Hw+Fw/r08d3eSFT2nIOh1IHRYE6hsVGj2bhx6Du+AoieQbV/Bko1z0ezUe/CuZYsajq3x/pkWmLdhDjor9OeUh0VtvLFyE2Y2PoMP2zrD1sYBTYfvht3bIfh+UlNYwgGDF36JYbQR/RuqYFfTDq6vboR03FeYF1DGc8SKnpiiGyyaqGygavYu4noORwf9YB0GL8SXwwgb+zeEyq4m7FxfxUbpOHw1LwA1oEDPKUF4HaEY1kQFG1UzvBvXE8MLL7ZwwdCZk+F94zP417GDbY26eOUrNUZN7gWb23G4JFqlWqD2GyuxaWZjnPmwLZxtbeDQdDh2272NkO8noaml2Ph0FFw+hhPpbfDqqy6sxRxErp2E95fsQxIvkjkcDofD4fwPIyGG/u/niDzcuxqNqw9s0cSnOWprF+QZUZCO6+cv4Y7aGU19vOBUvI7PDAqQHn8ecSmAS9PWaOxodLEmE0mXYnD9oQWcPL3RrLbp6jvv3lVEX30A2yY+aF5qsBpkJl1CzPWHsHDyhHez2qw8NiDvHq5GX8UD2ybwaV4bpa7OuIULF24hR9UY3i3rwlq/vyIUpMfjvE5YtG7sWPyGQ4up8eXhzCxfDLgxC9E/DYPzc/eWisPhcDgcDqd6eE6LZM5zQfpOjPJbikbbjiOoTYXehXA4HA6Hw+H8q+H3BjnlkIuolV8iYfgqTOMFMofD4XA4nP9j8DvJHA6Hw+FwOByOEfxOMofD4XA4HA6HYwQvkjkcDofD4XA4HCN4kczhcDgcDofD4RjBi2QOh8PhcDgcDscIXiRzOBwOh8PhcDhG8CKZw+FwOBwOh8MxghfJHA6Hw+FwOByOEbxI5nA4HA6Hw+FwjOBFMofD4XA4HA6HYwQvkjkcDofD4XA4HCN4kczhcDgcDofD4RjBi2QOh8PhcDgcDscIXiRzOBwOh8PhcDhG8CKZw+FwOBwOh8MxghfJHA6Hw+FwOByOEbxI5nA4HA6Hw+FwjOBFMofD4XA4HA6HY8QzLJI1uHf4S/x3ymxsjs3T7/s/xqPjWD3tU+y4ptbv+Jejvondi6Zh5ZE0/Q5jsnFq3TTM3nJJu/Xo+GpM+3RHqb//V1Df3I1F01biSJpGv6c6yEVizGU8TReZJ77BtKCtuFyg31FRMk/gm2lB2FrpBp4tuYkxuFytNqli1InYN28Eevl3Qvexq/HTmuIYKrRd9aFB6uGvsGz3TTwvWar6ZTbFIxxfPQ2f7rim3656ni5vVP/4nhuyT2HdtNnYcunfkXfKoirmiNy/j+PHz2Zj1uzFWH/wGjL1+6sc9Q38vPhLHEoxGmtBMk5vXYGgmTMw57Mf8cffufoDDK2NKjs35OLipoUIiao2iSrFsyuSNYnYunA21gZ/gVlfHqo+wz7HaDLPI2x1CI7c/vcGeQnUdxDxw2qEnn2o32FMHhLPHMBvF1LY3xpkng/D6pAjRn//76C+E4EfVofi7EPS76lq1Lj5TX/4jtqCxErnWA2yLu7E1+vDcbOybph7C6cPHMLF1Of/zZ765jfo7zsKWyqvsGdO9t7ZGLvwD1h1GID+Pb2QfbYwhgTVn8aBQxe1f1cHmuQw/HfCTlh4usJSv++fprplNokmE+fDViPkyG39jqrnqfLGMxjfc0NeIs4c+A0XUv69N5medo7IPLUAPX264701vyPmYjhWDH8RPoE/4npVlxSadETMHYGxczfjdJrBWNXx+O6Nl+D/zhocuXINJzZMRnffAHxxQV8oP4nFrtXrEV6pyUWOxh6P8NU7QTj2HBWIz6xIVl/9CZtPu+M/H/RE1q7v8HPqv2fS4lQWFd78Lhanl3bXb3OeDkJm6j1k/tOh4xiI72NPYlEXuX7H8wtlpuLeP66wiqBBxp07yKjzKqbM+y8mDeuBcRuKY8gx8HvEnlyk/bvqycLRhbNxqssMjG/2vJTI1S0z51+D6k18F3saS7s//3mnWlBfxTfTFyO68Uz8Gn0Se3f/jvMnlqDxoamY/lMKyxxVQ+7fh7F8WAf0WfYnsoxq+bw/vsLifTXw7i/RiNj1M36P/h2zGvyBRcv2VsmNT+v2H+IDj22YuTIGz8utxGdUJBcgevNPuOD6KoZPCUQvy0MI2ZIg+nHeo9NfY3THJnCykUFW0xW+QxYgPFlwBQ1St41Hx75LEVX05EYBLn4xEB3H/ajfNuYh9k7tCv8pe/BAv0cg89eZ6N71Q+wRdmpScHRZIPwa2EFmpYBT016Y8tNl5AiHkjbirXa+8PU1erUbjQ0JlXlny2Q49jlGd/GCs40Ulqw/R0/2DnHTZRR+eFG+/OVRgMT98/GmnxtUcimUTi3w+id7kciGp0ndhvEd+2JpscJQcPELDOw4Dj/+rdepyHiQHYuNk16Gp4OCjacResw6hNSiIErHjgmdEThrNgY1c4CNgw+mH7mLn9/vgJ5zI/TnlEfV6+LRz++j87DF+C6oDzzt5ZCrPND5rWCcfSQcNc9/NClHsSzQDw3sZLBSOKFpryn46bLgDTqyYzdi0suecFDIULNRD8w6lMrK2GJMX/+I6aYzRizfjCVDXoCLtRRyBy/0nrlHa6/SaHBn03iMWn8FufEhGNFR53fpOyagc+AszB7UDA42DvCZfoTZ+hg+H90FXs42kFpaQeHoie7vbcJlg0/FQOk4sSAAXvZMn3bu6MR0E52hP6ZJxbHPR6OLlzNspJZs7I7w7P4eNhU2kL4DEzr0xvwTgvLEbFeWX2Rrj5TCRPxVXF+suTubMH7UelzJjUfIiI4YveGGqN3L0qfWl0Ysx+YlQ/CCizWkcgd49Z6JPUUd5+HmnjkY4FMXNaRWUDo3Q+8pWxBXJOYjnP56NDo2cYKNjPmKqy+GLAhHafctwIUVg/HasijkpfyMiR3a4/2fE0vEkDC+Dr3na/8WyLu5B3MG+KBuDSmslM5o1nsKthR1bG6/OjR3fsKKLZYY9J/uqKHdo9P5sMXfIaiPJ+zlcqg8OuOt4LPsiJ68m9gzZwB86taA1EoJ52a9MWVLHApHUJY+S6NBytFlCPRrADsZ81enpug15ScUhoqxzCbj6tHPeL/zCCwJmYv+LWpBIbNB/fbvsuOx2PRuZ7jZMn+390SfhRF4oNWDGTKWQMzW4jxd3jCFeF4T92Wx/ivoU+bkokIe7sXUrv6Yop2MC8nErzO7o+uHe3S27dATcyP0wpnMF+XNRyI5xGSbjEen8fXojmjiZAOZrCZcfYdgQXgy03zZVKmtMyPxxzkJurwzGR1Uul3ypqMxskseDrOCuTB9G1Ih/Qto/sa60QPwZXIvrA55D55W+v16NOlpeCCphyaeNrodiiZo3kiBzHv3kFWkBMKDyKUY7F0bSpkcDl49MXVnYb0n4j8WLhg4qjsS163EwbIEEhDJOVUOPQtyjtEHjRX0wpxoyqcM2juuHslfmEPR+frjZZF/hj5qZUNNRwfT4ehYOnfwcxrgKqP6b+2nTFLT7VXdSOk+gX7P0Z9PufTHh56k7LhMv22MmpK/70f29gNo4339LnpA24c5kyrgW7qrzqeYZf6ksm9D76zZT5HRJ2nnwn7kYd2Yxu9/QPT4Iu35LpiCg/Wvb+ZQX1cp2fjMoGOP9c2JoL69irop3WmCMOj72ynQRUFNhq6ig1ExFBO5hz4b4E5SFRtfGjvZpPxlkxs9n/xq1CSft9bSoaizdDh4LLWyUVGv1TdK9q0n948PyVPZkZbFF4iPh/V6+ANPktfqRP/98SidOrqJZnR1ISuJlDoui2fCJdOaHjKysPamdzYep+Oh2ykiNZWCeyvIefRudn2xzUr+zagGXdwP7k1ymYJqvTCOvjl0ko5tmUXdXKTk+p9dlGaO/+TH0DJ/Fdm3eYfW7I+k6JM7aWE/D7JuPJ4Ed6DMw/SBp5xqdfov/Xj0FB3dNIO6uliRRKrXp9j1dF+rG0UND3p51kY6GhVJexb0prrSOjRmd4ZwQikyLu6iBYJeGvSjoOBddP4B8+k1PUhmYU3e72yk48dDaXvEFdoe6EKKJkNp1cEoiolh7X42gNylKhqgVab+Gokl2ftOoPXhpyhC0E1tKbm/tZfS2Rn3tweSi6IJDV11kKJiYihyz2c0wF1KqgEbme4EU6+hHoo6NG7fE3HblekXanbAGJH4q4S+mMJo1wJB9gbULyiYdp1PE7F7WfpM1fqSQlGDPF6eRRuPRjF9LKDedaVUZ4zg10RZx2dQK+ua9MK4r2jfyUgK3zCFOjrJyH3sLhJEzT/zEYvDpjQ6+DBFx56jg58PIFdZfXprv7H3sv5PbaUvRrUgmVMPmvHNd3TgclKJGBLGp6gzTnd61nGa0cqaajIf/2rfSYoM30BTOjqRzH0s7WIdm9+vAIuJ1T3J1uM9OlykG0HncpIpajHZvqFDJ4/RllndyEXqSv/ZJRg3i47PaEXWNV+gcV/to5OR4bRhSkdykrnT2F2prMWy9WlMfswy8lfZU5t31tD+yGg6uXMh9fOwpsbj97MMbSSzWFzdD6becikp3XrR3LCTFB2xhoa4ScnO0ZVeensdhZ+JpLDpHUilaE9LrrA4FZNRfZtWdVOS+4Tftd2L2VqUp84bRpQYn3heE/Nlsf4r5lP3RXKRESxXfN/PnuxZnimeorfTMGcVBXx7V2dbhTON3s3yjli+MDEflZ9DxHJQPp35qBXZNB1NwYejKfbcQfp8gCvJ6r9FZYpf1bZO/5ZeU9jR4C2G+S6Ttr2hItlL8+mS4M4lqKD+tWRRwuUbrEoTbD2LWip9ab5Bw+q0X+j/edqSR99Pactv4bRzxQhqYVePBn6fQNqztPEnIcvaXWn6pmMUffYALe/XgKS1R9Eu1qhZ/vNgMw2yr00jdpaV18VyTtXzTIrkzL3jqL6yPS2+rFP2kyPvUyNZQ3rv9yztdpk8CaNAB1vqvOAcPdRKXkAJv62j1btjmQHNKHLKIn0bDWUB13dDsk6ZaZtpsGMtGryZhWROOL3rpqB2i6/ojK3lPm0a5EB2fUOoRGpXp9LByd5kV38gbYg3VemXxLBQVaecpi0rQ+iYQWbNjZhMTRQv0YI4NgKT8pdFLh2d1IjkrT+ms7n6XSyAfl8wnMZ9fVq0SBYdT0YYjXBSkv/n8UX6USeto1ftZAZFspwUPVZTUlETusJGrEiuel0IscqKZHlbWlQU4Gq6820Aqexep+9S8kX9Jyf8XXJTtKPF2olUz/1NNMjBjvqGpDJ1jCAnpT99LiQ7LWpKWvcq2cl0+hS7XqcbNjn7r6CbhWLnHqVJjRT00oI4/Q5j8uni3DakbP0JndO6na6AkCt60OpCpatT6PSWlRRyzCBh5EbQ5Ca6dpml9dd0os+uGo2dFbY/pqkp5fQWWhlyzGDSz6WIyU1I8dICEsxhWCSL2q5MvygD0firjL6Yxi7OpTbK1vSJVmFieaMMfTJ0b7j8aUVxx9pYE/TBAoNChzmSsv1i0qc3BvO1DX1JZd2dvrqlZu4bSA62nWnBuYfsCKMggX5bt5p2x5blvezar18mpcdEfbFaMoYMC8aM0GHkaJBXBdR3NlBflTV1/+oWZVWo3ywKG+5I1q+uZz0WotO5vO2i4glYfYe+DVCR3evfUcqjUBrmqKT2iy8X24wd39BXRdbdv6Jb6rL1WZIcCn/XjRTtFlPJUBlEDnZ9KYT5laHMonGlnaR1OUl3Rg4dGu9KUrfxdEiorRjqO1/Ty4L/7hV2iMiYb1iEittajKfPG0ZUokgu35fF9VshXxbNRaVJ3zaUnFV9aUOy7oq0zYPJsdZgEqZorW0Li2SxfFHufGQih4jmoCcUFuhAtp0X0DndRMTE/43Wrd5NZYlf5bbOP09BL8qpdr9v6bq+7Ci49SMNqmNJ0pYfUZRxKVIJ/RtSVpFM9JgurH2DGikkJJEILyuq03sZRabre9DHX6fPiuuE3JNTyUuha8cs/ym4RPN9FeQ19STzTiMyxHKOfl8V8gwet3iAfZv2IKVOPeDkjwgJCcFP8TbwsEtE6Lf7Sjz6UAJFN4wa6Yo/Z/uibn1v9Bw5Ez9n+GFInxb6jwIrgf1rCOxjg2M7fkGKRoPUX7bjd9mrbJ8j1HfOI+ZuAa6sHQjvli3RUvvqgrnHs/Hk2iXEF318lY0LXwZi1PdyfPDTBvynkdHnEWZi4eyHN0f64lHYYsyYMAoDe/iieb/ViFdroNFQxeXXpONSXBJqvuiHFjL9Ptig+8eb8O17fvrt8hEbT0FCLC5n1IOPb4OiBT0Wzh3Qromh/BLYu7nBoYJeVeW60GPp4Y+ujYtGC+d2fmicdwWx18SedlLjzvkY3C24grUDvfW+wF5d5uJ49hNcu3QFf8VeRkY9H/g2MGi/Qzvo1CF2fTx07iSBqmFjuBTqy0IFla0EBXlFzmYWEns3uBUq3cIZfm+OhO+jMCyeMQGjBvaAb/N+WB2vZrrUFH3UZ+nWDh3dDcbe9iU0yrmMGKYbZ783MdL3EcIWz8CEUQPRw7c5+q2Oh5pdL5jDEFHbaRH3C/Pir2r0JUYJfeqRqBqicXHHUKlsISlg/RbcQMyVLDRo3xkNix7jZfr074jm6qu4GJfP3HcURrr+idm+dVHfuydGzvwZGX5D0KdFpTMZowA3Yq4gq0F7dC7umNnDHx2bq3H1YhwsK9Kv5j4Sb2fCzsWFZQ1DLOHh3xXFYeSMdn6NkXclFnF/xeBKVgO079yweJEfO+7fsTnUVy+Cia6lLH0Wob6D8zF3UXBlLQZ6F9q9JbrMPY7sJ9dwqTjxMsyMK4kdGnnW049JAusaSljVcUMDqXYHLKytoZSoUVD0hEH5MpZIFWbY2jQFSKiSvPF0lOvLZvRvURGfMjMXGWL/WiD62BzDjl9S2Dmp+GX775C9yvY56k/QY26+KJ13ys8h4m0q0G3USLj+ORu+devDu+dIzPw5A35D+qC0+NVga6tWmPDp23AKfxftXnwVbw59HW39F+J+QzYny2Uo9aR2JfRvGg2SNo5BrykX0G7lKdzJzEbKnyHom7IAfYZ+g6Iv7ZKoDOKPDcPODjUkuch5QublQst6qOcC3L2VyLRYkoIb5uWcqqRyFV4F0CT/jE0HH6FmrWvYuuov/V6AatRA+r4N2P73IPy/BmUlUHv0+vIUol/dis1h+/Db4W8xffNKLO+/FhGhY3QOYWRlYVI2bfga6Dm8HxwG7sDupFdhuf0YbAN+wis12aG7ucwp7dAmcBpGGy1asbBtCl0trMHfoRMweM519Fh/BEGdhAsrh+ZOKMZ2HoltT5rD378NWvmPwaDXT+HjGVf1Z5iSf6xBki4kX5v0rSylLA2URymFgfS7RMfDGlezILcy9BiJAgq5YW8SWFpamei/bKpeFzokCiWUhq7FxmbJdMDE1mHCf3JzWYqya4PAaaNR0h0sYNu0EWgvU7aFVYkAkigUKFSH2PW66wR9GQ2+ospjSFgbVoXXae4gdGxnjNz2BM39/dGmlT/GDHodpz6egUJtapHKIDXUDTOssEmkwR2m084jt+FJc3/4t2kF/zGD8Pqpj1FkDgPEbSdghl/kisdfbBXpy5TdBUroU4+wr2TPhSewyZVlciupoScI5wu+wd4oqFnL9r3w5alovLp1M8L2/YbD307H5pXL0X9tBLOVQbKvIHm6jksmcQkbO9uh0ahB9n3M75fykV8gYW4hN1KpBAqlUusbhVhasSuZn2jyWKHJei8pOrORbgAQRNfuKUOfxeRCFyqBmDa6WckxWdiiqWD48/pthnhcxbIOpZDqC+IiJGxc+j9LY0JG/bYOM2wtQoG6KvKGCGb4d0ldFBtHtH97Z/N9ytxcZEiNnhjezwEDd+xG0quW2H7MFgE/vYJSM60Z+eK84Iul8o6JHGJGm/a9vsSp6FexdXMY9v12GN9O34yVy/tjbQTLg0YTUdXbmhXZfVbi+KluCNl6HImauhgwLRhOIR3R73pduBhfUBn9m+QhDm47iKxX1mDVO23hIOzyGYEViyKwr/8m7Lw+HjOFNzP6HFQKwQnNyoVSVldYoaAg39iVhaRnVs6pSgzzQjWgRuL2TTis6YnFEdE4f/580etc+Gx0zD+CkI1X2Fml0aRFYevKHUh+cRzmBe/CqfgkXFzRBZn7N2Ffskbr6JSXC/bmRE8ekpPvGyW10ig6D8fAupHY9cMGhP5RC/2Hd9PeObGs4wFX6yxk12yPwJEjMVL7Go5ePo3g1bqx9t3ooz/mYsg7e1Bn1lYED3MzkXTF0OB26Bpsu98dK6PO4tet67F8zkQE1M7HYyaAUMSJyV8KC0e4u9ohPf6qwSKKAlz+9l0MD9rLBGSJkfKQW6ww5CUn4772XPHxWLk1gYf8LuIupRfrOPcqrt0yfq9XUapBF3rUiVdwxWDJbWZsLG5YNoQXeytv2n8sUcfDFdZZ2ajZPlDvC+w1vBd8GnmhdWNneDTxgPxuHC6lF/efe/UadOoQu96h0oHH5nqTaG6HYs22++i+Mgpnf92K9cvnYGJAbeQXKlOPOuka/jLQTUZMDBKsPODpkYzQNdtwv/tKRJ39FVvXL8eciQGonf+Y6ca4aBC3nbmYE3+Vwkhhlc0b5WLlBg9XK9xmvqVbCKYj+2IM/kJ9uHtYIi1qK1buSMaL4+YheNcpxCddxIoumdi/aZ9BrFYUK7gxH7O6HYvYkh0j5i+gvrsbHlekX0sH1GJKznjwwCgfsxx+5YrByvVMxMbegGVDLzRryGxmdZttPzDQXzYu6gYAD+NCtSws6zD9WSMruybaBxbafSSG9/JBI6/WaFzC8NUVV+XLWOKDMlFbiwnMbFbNeePp/FusfxUeVMCnzM1FJVGg8/CBqBu5Cz9sCMUftfpjeLeSn20IVEe+EG0TaYjauhI7kl/EuHnB2HUqHkkXV6BL5n5s2pesb6WQarC1JgkHPv8Y36d0wAcLv8AXi6dhqHcKjv1xF038XoK9/rRCKqd/02izKbu2uIpgkshlkEpYgVpWIVcCjXm5UPMI6Q8LYO/oWOqNgpVbFeScClK5nGIu6qvYsuUUpC+/iX61S3Zl6TGUOb8c5zaG4DR7Q2WMheQ6di2ciEnz9yNRWIlZ8BhJf6chz8EVrjWtoHJzg/39I9i+J0G4F4HEg/Ox4sCj0u88jJH5YfgQD5xcvhwnGgxCYHv9hxQ1e2PEACec/eI9LPo9ibWoxr3IFRjzSlf0X3Acj66ux+ihy5DUNQjz+9kg4dIlXNK+LiPxITNXThz2Bgfj5/Nlr4k2RrgbIcm7h4SEh8zYaqT9+R0mzfuFvVdj0uSIyV+W2azRbWh/uER+hVk/XEIGc+SMSz9g7sLv8WdGTVio3OBmfx9Htu9BAmsvN/Eg5q84gEd6hYmNR3hUZcwgexxe8gE2XHgEdc4t/PLJXGy/W7lgM6TqdaGDHuzFohmhuJatRtbVbZg6bzckvUeif21x/6nZewQGOJ3FF+8twu9JrFP1PUSuGINXuvbHguNZTB1jMMj+MJZ8sAEXHqmRc+sXfDJ3OwrVIXZ95ZBAxhISZT4EyyFlI9xZlOThXkICBLdUp/2J7ybNwy8Pmc21htRBD/dh8Ue7kJCjQWbcJnw4by+kr41E31os4VlJkHcvAQm6BvDnd5MwT9dA8SpvPaJ+Yy4i8VdpjcnkkFEmHmoVZlH5vFEujggY0QfW4YswMTgK6ayb7Os7MSMoFFnthmKwlxSS67uwcOIkzN+fyHoU3DcJf6flwcHVFSbcVxTHgBHoYx2ORRODEaXrGDtnBCE0qx2GDm4Gqwr1a4vWrBDIjY8z+s5VwoO9izAj9Bqy1Vm4um0q5u2WoPfI/qjtFIARfawRvmgigqPS2VvybFzfOQNBoVloN3QwvMy6i1ATvUcMgNPZL/Deot+hC5VIrBjzCrr2XwDjUKmeuDIhYwk9idlaEDgHcXuDEfzz+TK/HaN688bT+7fp/p9UzJfNzEXGyPyGY4jHSSxffgINBgWicIouQXXkC7E2LSS4vmshJk6aj/26iQiPk/5GWp4DXF1Lf6pc5ba2sENB3EZ8Mm0JDt1lzpebhN/nT8Y3tzph7MhWpQrKyuq/fGqi++tdYBW+HDO2xLEag3n7LVZHzN2KlBav4rUmYgFvYZ7/5MchLt4STb1bo1TN61gVOaeC6J9Nrhbyoz6iVtJa9OY2Yc18adJ+eoNqWdWjsb+U9fUQ+RS/eRy1VlmSpcKW7JRSkjr50cQd+lWUubG0dmBDUlpYkcJaQdbuATR7QieyMbVwT09B3CJqK5dSm6ALrJdi1PcjaFFAQ7KxsCCZQk5WEgXV7zGHwlPytYtpZEI2LfWSU8CGh0Spa6kXa7P9kr/0rZWmxMK9tHCa1daBrCxkZFNDQTIHbxq+aCb1VqmoX0gKqcXkLwt1Oh1f3IfclZYks1aS1EJJ7n2W0gntStlcil07kBoqLchKYc105k4BsydQJxv9wj3R8Qj6OUrzetYnhYWUZFIpObYbTQNaWhss3FNS/XcOUvHSwJKLjspduFcNutCu4rZvS6/512FjlTFdyKle15m0747+yX5R/1HT/YhFFNDQhizYuBRyK5Io6lOPOeGUom2CHT86j3rWV5CF0L7UkdqNHkAtrXX6FL9e0I2S6ozbR/r1RNqFGXN8lOQz57x+R2meHJlMnnJLktu2oqkRT7SLmpT136GDhUpXp1H4rLbkYMV82KYGKWQO5D18Ec3srSJVvxDWt24hlHWTvjS6Wx2SKxRMN1Jy8f+IDt7VWpnSwmdRWwcrspDZUA2FjBy8h9Oimb1JpepHIWzwJRbuidmuTL8om/LjTxhX5fTFFEaTPeVkKbelVlMjROyu000JfTIEX1LWGUfCl3noyKfzc3xI6TNHt8lkDA96hVyVEuaf1iS3UlA9/8kUdlOfXfLjafO41qSytCSFrR0pWew4+U2kHQllea/5C/e02+FB9IqrkiSWTBbmY4p6/jQ57KYur1WoX90Cm6Y1utOqotUvur7t275G/nWYj8ukZCGvR11n7qPCMFInh1PQK66klLA+rJnNFPXIf3IY6UQvW5+lUN+niEUB1NDGgvmcgulPQor6PWhOuBD7pWU2GVfCwiGl/ptXtOTSialepGy/hP4qFPvhBgpQFn5LgoiMRt9uIWprSqW1veQkNeyvBE+bN4wwHp9IXhP1ZbH+K+JTorlIf14pCihuUVuSS9tQ0AWDGdpw4R7DZL4odz4ynUNM5yBB/M00rrWKLFm82dqxOVbqRH4Td1DZIVXFtmaoE3fSey+qyIr5nY1CiPeu9N9dt8qeByutfx1lLtwrSKTd//WnunILkiqFGsOK7F8YS9/H6bVcKv5YO7GfUhtlK/pYWFlohv/kR88mb1t/Wq7VUWlM55yqRyL8w4q95xZNZhIuxVzHQwsneHo3Q22F/oAW9i7pajSuPrBFE5/mqF0l3zGuxqOEi4hNzIS8Xgu0buSAonVwJtEgdd1AvI112P3/auv3iaDJwK0LF3ArR4XG3i1R11q/3wDT8pdNQfp1nL90B2rnpvDxciox/rx7VxF99QFsm/igubHCzBiPcKck5fIFxGc5ocWLDaF6ijthJahiXaStfxUNguphR/yXaHn1Iu7KG8K7uQtKXmKG/6gfIeFiLBIz5ajXojUaORh5Q04KLl+IR5ZTC7zYUFX6oxmx6yuMBhkJ0bjwtwb1WreBR5m3Itk5ty7gwq0cqBp7o2XZhhQUilvR55EkbYgXWteF4VmajFu4cOEWclSN4d3S6Njd1Xil4WJ47LyO9a8ypZnlN+ZS2fgrH01GAqIv/A1NvdZ4yUO441MdeUOIu3icj0sBXJqidWNHo3FrkJl0CTHXH8LCyRPezWob+aI5aHB39StouNgDT26v1+9jFKQj/nwcUuCCpq0bw7FExxXoV30NX/ToiD19IxE+pREskcbs2wBB9XYg/suWuHrxLuQNvdHcxbiFAqTHn4dO9NZoXHIAZqN+lICLsYnIlNdDi9aNoAuVcmSusrgyV8aSmLK1JnUdBr4NrPv5/xndiTagWvNGFfi3yf4r4stm5qJKU/X5QrRNljeTLsXg+kMLOHl6o5nYpFzVttaeH4MktTM8W3nCyaR9q0f/ualXcOFqKtT2jdG6eV3YlOfnZWLKf/JwZpYvBtyYheifhsG53HarJueYw3NfJP9ryDmFuYEhaLpyLYaWuRCR8ywpKpJvfIvXRHIYp2LkRs7Ai11/QcCx81jatvqSE8eYXETOeBFdfwlATtxS/b6qJePXd+E71QYbopajo6K4gLzx7WuVKOqrguqWuaplzMGpuYEIaboSa4c2KF0QcTic8knfiVF+S9Fo23EEtXk+5hYew1WFoi3m7AjmBfJzgkRiAUsLiehCN05FyMXRD7xg7/85brd+AwNf4AXyMyP3KD7wsof/57fR+o2B+p1Vj23PBVjR6RgWb7gONVj8WFjCggXRPxJGz0TmqpZRgbZzdiCYF8gcTgXJRdTKL5EwfBWmPScFsgC/k8zhcMwmO/kKriZJUK+lF5yr6DEFjjlkI/nKVSRJ6qGll3Pp70T9n+T/oswcDud5ghfJHA6Hw+FwOByOEfwTIQ6Hw+FwOBwOxwheJHM4HA6Hw+FwOEbwIpnD4XA4HA6HwzGCF8kcDofD4XA4HI4R/0CRrMbN3YswbeUR/fa/GPVN7F40DSuPpLGNbJxaNw2zt1zSHaskmtTD+GrZbtwU/R30Z0TmCXwzLQhbL5f4rdpnxqPjqzHt0x36rWqghA2rgexTWDdtNrZc+mf0V5qqjD81bvy8GF8eSoH+l1b1aJB+cSdWzZ2JWUFfYnv0PaPjVYj6Bn5e/CUOpRj2wPq/sB/bfvoJPxm8th+5xqJUMMk6TAvaisq5dC4ublqIkKhM/bY5qHFrz2J8OHkyJpf1mroKR9PFNFTB/JKbiJjLaZXU+yMcXz0Nn+64pt9+niiph8wT35i0pdbWs7foNh4dx+ppn2LHNSG5iujzqfNCxeNMfXM3Fk1biSNp1RYtz44qyXu5SIy5jP8FdZjjD+X7ajXH41PlCsZT1wiZOPHNNARtvazffr74R4rkOxE/YHXoWf32vxj1HUT8sBqhZx+yjTwknjmA3y6k6I5VBk0ywv47ATstPOFaHb9BXhlyb+H0gUO4mPpPVO0aZJ4Pw+qQanxDVcKG1UBeIs4c+A0XUp6Xdz1VFX+sEI2YixFj52Lz6TTtb7Tr0CB513h0aD8OqyOu4tLhr/B2h3YYvTWR9VzFaNIRMXcExs7djNNphl/S8wSHl45AYGBgidfI+b/iAZsJnsTuwur14bhZqZwuR2OPR/jqnSAcM7tOVuPuHz/i6w2/4cq9NKSlGb8e44mociqQX1iB901/X4zakli5iU+TifNhqxFy5LZ+x/OEoR40yGJvxr42Ycu8xDM48NsF7d+azPMIWx2CI7eFk0X0+dR5oeJxpr4TgR9Wh+Lsw/+BL5x66rzHispv+sN31BYk/o8UyWL+UK6vVmc8Pm2uYGiyLmLn1+sRXrmEysjFrdMHcOhiqn77+YI/blFlqPDmd7E4vbS7frviZB1diNmnumDG+GZ4XmpkOAbi+9iTWNSFf0tppVC9ie9iT2Np9/8h/eX+jcPLh6FDn2X4M8toQs89gWUzfoTkrZ04c/hn7Dl2Fr+8b4edsxbjiHAbt4rI/fswlg/rgD7L/oTxEFAQj5jLOfD+6ASSU1ORqn/d+flt1KmCjGfd/kN84LENM1fGoCLTgqTWy5ixYSM2bjR6hXyCV53EBlaB/EKZSL2XWelJ7/mmYnlW9eZ3iD1d1i/1PX2+5pjgqfMeITP1HjL/N524TMr31WrkucgVjgj8PhYnF3XRbz9fPIMiORuxGyfhZU8HKGQ10ajHLBxKNZzVNEg5ugyBfg1gJ7OCwqkpek35CWyOM0l27I+Y2N0TDgoZatRvj7dWL8f4TkOwKrYAmtRtGN+xL5ZG5enPZvPmxS8wsOM4/Pi3zh00qcfw+egu8HK2gdSS9evoie7vbcLlXOFoOnZM6IzAWbMxqJkDbBx8MF2Y4bNjsXHSy/B0UEBWsxF6zDqEYlEe4ef3O6Dn3AjdpiYVxz4fjS5ezrCRWsJK4QjP7u9hk66D0mju4KcVW2A56D/oXkO369HP76PzsMX4LqgPPO3lkKs80PmtYJx9pDsukHdzD+YM8EHdGlJYKZ3RrPcUbInTVyPpOzChcyBmzR6EZg42cPCZXmahokk5imWBfmhgJ2PjdELTXlPwU6EBhDY69Mb8E3pdalJwdFkg/BrYQWalgFPTXpjy02XozhZ00BkjloRgbv8WqMVsY8Ns8y47HrvpXXR2s4VMZg/PPgsRIdzSE64wQ0ZDTMprDiZtKJCHm3vmYIBPXdSQWkHp3Ay9p2xBYRfa8Y5YgpC5/dGiFmvDpj7av8v8NXYT3u3sBluZDPaefbAw4kHhBXi/Q0/MjWD6E/7uPALLNy/BkBdcYC2Vw8GrN2buMbjLysb348TuuvHVYG2/tRrLx3fCkFWxuuN5N7FnzgD41K0BqZUSzs16Y8qWOO1jBGVT1fGnwd/rRmPAl8notToE73la6ffryDu/FwdvNcHAkZ1RU9hhYY+O44fjxeQD+DmybN83HYtloPkb60YPwJfJvbA65D0YDYG924xBzE17vNjhRdR2coKT/uVYU1Gc8OgBIpcOhndtJWRyB3j1nIqdCYVWeITTX49GxyZOsGH2rOnqiyELwpFcOJNYuGDgqO5IXLcSBzP0+54aNRI2voXO7Ybi68KPqNU38P3YTvB/exMS1Eb55dFpfD26I5o42bCYqglX3yFYEJ4MDcsjm8aPwvoruYgPGYGOozewa4WwNRHjIlTUPk+dt0zq30gPApSOEwsC4GUvg8zOHZ1YX9F6uwhj6dBzrm6jBEbtiOUF0XwuFmelyY7diEkv6+awmo16YNahVINPZCphM33uaGKvYDpvjFdmbsSqdzpj3I9/a8e/bXxH9F0axTKcnoKL+GJgR91xLRWfiwsS92P+m35wU8khVTqhxeufYG8iczjDvCdgct4QppkJ6Bw4C7MHNYODjT1a9umLUeuvIDc+BCM6jsYGrROL2KC8mNAdLUW5YzdHV0/pDyXldYDP9CMmfLUkovForh7KyhX3yqoZNEg99jlGd/GCs40Ulsx+jp7d8d6myyhOAYT0EwsQ4GXP+rSDe6e3EFwYhAzxeqsDes8/oT2XnW3SD3Vz8HJsXjIEL7hYQyrk794zsUewXXUg/JhIdZJ5+APylNeiTv/9kY6eOkqbZnQlFysJSTsu0x7Pj1lG/ip7avPOGtofGU0ndy6kfh7W1Hj8fnqgPaMMMsLpfU851er0X/rhSCRFbJtDvRvIyMKqGU2PzCX17VXUTelOE37P0V9AlPvHh+Sp7EjL4gvY1n3aHuhCiiZDadXBKIqJiaQ9nw0gd6mKBmxMI1In05oerD1rb3pn43E6HrqdIlIf0+EPPEleqxP998ejdOroJprR1YWsJFLquCxe22ZwbwU5j96t7e/+9kByUTShoasOUlRMDEXu+YwGuEtJNWAjsR5Kob69mnraetB7h4vHfD+4N8llCqr1wjj65tBJOrZlFnVzkZLrf3bp2sg6TjNaWVNNdvyrfScpMnwDTenoRDL3sbQrVc3EWEM9ZBZk7f0ObTx+nEK3RxDbXZL8GFrmryL7Nu/Qmv2RFH1yJy3s50HWjcfTfmYAbRuKOjRu3xPhZIpZ5k8q+zb0zpr9FBl9knYu7Ece1o1pvHCyVgdykirdqNfcMDoZHUFrhriR1M6RXF96m9aFn6HIsOnUQaWg9kuuaLs3LaOabq/qRkr3CdpzxeQVJ1PEhkIXM6iVdU16YdxXtO9kJIVvmEIdnWTkPnaXVnfa8UqV5NZrLoWdjKaINUPITWpHjq4v0dvrwulMZBhN76AiRfsl2vbYBdRb4UyjdzP9af9WUA2Pl2nWxqMUFbmHFvSuS9I6Y2h3hnByBoW/rx/fD0coMmIbzendgGQWVtRseiQ7nkXHZ7Qi65ov0Liv9tHJyHDaMKUjOcncaeyuVKat0lRH/GUlXKYbwnjzz9CslkrynX+JhKgSyNg0gGys+9L3D/U7BJ7solFOCuqx+m4ZYxSJxTLJooTLN5i2hCHMopZKX5p/qXAELNZPTqOmihY0+P1A6vaCF3m28qdhc3ZRvD60tDaUWFLtrtNp07FoOntgOfVrIKXao3Zpj+ef+Yha2TSl0cGHKTr2HB38fAC5yurTW/sztce1PNhMg+xr04idWsOJkEunpjUlmcdEMgjv0mRF0pw2Ncj+la/pr4ICur7uNXKyfYmCzgixZ5hf8unMR63IpuloCj4cTbHnDtLnA1xJVv8t2p+ZQRd3LdDmmgb9gih413l6IBLjpVDfplXdlOQ+4Xe2UXH7PG3eMq1/Qz2oKXlND5IxW9r7TqD14acoQuirtpTc39pL6fqxKJxHC70azQuG7YjnBbF8LhZnpcg8TB/o57Afj56io5tmUFcXK5JI9XNURW3GZDgy2YvkDu1oUsgROnXke6bTemSjkOlkMLBpkQvm/kEfeiqLZKxwLsiNpvl+Naimz1u09lAUnT0cTGNb2ZCq12q6kWKQ90TnDb0dLazJ+52NdPx4KP0Y8gMtGOBO0gb9KCh4F51np5m2gamY0I62JKbGnieuq6fzh9Lybo9ILd9XKxSPFdFD6VyRVlbNkLqdAl0U1GToKjoYFUMxbN76TLCNagDpyiXhGglZ2vvShPXhdCpiC83qVpuk7m/RXiEIxcasrbcUVGfcPu2oxPxQqydFDfJ4eRZtPBrFdL+AeteVUp0xutqrqqnmIjmDwkY4kdL/c9LWpgLqJFr3qh3JtM6SQ+HvupGi3WK6UjzH0f1Ng8jBri+FpOp3GPHgpyHkYNuTVt8qnnLTtg0jZ6mZRbI6hU5vWUkhxwwKi9wImtxEQS8tiKMCrdHkpOixmpIKT8gIoxFOSvL/PL6oIFAnraNX7fRJyCh5p5zeQitDjhkUpbkUMbkJKV5aQHEGshaSFTacHK1fpfX39TsY2slG3pYWFRUAarrzbQCp7F6n71LUlBE6jByV7Wnx5eIG1Xc2UF+VNXX/6hblC84rF4qTpGI5jcgJf5fcFO1ocUkD0CAHO+rLDFCiSM4Jp3fdFNRu8ZUiHQhybxrkQHZ9Q4iFubZIFmxbaO+cQ+PJVepG4w8JyZKhvkNfvywExF7tpmkZ80sUyWLylidjEaI2zKDQYY6kbL+Yirtg49nQl1TW3ekr5m/a8coK32wxcg7ReFcpuY0/RDoJ2flfv0yKOuO0W+yCkkWyXEb+K24WjTX36CRqpHiJFghO8eAnGuJgSz1XG8iSto2GOUt1RXJGKA1zVFL7xZeL9c/0uaGviqy7f0UG4aCneuKviFJFsi75KxyGU5je3FpyfqcJWr+5auA3esRiUb+rPMoqklODXyWlhS21GDKH1m3ZQsFzh1KrmjLy+M9OSmad6GzYiT4rUkounZzqRQrf+dqtJ2GBLL90pgXnHurGVJBAv61bTbtjDQrigks031dBXlNPsqvF0BXJVhZSUlhbk7XRy37QRm3BL/Dk7KfUzs6Jek37L3VzrEkdFkbrJ2rD/PKEwgIdyLbzAjr3UKe1goTfaN3q3aQdYv5FmttGSa0/OcemTCFsTcd4KQwn5UrY52nzVpZJ/ZcukuUKZsurxX0lrXuV7NgE/iObf4WxiBbJonlBLJ+LxVlpMsJGkJPSnz4vvkA3bn1uqbDNMnfSSPZGtL1Bblbf+oZ62ZpbJFc8F2hzl7w1fXy2OAIyf19Aw8d9TaeTDPKe6LxRaMcetLpows2ni3PbkLL1J3ROcGJRG4jEhBEmx54tpqun9Yey5DXhqxWKx4rpwThXaOd7o5pBnXKatqwMoWPFwrIuJ1MT/bxVeE2nz4rzuy5+WBEsBKFZ9VZhkSzuh7r87U8rbha2lktHJzXS6r46qN7HLQoSEHs5A/V8fNGg8CFbC2d0aNcE2k9I1XdwPuYuCq6sxUDvlmjZUvfqMvc4sp9cw6X4og87DCjAXxcvI9vtJfjVLR6+qn07tJDqN8RgY/B7cyR8H4Vh8YwJGDWwB3yb98PqeDU0Go3+Iy8J7N3c4KDvoiAhFpcz6sHHt0HR88IWzh3QronxZ70CFnD2exMjfR8hbPEMTBg1ED18m6Pf6nioWfuaUp/CaXA/8TYy7VzgYqPfpcfSwx9dGxf1COd2fmicdwWx13JwI+YKshq0R+eGxU8wWzj7o2NzNa5ejEO+sENiDzc3h3Keq1HjzvkY3C24grUDvYv037LLXBzPfoJrl+KLP25iqO+cR8zdAlxZOxDehee27IK5x7Px5Nol6MwlgV0jT9TTD0liXQNKqzpwa6A3joU1rJUSqAuKPxopX0bDJz4LzJPXBKI2LLiBmCtZaNC+M4q7YOPx74jm6qu4GKfrQWLXCJ7FAqKG0gp13BpAJ6EFrK2VkKjLeVpVokLDxi5F9rBQqWArKUBeHqHgr4u4nO2Gl/zqFttL1R7t9I5dcCMGV7IaoH3nhsXPrDNf9u/YHOqrF6EfXjHVEn+msIBUysYq+Lh+jw62zXZYWJThhWbFYsWwfnkGQrbsw68/zcM7w4bh7aDN2LOoK9J++hKbb+n8TqIysCEbt51dDUhyc7Rbim6jMNL1T8z2rYv63j0xcubPyPAbgj4t9M9BCVjWQz0X4O6tRLOfS7aoMxBf/vo7fv+95Ovgwl6w1p+jaDMd62Z54dTyL3CuxUdYO/UFlH6qU4Fuo0bC9c/Z8K1bH949R2LmzxnwG9IHhkPUUbEYL0Ul7fM0ecvSHP0bYOnWDh3dDfpq+xIa5VxGzDXz/Fc8t7M2TeXzfJE4K0UBEmIvI6OeD3yLL4Bzh3bQdVlxm6lvXcKVxy54sa17sQz1/NGpadkjKEWFc4EG6ZfikFTzRfi1kOn3ATbdP8amb9+Dn4HTmjdvsJi0d4Nb4YRbChEbUEViwvyxl03V+INpectBNB4roodyMKoZLJz98OZIXzwKW4wZE0ZhYA9fNO+3GvFqIa/rM4ClG9p1NPA957Z4qVEOLsdcQ15FcoiZfihRNURjl6IRQqWyhaTAvHivKBW0UEUpgJrNSRZWJVwDCoWc/SuQi1wml12bQEybMQMzCl9zliM4ZDHeaGQiwEk38ZaPUfoWjFG4S3MHoWN94fvGpwg7nw55Q3+MmReEIa6G6pDA0tJKP04GK+rUTF0lRVFAIS86wwAN7oSOha/vG/g07DzS5Q3hP2Yegoa4lqNwQn5+ASRSGYybkyiUUBpexMZkyc4XZM8TCjEraclELLHUjlGjUes0wLYtrcoao45cnQEQOM1A/zPmYHlwCBa/0ahk27m5LDnboU3gNINzZ2DO8mCELH4DOnNJdIVSCSTCMMrFlIyGmCWvKURtmMeKd6GLEj2wLqxYn8zf1LoeJEy+UhKaEtAQwR5Gp5a0jiB3OY6dp2YRZYWSw2N+qlMA9MMzoBrjrxysHR1hk/sAD7L0OwQK0pD+2AIOtRyLkmgRZsVixbBp2AVvvtm56I2akObqt/eDO91Gwi1dSauzaTnY98KXp6JxYO1UBHhk4tS30zHYzwdDNtxg/lOIlPmNFQoK8sX9rhCZEzxfaod27Uq+/LycDPKCGk+e5LB/CbmPH+BxOXnfvteXOBV9gBXRAfDIPIVvpw+Gn88QbLhRPMJCKhTjxlTSPk+Vt8zSvwEsb0oN+2INCZtF+V4M0bwgls/F4qw0BboLSuhAolAU5f/K2IwkrD1Lgx7ZG3jhhoQhJVUiFJeFeyqeC/KFGx1WlpCWJ2QhZs0bggswHyi3LfE5tSIxYc7Yy9dV1fiDaXnLwYx4rIgeykSYowwGprkTirG+vnjj0zCcT5ejof8YzAsagpIpQApZySCElbAp6KxCOcQ8PxR0V3IuqagizaesUVYdVm5o4iHH3bhLKP4a0FxcvXaLuRHDsg48XK2RlV0T7QNHYuRI3Wt4Lx808mqNxmW+y7JCk1bNoLx1FlFFK2mAx1FRuFx4J01QIOUh90mxm+clJ+O+/nTN7VCs2XYf3VdG4eyvW7F++RxMDKiN/MfshHIKFCu3JvCQ30XcpXQWInpyr+KaftItgeY2Qtdsw/3uKxF19ldsXb8ccyYGoHb+YyHUiq8vwpIVEOydWwYrLoz8WJ14BVcMvmoqMzYWNywbwquJAm4errC6HYtY/SI4LdkXEfMXUN/dg7mtGJaow9qwzspGzfaBRfofObwXfBp5oXXjknegLet4wNU6C9k12yOw8NyRw9HLpxG8WjcuuuteUcqX0TDJWD21vKI2ZP7q4WqF26z/kl3E4C/Uh7uHuEafBqsmrdBMeQtnowwWWTyOQpTesa3cmP6tbiM29oGBD2Xjok4BKDW8aok/00hbe6MZ4nDunO6urEBe7DnE5DaCd2tb/Z5iKhOLpsnGrx/3QPfJO0t8v2rWzQSkwAX165ae7EuiQVrUVqzckYwXx81D8K5TiE+6iBVdMrF/077ixXuaR0h/WAB79qZArMWKkHliPsYvT0DHmTPhf3sl3p0XgVJrAzVpiNq6EjuSX8S4ecHYdSoeSRdXoEvmfmzal8xOYG9KdWcyKhbjxlTWPpXPW27M5c3QvwHqpGv4y6CvjJgYJFh5wNPMN3mieUEsn4vFWSlYLmviAfndOFwy+H7s3KvXoOuy4jazbOCFxtaCDPeLZci5gqtFhZHw5pyQl/ukuPjLS0Zy4aRY4VxgAUd3V9ilx+OqgVEKLn+Ld4cHYa/BvsrOGxLDukfMBqIxYYjI2O8KN8hM6KrK/cF8ROOxQnoQMMwVZaHB7dA12Ha/O1ZGncWvW9dj+ZyJCKidjxIpQJ2EayWDEDEJVvDwbASLiuSQapiTnpZq7tEer40ZBPvDS/DBhgt4pM7BrV8+wdztd5nqBWqi94gBcDr7Bd5b9DuScpmu70VixZhX0LX/Ahw3vBtlgCpgPEbUPY55I6bj+8MncWz7pxj54TakkM7gFio3uNnfx5Hte5DA2sxNPIj5Kw7gUaHHC3cxJHm4l5CAh2wg6rQ/8d2kefjlITtX/5FrKexfw5hB9ji85ANsuPAI6pxb+OWTudh+18jIWoS7fRLk3UtAgq4D/PndJMzTdVC0otcQ29bMAXLjEXe9ZBjRg71YNCMU17LVyLq6DVPn7Yak90j0r80CPWAE+liHY9HEYESls+uyr2PnjCCEZrXD0MFeLC2KU7P3CAxwOosv3luE33UGQOSKMXila38sMDZAzd4YMcAJZ794D4t+T2Jhr8a9yBUY80pX9F9wHOWYSxRTMhpijrw5cXsRHPwzzpf17RiiNnREwIg+sA5fhInBUdB1sRMzgkKR1W4oBnuZo9GnQBWA8SPq4vi8EZj+/WGcPLYdn478ENtSSDdhOAZgRB9rhC+aiOCodJZws3F95wwEhWah3dDBKD286ok/U1i6D8AbHR5j6+wgHPg7B3kpx7B0VggSvYfizRfKKFoqE4smUaCZuwLng+dg5vYryNSo8fDCD/jgk50oeHk03mgkZkMLSK7vwsKJkzB/fyLzcTZ5Pk7C32l5cHB1Rc1Cl8yPQ1y8JZp6t2Zvzgpw9UAw1u04azAplkH+I9y+cgmXLhm94i7j70fswoxjCBq/EkndFuKb+fPxzcJuuPv1uwg6YuTMFhJc37UQEyfNx/5E7QjxOOlvpOU5wNW1Jpv3ZJDLCJkPH2on5QrFuDGVtE/l81YzWJmjfwPo4T4s/mgXEnI0yIzbhA/n7YX0tZHoW8vM6U00L4jlc7E4K439a2MwyP4wlnywARceqZFz6xd8Mnc7CrussM1se2P0EGcc/+wDrI9+CHVuIvbPnYttd/RFsoUKbm72uH9kO/boJkUcnL8CB4omxYrnAutuQ9HfJRJfzfoBlzJYcZhxCT/MXYjv/8xATZWB7is1b0ggk8tAmQ/B3osyRGwgFhNGmBy7o4OIrqreH8xGLB4rqAfjXFEWwierkrx7SEh4yMavRtqf32HSvF/wkFmyKAXQQ+xb/BF2JeRAkxmHTR/Ow17paxjZtxYsKpRDqn5Oemr0zyZXH+r7dHReT6qvsCCpTEpSx3Y0ekBLsi5c0MCORywKoIY2FmQhU5DcSkKK+j1oTnhK8UPeZZAV8z2N79KQVHIp1ajnRyMmDSRPeSv6+Kzw+Hkuxa4dSA2VFmSlsCaFtTsFzJ5AnWwKF+6lUfistuRgZUEymxqkkDmQ9/BFNLO3ilT9QiglX3iQXEn13zlY/OA+Q33/KM3rWZ8UFlKSSaXk2G40DWhprX+Yv+SCkrTwWdTWwYrJZEM1FDJy8B5Oi2b2JpWqH4WklCFZ7kma2rQGdV9VvGhL+yC/fVt6zb8O609GUgs51es6k/bdKTxDTcnhQfSKq5IklgqylluRop4/TQ67WfwQvrI+vXPQUApj1HQ/YhEFNLQhCwsZKVgbEkV96jEnnIRhlli4J5x9P4IWBTQkGwumO4WcrCQKqt9jDoVrZRJ0oNQ+gF+4biv3xFTyUranJX8VPoX/kDYEKPV6EpPR6NstROQVSF3bi+RSw/5KYtqGwgnJFB70CrkqJWTJfEdupaB6/pMp7KauB2G8yjrjSK8OQUCa6qWk9kv+Klq08HBDACn1CzDYBSUX7imLdSmQf34O+Sh9aM55vQRZMfT9+C7UUCUnaY165DdiEg30lFOrj89qD6uTwynoFVdSSiyZXzP9K+qR/+Qw0g+vNNUUf1rK+HYLgdzLITSquR1ZWLL+WIxZNx5M31wslrkEYrEoMoiyFu4JC73CJrUjZymTWeujcqrf/WM6cFfXWCkbMu+J/bQNKVt9rN+Mp83jWpPKkunY1o6UzE+c/CbSjoTiPvKjZ5O3rT8t167MyaDv+zJ7tZlLF8u0g37hHku3Qsot9ZLY0MDNSXTo/aakqN2Xvr2h76fgOq17rRbJm75P4Q8M84swxM00rrWKLFkc2NopSSp1Ir+JO0g3xCd0ZLInyS3lZNtqKkXkmo7xUpRYKFRx+zxt3jKt/5J5VlgAZd2kL43uVofkCgXrS0ou/h/RQQNbi3+7BTtmMi+Ykc/F4qwUzCZH51HP+gqyEHQkdaR2owdQS+vCRcEVtJnAg5O0LMBdJwMbg+NLAdS5nqIot+XGrqWBDZVkwXKaNctt7gGzaUInG4PcV9FcoKb044upj7uSLGXWzE4WLFf3oaUnhK+iMMh7wpkm5w2dHZX13yHDqerJkclsTrckuW0rmhrxRNQGpmPCGBNjZ5jW1dP6Q9nyluurFYzHiumhZK44mli6ZlCnhdOstg5kxfzQpoaCZA7eNHzRTOqtUlG/kBTdFwRYN6G+o7tRHbmCFELedfGnjw7qv83IrHqr+NstxPywrPx9fo4PKX3m6LerluovkvU8SY6jyD+i6PoDrdpKUfDwJp374xhFRMVTmshycXVyDJ2ITixaES6Q8/t75K7oQl8YLPHPTb1CkcdP0aVkA08sQk2PE87R8WMnKSYpS7/PHJ5Qclwk/RF1ncoRpQj14wQ6d/wYnYxJIvEeCujqiq5Uq+uKohWxRc6QlUG3zp2gyEt3i4rPEuSn0V9Rx9mY/qL74kvty6bgId089wcdi4iieAMDqO98TS+zQuyt/YY6LKCHN8/RH8ciKCo+jZUAlcdsGQ0xJa86hdb260trha8xKBdxG+an/UVRx/+gqL/uP5V8FYIV6DEnoimxpGPTe+4K6vLFLf0OgXxK+yuKjrN4+stMg1dl/JlFwQO6cfY4RUReoVTR9iobi6Z5cvcSnWI+euZqZWyopozbF+kkuz4yLtnIJ3Pp9MxWVPeNLaJFfLWizqDbF0+ymI2kuGSjqFE/ppuC/s/cIP0i93JjXJyK2adq8pYp/ZcB00UCk/fEBXNybXmYzgvm5HOxOCvFk2SKi2R55voDJnEZVNhmuZRyWZCB2f1Jya8t05KbSlcij9OpS8klbgAZUuFcwOwYHxVhRqxXdN5gfnfzLB2POEM39E4sagNTMVEWpsYuoqtq8QezMCMeK6KHsnKFMeychHPH6djJGCo/BbCYTWD2OnGhjHNMjFn/jVf13tqv36GjyuekSvLMiuSqJP/cJ+Qt96ARm+O1zllw/wyteM2FFC/MJu2N5H8rjw/SeM+W9N8/dE5d+h3Tsyfn1HRqLtd9tV51UNUyPjkZRAPe/okSqzInPSvyz9En3nLyGLGZ4nWOTWdWvEYuihdo9r/asf/HSAujkY38aK7B10dxinke8haHYfTdvhzOc0nOKZreXK7/LYDnDzMf2nq+sPKeiCUfuuHIWE+orGvAxqUDPr3VFcu/nY42VbmK5llj2xMLVnTCscUbcF0tLFywgKWFpOQChmdGLo5+4AV7/89xu/UbGPhC8VflVCVVLaOi7RzsCB6KBv9Gz7byxsQlH8LtyFh4qqxRw8YFHT69ha7Lv8X0f7Vj/y+Ri6iVXyJh+CpMa1M9MfFv55/NW5xiJLCwtIQFNwTnOSX36AfwsvfH57db442BL+j3Pl9IhEpZ//e/joIHCYj7KwX5du5o1rR20XeNcqqG7OQruJokQb2WXnCu7E/wcypOwQMkxP2FlHw7uDdritrcsTkcDofzv0Z2Mq5cTYKkXkt4PadFxr+6SOZwOBwOh8PhcKqDf+XjFhwOh8PhcDgcTnXCi2QOh8PhcDgcDscIXiRzOBwOh8PhcDhGVHuRnHniG0wL2orL5f2cixiZJ/DNtCBsrXQD1cNTy8V5TsjGqXXTMHvLJf025x9HfRO7F03DyiNp+h3PGdmnsO45zEnPK4+Or8a0T3fot54/sk+tw7TZW/RbVUBuImIupz39r6tVAbmJMbhs+PvsVcQ/Y1M1bu5ehGkrj+i32Z6/92Hpf6fi84N39HueD7Q+9TzUB9pcNRtbLj2rgZS20b+dai6SNci6uBNfrw/HzcraKPcWTh84hIup+p/XfC6oArk4zwl5SDxzAL9dSNFvc/5x1HcQ8cNqhJ59qN/xnPEkFrtWr0c4D34z0CDzfBhWhzy/k2Ze4hkc+O2CfuspYW/wvunvi1FbEv/xIll98xv09x2FLYlVPZJ/yqZq3In4AatDz+q38xC1egYWHMxDaz8X/b7ngyexu7D6eagP8hJx5sBvuJDyrOonYxv9+3n+H7dwDMT3sSexqAv/DjJOdaDCm9/F4vTS7vptDofzfwnVm98h9vRS/dZTQplIvZf5jxfIApSZinuZz8NIqgl1ElJqDsKaLUvQ04E/OVomqjfxXexpLO3O66fK8mw8i9JxYkEAvOxlkNm5o9NbwYjO0B/TpOLY56PRxcsZNlJLWCkc4dn9PWy6nKs7nr4DEzr0xvwTedrNvJt7MGeAD+rWkMJK6YxmvadgS1y29pgpNKnH8PnoLvBytoHU0goKR090f28TdN08ws/vd8aIJSGY278FailksKnfHu/+dBmxm95FZzdbyGT28OyzEBEPDJKOKbnYu9ybe+ZggE9d1JBaQencDL2nbEHxUB/h9Nej0bGJE2xkMtR09cWQBeFIFstpmhQcXRYIvwZ2kFkp4NS0F6awceboDz86/TVGd2wCJxs2ppqu8B2yAOFFjWYj9seJ6N7EHgq5Co1fmYmNq95B53E/ao9qUrdhfMe+WBql07VAwcUvMLDjOPz4t64NTcpRLAv0QwM7GbOVE5r2moKfLhf1XmE9mrYL49FpfD26I5o42bBra8LVdwgWhCdXcBIypWthzB3Qc26E9kw2IqQcXYZAvwawk7HxODVFryk/oVDERz+/j84jliBkbn+0qKWAzKY+2r/Ljsduwrud3WDL2rf37IOFEQ8KL8D7nYdh8XdB6ONpDznTu0fntxB89pHuuODfnQMxa/YgNHOwgYPPdBxhPmJaz2WTdfgT9OgwFj8Y3jnKO43FAZ3x7jZTd8oLkLh/Pt70c4NKLoXSqQVe/2QvEtXm+IQGqcc+x+guXnC2kcKS+aSjZ3e8t+kydCbU+8TyzVgy5AW4WEshd/BC75l7tO1ryY7Fxkkvw9OB6bNmI/SYdQiphl9MmXcTe+YMgE/dGpBaKeHcrDembIlj3mwana2WY/OSIXjBxRpSuQO8es/EnqKOxWLUFIQHkUsx2Ls2lDI5HLx6YurOBBS2bMqvRe0klhPLQdRWWl8cgeWbl2DICy6wlgrj7o2ZexKLxl0epvNKRfQo4i9i8cKo6lwu+EmHnnO1fwvjMxX/JnWouYNN40dh/ZVcxIeMQMfRG5AgKLaS/iua6034t+bOJowftR5XcuMRMqIjRm9IYKlmAjoHzsLsQc3gYOMAn+nCnWARec1EbF427T/lwearjZPwsqcDFCz3N+oxC4cME4P6LmIiwnHmut7fReOm4nNu5XMqgx4gculgeNdWQibYpudU7NQ6hA6TOitzXhCJnbKuucv8tUNPzI3Q60jEFytuJxEbMSo+l5mwE7PxtvEd0XdpFMs6egou4ouBHTHux7/1O6oY4XuSqw81Ja/pQTKJJdn7TqD14acoYsss6lZbSu5v7aV0dsb97YHkomhCQ1cdpKiYGIrc8xkNcJeSasBGShNaSF5DPRR1aJzwG6dZx2lGK2uq+cI4+mrfSYoM30BTOjqRzH0s7Uo19TvE92l7oAspmgylVQejKCYmkvZ8NoDcpSoasFHo5T4F95aTVOlGveaG0cnoCFozxI2kdo7k+tLbtC78DEWGTacOKgW1X3KFnS8uV9bxGdTKuia9MO4r2ncyksI3TKGOTjJyH7uLhKHmn/mIWtk0pdHBhyk69hwd/HwAucrq01v7M4UBl0M+xSzzJ5V9G3pnzX6KjD5JOxf2Iw/rxjR+/wOhUfqolQ01HR1Mh6Nj6dzBz2mAq4zqv7WfhFYzj0wmL7kDtZsUQkdOHaHvp3SkejYKknVcpm1dfXsVdVO604Tfi3+pPvePD8lT2ZGWxRew9mNomb+K7Nu8Q2v2R1L0yZ20sJ8HWTceT0L3FdejmF3y6cxHrcim6WgKPhxNsecO0ucDXElW/y0yqSYjTOtaGLOCnEfv1p0bs4z8VfbU5p01tD8ymk7uXEj9PKyp8fj9JIgo/OSuXKokt15zKexkNEWsGUJuUjtydH2J3l4XTmciw2h6BxUp2i/RtscuoN5yGSlqvUDjvjlEJ49toVndXEjq+h/axUTU+rfMgqy936GNx49T6PYISs0V03M5pG+jN2spqcPSK8SspSXnyPvUqEY3+vJG4Z7S5EbPJ78aNcnnrbV0KOosHQ4ey/Slol6rb4j7xP3tFOiioCZDV9HBqBiKidxDnw1wJ6lqAGlNqNevooYHvTxrIx2NYjZe0JvqSuvQmN0Z7HgmHf7Ak+S1OtF/fzxKp45uohldXchKItX/nG4WHZ/RiqxrMv19tY9ORobTBua3TjJ3GrsrlUVi+Qi2UihqkMfLs2jj0SiWWxZQ77pSqjNGZ2uxGC0XrU0lZFm7K03fdIyizx6g5f0akLT2KNoliCTm1yJ2EsuJ5SFuKzZuhYJqeLxMszYepShmqwW965K0zhjSmqI8RPKKaT2q6faqbqR0n6BrS8xfROJFVLdaf6tIDhK6ZH7iPFr7t1j8m9ZhBl3ctUBrqwb9gih413l2TWX9VyTXM0z6d8ZF2rVA0EsD6hcUTLvOp+nmLAtr8n5nIx0/HkrbI1LF5S0TI5uKzcsi/lMemYc/IE95Ler03x/p6KmjtGlGV3KxkpBUP19Rzn56q56Seq1N1W6KxU2l5txK5lTtPMHqg9pdp9OmY9F09sBy6tdASrVH7dKdIKKzMueFVNOxU/Y1gr860+jdwm/Ei/hiJewkaiPRmqE0Ju2kvk2ruinJfcLvVJTlqvnn159JkSxXdKLPrhY6lJqS1r1KdsywP6apKeX0FloZcsxgUsqliMlNSPHSAopjlxgWyRmhw8hR2Z4WXy52TvWdDdRXZU3dv7pVfsJRp9DpLSsp5JhBUsqNoMlNFPTSgjjm/LrEKhSLwlwikHNoPLlK3Wj8IcG5GOo79PXLCqozbq+wISJXBoUOcyRl+8VUPFQ13dnQl1TW3emrW2p6EhZIDradacG5h7oxFSTQb+tW0+5YE7NVTji966agdouLA5aFI20a5EB2fUMo9UkYBTrYUucF5+ihrlFK+G0drd4dSxnMzXeOdGLF22K6UjTkW/RNL1uzi+Sc8HfJTdGOFhc1wLi/iQY52FHfECFRVVCPonZ5QmGBDmTbeQGd0wnE1PQbrVu9m0ypyRjTujYsknMo/F03UrQz0BHj/qZB5GDXlwQRtclPpi86BHIO0XhXKbmNP8RGK8Ds/PXLpKgzTrulnVTlcmq76FKRzdR3vqUAlR29/l0K5Qv+LVdQj9VJRToQ13N5PKZdo+uQvM1cupgvbGfRb+PdqGbvtXS7SMHG5NLRSY1I3vpjOpur38V85fcFw2nc16dFfUKdcpq2rAyhYwZVZW7EZGqieIkWCAFc6BP+K+hm4Sm5R2lSI52NKSOMRjgpyf/z+GL9JK2jV+1kuqSXEUrDHJXUfvHlYp9nPrShr4qsu39FLJTKRWcrf1pR3LFWViG3sIZFY7Rc9IVcp8+Kx5x7cip5KXxp/iW2R9SvTdlJPCeWh1lFMhu3/4qbRePKPTqJGhXZqhxM5hUxPeaXKKhE/UUkXtRVnst1fqIrksXjX1SH+Rdpbhsltf7kHCtzGZX1X7FcL2yZ9G9hKHOpjbI1fXJOGEnhnNWDVicVnm+GvGVSskgWnZdN+k95ZFDYCCdS+n9eZEeWGGjdq3ZF81XJIlk8bio151YqpxbahtUHRYPPpZNTvUjhO1+7JaazsuYFsdjR1kpG12j9tbBIFvPFrIraSdxGlZnLTNrpHyiSn8njFpZu7dDR3VK/ZQHnti+hUc5lxFwrgLPfmxjp+whhi2dgwqiB6OHbHP1Wx0Ot0UBT4q59AW7EXEFWg/bo3LCwLdaasz86Nlfj6sU45Ov3lcLCGX5vjoTvozAsnjEBowb2gG/zflgdr4aG9aPrRgK7Rp6op29aYl0DSqs6cGsg1e2wsIa1UgJ1QfHHJeXKFXcVMVey0KB9ZxQPlR3374jm6qu4GJcPRbdRGOn6J2b71kV9754YOfNnZPgNQZ8WNfTnl0Z95zxi7hbgytqB8G7ZEi21ry6YezwbT65dQrxFN4wa6Yo/Z/uibn1v9Bw5Ez9n+GFInxaoob6FS1cew+XFtigecj34d2oKK/2madS4cz4GdwuuYO1Ab33f7NVlLo5nP8G1S/H6jz8qoEdRuyjQbdRIuP45G75168O750jM/DkDfkP6wISaSmG2rtV3cD7mLgqurMVA70L9tkSXuceR/eQaLsXrJbRrBM9iAVFDaYU6bg2gk9AC1tZKSNQGKzYsPeDftTGK1O7cDn6N83Al9hrzaobEHm5uDuxKAXP1XBa26Dk0AM4xO/BTNGs56yi27X2Mrm/2R53yIl2TjktxSaj5oh9ayPT7YIPuH2/Ct+/56bfLx8LZD2+O9MWjsMWYMWEUBvbwRfN+qxGvZvFbFMASqBo2hkvhGCxUUNlKUJCXh4KEWFzOqAcf3wYG+umAdk10XllwIwZXshqgfeeGRccFv/Hv2BzqqxfBQskkElVDNC7uGCqVLSQFTIMFN0Rj1CQSFRp51ises50dakhykfOEySzq16bsxMZgdk6sBGzcDRu76H2NDVWlgq2kAHl5JhpWmMgrFdSjWf5iKl6qKZdrMTP+K6LDyvqvaK4vGko5/l0OEns3uBU+v2uuvCYxY1425T/680tRkIDYyxmo5+OLBsWOgA7tmpQzX4nHTWXm3ErlVD0SlcE8wcZnZ1cDklzhMQMza5kS84Jw3IzYMbrGEFFftKygnURtVLm5rHJ2qj5EzFxFSGWQGvZkZaXtmEiDO6Fj4ev7Bj4NO490eUP4j5mHoCGuZQ4sTyg8rKQlg0RiKTTHnEStT5BloLmD0LG+8H3jU4SdT4e8oT/GzAvCEFfDXiSQSvVJtAiJ0Hz5lCtXHkvAwlBLhrPE0oqNnTm0mo3Uvhe+PBWNA2unIsAjE6e+nY7Bfj4YsuFG+c8H5uYyp7JDm8BpmDFjRtFrzvJghCx+A42s7NHry1OIPrAWUwM8kHnqW0wf7AefIRtwQ2iUJGyIlkyqQiS6gk6/pcNIi8LEo9+Vm8tc2q4NAqcV9z1jxhwsDw7B4jca6e1SAT2aYRf7Xl/iVPQBrJ0aAI/MU/h2+mD4+QzBBq1AZmK2rnOhEzEQ0wz0O2POcgSHLMYbjfQSMvlKSWjKUSQKKJWGjsJ8lp1OTLda2LWWVsVWME/PZWPdLRD9G1xD2NZIpIdvx4Hcnhjat7aJQM+HUCtYWUqN/MCQ8n1CcycUY3198canYTifLkdD/zGYFzQEJUKLtWxpaaSfws5Y52o2OiGGi2D6Usj1J+Sp2ZRihZKhxNrTBT2EUDKFhPVbsufCjs2IUVPo804phMvM8Ovy7VSxnFia8m2lRfC1ckxRPqbySsX0aJa/mIqX6srlWsyL/wrpsLL+K5rrdaeV799lI5xfnGrMlFcE8XlZZF4qkwKo2TGLkokBCoW8HAnNiJvKzLmMiudUHboYKBuzahnBzwzmBfNip+Q1JRD1xYraSdxGlZrLzLCTUVZhb4LKC6SnR8zOVYI66Rr+ytRvMDJiYpBg5QFPj2SErtmG+91XIursr9i6fjnmTAxA7fzHgtjsP0Os4ObhCqvbsYg1XDyXfRExfwH13T1gnBYL0dwOxZpt99F9ZRTO/roV65fPwcSA2sh/LCTdkr1UhHLl8moID1cr3I6NRcmhxuAv1Ie7hyXSorZi5Y5kvDhuHoJ3nUJ80kWs6JKJ/Zv26R5QLwPLOh5wtc5Cds32CBw5EiO1r+Ho5dMIXq0bQ/UgCltX7kDyi+MwL3gXTsUn4eKKLsjcvwn77tWDV2Nr3I27hPtF7efgylWDBCEkXFbg5wp3w/TkJSfrz7dEHaZ/66xs1GwfqO+bvYb3gk8jL7RuXPa7V1OI2kWThqitK7Ej+UWMmxeMXafikXRxBbpk7semfcn6VsTQmK9ryzrMbtbIyq6J9oGF+h2J4b180MirNRpXdgW1OhFXrhg4Sibz4RuWaOhV1l2Rp9SzvAOGDWyIW/s2Yfmmg8Crw9DHQX+sLCwc4e5qh/T4qwa6KMDlb9/F8KC9Ij6hwe3QNdh2vztWRp3Fr1vXY/mciQionQ9zQ8vKrQk85HcRdym9ON5zr+LaLTaJMKzcmM9b3UZs7AODfJCNi7qgh0d5QS+GlZtIjFa2YSa3OfmmPDtpblcgJxph0laVR5NmIq/cb1ABPZrpLybixaKacrmWKol/Vozr/xKorP+K5XrzhlJOsVRIlcgrPi9bmvKf8iY7Fp9NPOTa+Sq96JRcXL12i2WnMhCNmwrMA8ZUNKeKUplapipyrWlfdHtcQTuJ2qgyc5mYnViOsyTk5T4pLpTzkpH8tEnOBOZEwVNDD/dh8Ue7kJCjQWbcJnw4by+kr41E31oy9q5Ggrx7CUh4yIRUp+HP7yZh3i8PhbcgRat4C3EMGIE+1uFYNDEYUenMDNnXsXNGEEKz2mHoYC+jd9QGCO/YJHm4l5AAXTd/4rtJ86DrxrgX8ylfLicEjOgD6/BFmBgcBd1Qd2JGUCiy2g3FYC8pJNd3YeHESZi/P5G5FStLHifh77Q8OLi6omZ5VqnZGyMGOOHsF+9h0e9J7Do17kWuwJhXuqL/guN4IrmOXQsnYtL8/UjUNYqkv9OQ5+AK15o10Xv0EDgf/wwfrI/GQ3UuEvfPxdxtd4qKZAuVG9zs7+PI9j1IYNfnJh7E/BUH8EjvjTV7j8AAp7P44r1F+D2JnaC+h8gVY/BK1/5YcDxLd1JFELOLhQTXdy3ExEnzsV8nEB4n/Y20PAe4utZk2zmI2xuM4J/Po3jtuzEWFdA109GIAXA6+wXeW/Q7dCJGYsWYV9C1/wJURkQt9AB7F81A6LVsqLOuYtvUedgt6Y2R/cu+G/F0epbhpWGD0fTGBiz/RYbXhvaErf5I2Vij29D+cIn8CrN+uIQMlm0zLv2AuQu/x58ZNUV9QriDKMm7h4SEhyy9qZH253eYNO8XPGSaNiu07F/DmEH2OLzkA2y48AjqnFv45ZO52H5Xn/QcAzCijzXCF01EcFQ684BsXN85A0GhWWg3dDC8RO8OloejSIxWumEz8015dhLu9JifEw0Rs1VlsTCZV8RyXUk9muUvpuKlmnK5jiqIf4kMchkh8+FDXaFQWf8VyfXmDUUOGWXi4UPtSMqgavKd2LwsNek/5U129nhtzCDYH16CDzZcwCN1Dm798gnmbr9rUOAZIhY3FZkHjKloThWnMrXMU+daEV9sZlVRO4nbqOJzmYidrFRwc7PH/SPbsUeX5HBw/goceNokZwr9s8nVhG6xgHWTvjS6Wx2SKxQktZCSi/9HdPCu8Ei2mtLCZ1FbByuykNlQDYWMHLyH06KZvUml6kchKfpVnoXfbiG0Fx5Er7gqSWKpIGu5FSnq+dPksJu6RRLloU6j8FltycHKgmQ2NUghcyDv4YtoZm8VqfqFUIpaWOyhpDrj9ukXXxHlnphKXsr2tOSvwgfOH9KGAKV+gZeYXMIpyRQe9Aq5KiVkqbAmuZWC6vlPprCb+pHmx9Pmca1Jxd4WKWztSCmVkpPfRNqRYPCAexmo70fQooCGZGPBZFHIyUqioPo95lA40xVrlOI3j6PWKkvWpy3ZKaUkdfKjiTsS9A/qP6CTywLIXWFBUpmMpI4vUUDneqQoXAhBuRS7diA1VFqQFRuzwtqdAmZPoE42hQvV1HQ/YhEFNLQhCwsZKZj+JYr61GNOONOhcH0F9ShqF0FNm2lcaxVZMnvb2ilJKnUiv4k7SKemVFrbS07S9kuoqPmyMKlrYczF327BFEwRiwKooY0F80kFs5uEFPV70JzwFCa9bkGGss440rqjQO4JmuqlpPZL/ipaDPFwQwAp9avldQsn7Knta/5URyYlmdSC5PW60sx9d7Ttaf1bWZ/eOVi82EpczyLkx9L8l2Rk1XAiHS4cpynU6XR8cR9yV1qSzJrp2EJJ7n2W0gnt6mPTPqFOC6dZbR3Iio3TpoaCZA7eNHzRTOqtUlG/EEFnpX2C8s/THB8l+cw5r91U3z9K83rWJwWLIRmzjWO70TSgpXXRQgx1cjgFveJKSgmznzXzeUU98p8cRoWhVB6lbMXi4/wcH1L6zNFtisVoeQg2VRbmJB35sZ9SG2Ur+jiKXWuGX+svKsNO4jmxfETit6xxn59DPkofmnPelMwiecWkHksu8hL1F5F4qfpcrvOTwm+3EIt/cR0+oSOTPUluKSfbVlMpIldQT+X813SuN8O/nxyhyZ5yspTbUqupR7VzlrL+O1Qy1YjIWyZG327Btk3Py2LzUjmwsR2d15Pqa+crdo1jOxo9oCVZl7NwTzRuKjnnaqlgTi3LNrGftiFlq4/126Z1Vta8IBY72sV+xnOJNp4Kv91CaNeUL1bCTmI2YnJWeC4TsVNu7Foa2FBJFizPWLN84x4wmyZ0sqm2hXsS4R99vVy9aDJxK/o8kqQN8ULrurDW7xbQZNzChQu3kKNqDO+WRsfursYrDRfDY+d1rH9V/4XYBemIPx+HFLigaevGcCxacGQKDTJuXcCFWzlQNfZGy7qGvTwFJuQSKEiPx/m4FMClKVo3dmTvSQ3RIDPpEmKuP4SFkye8m9WGQn/ENGo8SriI2MRMyOu1QOtGDiXa1WQm4VLMdTy0cIKndzPUNmo0L/UKov/KhHPLlrjzqTd6nn4L2X9M0x9lx+9dRfTVB7Bt4oPmtcv4EnL1IyRcjEViphz1WrRGIwezDFAOZtiF6TjpUgyuP7SAk6c3mhkIpEldh4FvA+t+/n+obfJuQMV0rX6UgIuxiciU10OL1o1QaRHT1uPVBkGotyMeX7a8iot35Wjo3Rwu5hi6snrWpOL7gc3wmdc+RC9tZ+Rz5VOQfh3nL92B2rkpfLycSlxn0ic0Gbh14QJu5ajQ2LslKhdaOUi5fAHxWU5o8WJDqErZsgDp8eehC6XWaGxe0JuF6RitLOb4dfl2MpUTxRCN30oillfM1qMpfzErXqoplxvwVPHP5EuIvoC/NfXQuo2H/i5lZf3XdK4XQ5ORgOgLf0NTrzVe8hA+fSubKsl3IvOymP+UR07KZVyIz4JTixfRsHRiKIF43FRyzq1kThWlorVMleRa075YGTuJ2qjCc5mInfLu4Wr0VTywbQKf5rVRnT+V8uyK5EqSGzkDL3b9BQHHzmNp2ypzTY6WPJz4b6tSRfK/hxycmhuIkKYrsXZog2fz7FBFKZr0b+Db18ycFZ4C4WOuJ9EL0KvnPvSJ+AOzmj/FYwOcaoPbqRyecbxwOGLwWP2/zXNZV+jIxdEPvGDv/zlut34DA1/gBXJ1ILGwhKWFyAKP5xYF2s7ZgeDntUAWkEhgYWnB/vcMdFwQhTlt7ODg9xly3l6MCTyZP59wO5XPs4wXDkcMHqv/53mu7yRnJ1/B1SQJ6rX0gnN13k/ncP4nUOPRrTjczHFBc6PHJTjPE9xOHM6/Ax6r/9d57h+34HA4HA6Hw+FwnjXP8eMWHA6Hw+FwOBzOPwMvkjkcDofD4XA4HCN4kczhcDgcDofD4RjxTIrk3MQYXE4r/A0WTuVQ4+buRZi28ohuM/sU1k2bjS2Xyvs1JQ6Hw+FwOBxOZan2Ill98xv09x2FLYm8SH461LgT8QNWh57VbeYl4syB33AhpfBHpTkcDofD4XA4VUW1F8mUmYp7mbxArnJUb+K72NNY2p1/Nx6Hw+FwOBxOVVOtRbLmziaMH7UeV3LjETKiI0ZvuIHUbePRse9SROXpT0IBLn4xEB3H/ajdSt8xAZ0DZ2H2oGZwsHGAz/QjePTz++g8Yjk2LxmCF1ysIZU7wKv3TOxJLLyLmoebe+ZggE9d1JBaQencDL2nbEFctv5wCbJw+JMe6DD2Bxje3M47vRgBnd/FtpQyCvrsWPw4sTs8HRSQ1aiP9m+txvLxnTBkVSw7qBGVSfhJy2Ofj0YXL2fYSC1hpXCEZ/f3sOlyrvZwWTKzThG7cRJe9nSAQlYTjXrMwqFUg2/re/Qz3u/QE3MjhE7ZGI59jtFdvOBsI4WllQKOnt3x3qbL0PXA4XA4HA6Hw6kI1VokW9h54/XBfnCydITvkLcwsI0K+anXEB2TiIyiek+DjNuXEH01Rft3/r2/cGbbKvxS62Ps+TUYH73eEgX343E2bB5mhzfB1G0R+GPHf9EwZgXGB+3TtpD9xxz0G7YKCW0+wvaIE9i79FVkbv4P+ry/G/dK1bw28GldC39tDcbWvwqL7Fyc3Pwdjkmbwq+WsUoy8fvMQXhnWz76fnkQxw+swCtJS/Hx+tO4lJSlPcO0TEBa2BQM/eQU6k7ciGPRF3AidBZa3lyP9z8ORXo5Mmcd+QiD3v4JeX1X4teIPfjU9xzWbY1n5beegvuIj76IhIdMwLQwTBn6CU7VnYiNx6Jx4UQoZrW8ifXvf4zQdP35HA6Hw+FwOByzqd7HLWq0Qp++3nC0skerfv9BP2+V/oBpJLIOeCcoEJ06DcaQzk7afaR5Ee9/uwAjuvii7evTMHOwKx5cimFHMrF/zbeI956Jn9ZNxGvt2+Ll/yxH6NLeeLh1FbbdLn1n2P7VYeij+hPbt8bpis7sCGzbcx+d3hwMN+NfnXy4F+s234X/vM1YNqor2nZ+A/M2L8egWub+bKoGarcAzPrmW6x6rxd8W7Zk45+EKf3dkXP7FgofKS4psxK/btiCv9vOwvdLR6JLuy4Yvmgz5vW0RVm9atRuCJj1Db5d9R56+bZEy7avY9KU/nDPuY1b/JllDofD4XA4nApT7c8kVwaJvRvcHEoOTaJqiMYuhfssoFKxgrEgDyi4gZgrWWjQvjMaFhW4FnD274jm6qu4GJev32eAbU8MDXBGzI6fEM2q5Kyj27D3cVe82b9OKYUU/HURl7Pd8JJf3eJjqvZo10Kq3xCDjcXvTYz0fYSwxTMwYdRA9PBtjn6r46HWaKDR330uIXNBAmIvZ6Cejy8aFMpk4YwO7ZrASr9piIWzH94c6YtHYYsxY8IoDOzhi+b9ViNezdov7IDD4XA4HA6HYzbGNeGzwahuEwo5w10SS0tYGd0yFfaVvMlbeEIe1KzQtZKWLB8lllasoGRForqsItEa3QL7o8G1MGyNTEf49gPI7TkUfWuXpw5iYyzjWWVDypVJgzuhY+Hr+wY+DTuPdHlD+I+Zh6AhriWUX1LmAqjVzDhWhjJJoFDIy76TfCcUY3198canYTifLkdD/zGYFzQErv+MdTkcDofD4XD+9VR/GSUpWdZZsmKQ8nLxpKiozENy8n1WSlYSKzd4uFrhdmwsHhg0kn0xBn+hPtw9yr7jK+8wDAMb3sK+Tcux6SDw6rA+cNAfM8SqSSs0U97C2ajk4jE+jkLU5eI71CZl0txG6JptuN99JaLO/oqt65djzsQA1M5/LJTwZcvNZGriIcfduEtILzohF1ev3Sp+JrkIDW6HrsG2+92xMuosft26HsvnTERA7Xw8ZteK1fYcDofD4XA4nNJUe5Eskckho0w8fCiUdxZQubnB/v4RbN+TwMq+XCQenI8VBx4Z34itAI4IGNEH1uGLMDE4Cumsm+zrOzEjKBRZ7YZisJfxQ8Z6ZC9h2OCmuLFhOX6RvYahPW31B4xQBWD8iLo4Pm8Epn9/GCePbcenIz/EthTS1/9iMllBaiVB3r0E3SI7dRr+/G4S5v3ykNW9ucjRnmOMPV4bMwj2h5fggw0X8Eidg1u/fIK52++WWVQLd9ElefeQkPCQHVcj7c/vMGneL3gojEbfQcHVAwhetwNni6tuDofD4XA4HE45VHuRbOnaFm1dk/DNq85oPe04FD2nIOh1IHRYE6hsVGj2bhx6Du8Amf78imOB2m+sxKaZjXHmw7ZwtrWBQ9Ph2G33NkK+n4Sm5dTIQvHaauhgvCAh1OsXiG42+t2lsEX3JWFYN8gCP095DV0DPsQ+VT+83sQSlvrHIUzKZOGCoTMnw/vGZ/CvYwfbGnXxyldqjJrcCza343CpnKLVIWAZfvyoEU6+/yKcrO3Q5D+n0KJHc5S+L24Bl6EzMdn7Bj7zrwM72xqo+8pXUI+ajF42txF3Sfj+DCAnci0mvb8E+5J4kczhcDgcDocjhoQY+r+rDU1GAqIv/A1NvdZ4yaMm25OHe1ejcfWBLZr4NEftKvo9jIL0eJyPSwFcmqJ1Y0fRwluT+j0GNvsMXvuisbRdOWdrUhAbeRc1W7+ABjX0+3IPY2LTPoj94CqOTnbV7zQtkybjFi5cuIUcVWN4t6wLa/1+MXJSLuNCfBacWryIhioT72k0Gbh14QJu5ajQ2Lsl6prbAYfD4XA4HA6nFM+kSH7+EO6mPkH0gl7oua8PIv6Yhebl3XEuiMZs3/bY3GoDDq0LRCN5GqJWjULfj+7g7T+i8Gmbsr5vgsPhcDgcDofzb+b/5PcfFETNQRs7B/h9loO3F08ov0AWsPLGxCUfwu3IWHiqrFHDxgUdPr2Frsu/xXReIHM4HA6Hw+H8DwL8f3ZDzyerbTOXAAAAAElFTkSuQmCC;" vertex="1" parent="1">
          <mxGeometry x="220" y="10" width="513.36" height="270" as="geometry" />
        </mxCell>
        <mxCell id="aRUOHbeHuca7O0_OhKyN-2" value="USUARIO" style="whiteSpace=wrap;html=1;align=center;" vertex="1" parent="1">
          <mxGeometry x="420" y="350" width="100" height="40" as="geometry" />
        </mxCell>
        <mxCell id="aRUOHbeHuca7O0_OhKyN-3" value="CUADRILLA" style="whiteSpace=wrap;html=1;align=center;" vertex="1" parent="1">
          <mxGeometry x="420" y="700" width="100" height="40" as="geometry" />
        </mxCell>
        <mxCell id="aRUOHbeHuca7O0_OhKyN-4" value="TURNOS" style="whiteSpace=wrap;html=1;align=center;" vertex="1" parent="1">
          <mxGeometry x="740" y="700" width="100" height="40" as="geometry" />
        </mxCell>
        <mxCell id="aRUOHbeHuca7O0_OhKyN-5" value="INCIDENTE" style="whiteSpace=wrap;html=1;align=center;" vertex="1" parent="1">
          <mxGeometry x="420" y="530" width="100" height="40" as="geometry" />
        </mxCell>
        <mxCell id="aRUOHbeHuca7O0_OhKyN-6" value="TIPO USUARIO" style="whiteSpace=wrap;html=1;align=center;" vertex="1" parent="1">
          <mxGeometry x="690" y="350" width="100" height="40" as="geometry" />
        </mxCell>
        <mxCell id="aRUOHbeHuca7O0_OhKyN-8" value="ID_usuario" style="ellipse;whiteSpace=wrap;html=1;align=center;fontStyle=4;" vertex="1" parent="1">
          <mxGeometry x="350" y="290" width="100" height="40" as="geometry" />
        </mxCell>
        <mxCell id="aRUOHbeHuca7O0_OhKyN-9" value="" style="endArrow=none;html=1;rounded=0;exitX=0.5;exitY=1;exitDx=0;exitDy=0;entryX=0;entryY=0;entryDx=0;entryDy=0;" edge="1" parent="1" source="aRUOHbeHuca7O0_OhKyN-8" target="aRUOHbeHuca7O0_OhKyN-2">
          <mxGeometry relative="1" as="geometry">
            <mxPoint x="570" y="330" as="sourcePoint" />
            <mxPoint x="730" y="330" as="targetPoint" />
          </mxGeometry>
        </mxCell>
        <mxCell id="aRUOHbeHuca7O0_OhKyN-11" value="Pertenece" style="shape=rhombus;perimeter=rhombusPerimeter;whiteSpace=wrap;html=1;align=center;" vertex="1" parent="1">
          <mxGeometry x="560" y="350" width="100" height="40" as="geometry" />
        </mxCell>
        <mxCell id="aRUOHbeHuca7O0_OhKyN-12" value="Tiempo_max_resp" style="ellipse;whiteSpace=wrap;html=1;align=center;" vertex="1" parent="1">
          <mxGeometry x="780" y="290" width="100" height="40" as="geometry" />
        </mxCell>
        <mxCell id="aRUOHbeHuca7O0_OhKyN-14" value="ID_tipo_usuario" style="ellipse;whiteSpace=wrap;html=1;align=center;fontStyle=4;" vertex="1" parent="1">
          <mxGeometry x="890" y="420" width="100" height="40" as="geometry" />
        </mxCell>
        <mxCell id="aRUOHbeHuca7O0_OhKyN-15" value="" style="endArrow=none;html=1;rounded=0;exitX=0.75;exitY=0;exitDx=0;exitDy=0;entryX=0.5;entryY=1;entryDx=0;entryDy=0;" edge="1" parent="1" source="aRUOHbeHuca7O0_OhKyN-6" target="aRUOHbeHuca7O0_OhKyN-12">
          <mxGeometry relative="1" as="geometry">
            <mxPoint x="570" y="330" as="sourcePoint" />
            <mxPoint x="730" y="330" as="targetPoint" />
          </mxGeometry>
        </mxCell>
        <mxCell id="aRUOHbeHuca7O0_OhKyN-16" value="" style="endArrow=none;html=1;rounded=0;exitX=1;exitY=0.5;exitDx=0;exitDy=0;entryX=0;entryY=0.5;entryDx=0;entryDy=0;" edge="1" parent="1" source="aRUOHbeHuca7O0_OhKyN-6">
          <mxGeometry relative="1" as="geometry">
            <mxPoint x="570" y="330" as="sourcePoint" />
            <mxPoint x="850" y="370" as="targetPoint" />
          </mxGeometry>
        </mxCell>
        <mxCell id="aRUOHbeHuca7O0_OhKyN-17" value="" style="endArrow=none;html=1;rounded=0;exitX=1;exitY=1;exitDx=0;exitDy=0;entryX=0;entryY=0.5;entryDx=0;entryDy=0;" edge="1" parent="1" source="aRUOHbeHuca7O0_OhKyN-6" target="aRUOHbeHuca7O0_OhKyN-14">
          <mxGeometry relative="1" as="geometry">
            <mxPoint x="570" y="330" as="sourcePoint" />
            <mxPoint x="730" y="330" as="targetPoint" />
          </mxGeometry>
        </mxCell>
        <mxCell id="aRUOHbeHuca7O0_OhKyN-18" value="Reporta" style="shape=rhombus;perimeter=rhombusPerimeter;whiteSpace=wrap;html=1;align=center;" vertex="1" parent="1">
          <mxGeometry x="410" y="430" width="120" height="60" as="geometry" />
        </mxCell>
        <mxCell id="aRUOHbeHuca7O0_OhKyN-19" value="" style="endArrow=none;html=1;rounded=0;entryX=1;entryY=0.5;entryDx=0;entryDy=0;exitX=0;exitY=0.5;exitDx=0;exitDy=0;" edge="1" parent="1" source="aRUOHbeHuca7O0_OhKyN-11" target="aRUOHbeHuca7O0_OhKyN-2">
          <mxGeometry relative="1" as="geometry">
            <mxPoint x="570" y="330" as="sourcePoint" />
            <mxPoint x="730" y="330" as="targetPoint" />
          </mxGeometry>
        </mxCell>
        <mxCell id="aRUOHbeHuca7O0_OhKyN-20" value="(1,1)" style="resizable=0;html=1;whiteSpace=wrap;align=right;verticalAlign=bottom;" connectable="0" vertex="1" parent="aRUOHbeHuca7O0_OhKyN-19">
          <mxGeometry x="1" relative="1" as="geometry">
            <mxPoint x="40" as="offset" />
          </mxGeometry>
        </mxCell>
        <mxCell id="aRUOHbeHuca7O0_OhKyN-21" value="" style="endArrow=none;html=1;rounded=0;entryX=0;entryY=0.5;entryDx=0;entryDy=0;exitX=1;exitY=0.5;exitDx=0;exitDy=0;" edge="1" parent="1" source="aRUOHbeHuca7O0_OhKyN-11" target="aRUOHbeHuca7O0_OhKyN-6">
          <mxGeometry relative="1" as="geometry">
            <mxPoint x="570" y="330" as="sourcePoint" />
            <mxPoint x="730" y="330" as="targetPoint" />
          </mxGeometry>
        </mxCell>
        <mxCell id="aRUOHbeHuca7O0_OhKyN-22" value="(1,1)" style="resizable=0;html=1;whiteSpace=wrap;align=right;verticalAlign=bottom;" connectable="0" vertex="1" parent="aRUOHbeHuca7O0_OhKyN-21">
          <mxGeometry x="1" relative="1" as="geometry" />
        </mxCell>
        <mxCell id="aRUOHbeHuca7O0_OhKyN-23" value="" style="endArrow=none;html=1;rounded=0;entryX=0.5;entryY=1;entryDx=0;entryDy=0;exitX=0.5;exitY=0;exitDx=0;exitDy=0;" edge="1" parent="1" source="aRUOHbeHuca7O0_OhKyN-18" target="aRUOHbeHuca7O0_OhKyN-2">
          <mxGeometry relative="1" as="geometry">
            <mxPoint x="570" y="430" as="sourcePoint" />
            <mxPoint x="730" y="430" as="targetPoint" />
          </mxGeometry>
        </mxCell>
        <mxCell id="aRUOHbeHuca7O0_OhKyN-24" value="(1,1)" style="resizable=0;html=1;whiteSpace=wrap;align=right;verticalAlign=bottom;" connectable="0" vertex="1" parent="aRUOHbeHuca7O0_OhKyN-23">
          <mxGeometry x="1" relative="1" as="geometry">
            <mxPoint y="20" as="offset" />
          </mxGeometry>
        </mxCell>
        <mxCell id="aRUOHbeHuca7O0_OhKyN-25" value="" style="endArrow=none;html=1;rounded=0;entryX=0.5;entryY=1;entryDx=0;entryDy=0;exitX=0.5;exitY=0;exitDx=0;exitDy=0;" edge="1" parent="1" source="aRUOHbeHuca7O0_OhKyN-5" target="aRUOHbeHuca7O0_OhKyN-18">
          <mxGeometry relative="1" as="geometry">
            <mxPoint x="570" y="430" as="sourcePoint" />
            <mxPoint x="730" y="430" as="targetPoint" />
          </mxGeometry>
        </mxCell>
        <mxCell id="aRUOHbeHuca7O0_OhKyN-26" value="(1,M)" style="resizable=0;html=1;whiteSpace=wrap;align=right;verticalAlign=bottom;" connectable="0" vertex="1" parent="aRUOHbeHuca7O0_OhKyN-25">
          <mxGeometry x="1" relative="1" as="geometry">
            <mxPoint y="20" as="offset" />
          </mxGeometry>
        </mxCell>
        <mxCell id="aRUOHbeHuca7O0_OhKyN-27" value="Requiere" style="shape=rhombus;perimeter=rhombusPerimeter;whiteSpace=wrap;html=1;align=center;" vertex="1" parent="1">
          <mxGeometry x="410" y="600" width="120" height="60" as="geometry" />
        </mxCell>
        <mxCell id="aRUOHbeHuca7O0_OhKyN-28" value="" style="endArrow=none;html=1;rounded=0;entryX=0.5;entryY=1;entryDx=0;entryDy=0;exitX=0.5;exitY=0;exitDx=0;exitDy=0;" edge="1" parent="1" source="aRUOHbeHuca7O0_OhKyN-27" target="aRUOHbeHuca7O0_OhKyN-5">
          <mxGeometry relative="1" as="geometry">
            <mxPoint x="570" y="630" as="sourcePoint" />
            <mxPoint x="730" y="630" as="targetPoint" />
          </mxGeometry>
        </mxCell>
        <mxCell id="aRUOHbeHuca7O0_OhKyN-29" value="(1,1)" style="resizable=0;html=1;whiteSpace=wrap;align=right;verticalAlign=bottom;" connectable="0" vertex="1" parent="aRUOHbeHuca7O0_OhKyN-28">
          <mxGeometry x="1" relative="1" as="geometry">
            <mxPoint y="15" as="offset" />
          </mxGeometry>
        </mxCell>
        <mxCell id="aRUOHbeHuca7O0_OhKyN-30" value="" style="endArrow=none;html=1;rounded=0;entryX=0.5;entryY=0;entryDx=0;entryDy=0;exitX=0.5;exitY=1;exitDx=0;exitDy=0;" edge="1" parent="1" source="aRUOHbeHuca7O0_OhKyN-27" target="aRUOHbeHuca7O0_OhKyN-3">
          <mxGeometry relative="1" as="geometry">
            <mxPoint x="570" y="630" as="sourcePoint" />
            <mxPoint x="730" y="630" as="targetPoint" />
          </mxGeometry>
        </mxCell>
        <mxCell id="aRUOHbeHuca7O0_OhKyN-31" value="(1,M)" style="resizable=0;html=1;whiteSpace=wrap;align=right;verticalAlign=bottom;" connectable="0" vertex="1" parent="aRUOHbeHuca7O0_OhKyN-30">
          <mxGeometry x="1" relative="1" as="geometry" />
        </mxCell>
        <mxCell id="aRUOHbeHuca7O0_OhKyN-32" value="Trabaja_en" style="shape=rhombus;perimeter=rhombusPerimeter;whiteSpace=wrap;html=1;align=center;" vertex="1" parent="1">
          <mxGeometry x="570" y="690" width="120" height="60" as="geometry" />
        </mxCell>
        <mxCell id="aRUOHbeHuca7O0_OhKyN-33" value="" style="endArrow=none;html=1;rounded=0;entryX=1;entryY=0.5;entryDx=0;entryDy=0;exitX=0;exitY=0.5;exitDx=0;exitDy=0;" edge="1" parent="1" source="aRUOHbeHuca7O0_OhKyN-32" target="aRUOHbeHuca7O0_OhKyN-3">
          <mxGeometry relative="1" as="geometry">
            <mxPoint x="570" y="630" as="sourcePoint" />
            <mxPoint x="730" y="630" as="targetPoint" />
          </mxGeometry>
        </mxCell>
        <mxCell id="aRUOHbeHuca7O0_OhKyN-34" value="(1,M)" style="resizable=0;html=1;whiteSpace=wrap;align=right;verticalAlign=bottom;" connectable="0" vertex="1" parent="aRUOHbeHuca7O0_OhKyN-33">
          <mxGeometry x="1" relative="1" as="geometry">
            <mxPoint x="40" as="offset" />
          </mxGeometry>
        </mxCell>
        <mxCell id="aRUOHbeHuca7O0_OhKyN-35" value="" style="endArrow=none;html=1;rounded=0;entryX=0;entryY=0.5;entryDx=0;entryDy=0;exitX=1;exitY=0.5;exitDx=0;exitDy=0;" edge="1" parent="1" source="aRUOHbeHuca7O0_OhKyN-32" target="aRUOHbeHuca7O0_OhKyN-4">
          <mxGeometry relative="1" as="geometry">
            <mxPoint x="570" y="630" as="sourcePoint" />
            <mxPoint x="730" y="630" as="targetPoint" />
          </mxGeometry>
        </mxCell>
        <mxCell id="aRUOHbeHuca7O0_OhKyN-36" value="(1,M)" style="resizable=0;html=1;whiteSpace=wrap;align=right;verticalAlign=bottom;" connectable="0" vertex="1" parent="aRUOHbeHuca7O0_OhKyN-35">
          <mxGeometry x="1" relative="1" as="geometry">
            <mxPoint x="-7" as="offset" />
          </mxGeometry>
        </mxCell>
        <mxCell id="aRUOHbeHuca7O0_OhKyN-37" value="Direccion" style="ellipse;whiteSpace=wrap;html=1;align=center;" vertex="1" parent="1">
          <mxGeometry x="270" y="340" width="100" height="40" as="geometry" />
        </mxCell>
        <mxCell id="aRUOHbeHuca7O0_OhKyN-38" value="" style="endArrow=none;html=1;rounded=0;exitX=1;exitY=0.5;exitDx=0;exitDy=0;entryX=0;entryY=0.5;entryDx=0;entryDy=0;" edge="1" parent="1" source="aRUOHbeHuca7O0_OhKyN-37" target="aRUOHbeHuca7O0_OhKyN-2">
          <mxGeometry relative="1" as="geometry">
            <mxPoint x="570" y="230" as="sourcePoint" />
            <mxPoint x="730" y="230" as="targetPoint" />
          </mxGeometry>
        </mxCell>
        <mxCell id="aRUOHbeHuca7O0_OhKyN-40" value="" style="endArrow=none;html=1;rounded=0;exitX=1;exitY=0.5;exitDx=0;exitDy=0;entryX=0;entryY=1;entryDx=0;entryDy=0;" edge="1" parent="1" source="aRUOHbeHuca7O0_OhKyN-5">
          <mxGeometry relative="1" as="geometry">
            <mxPoint x="570" y="430" as="sourcePoint" />
            <mxPoint x="584.6446609406726" y="534.1421356237308" as="targetPoint" />
          </mxGeometry>
        </mxCell>
        <mxCell id="aRUOHbeHuca7O0_OhKyN-42" value="ID_incidente" style="ellipse;whiteSpace=wrap;html=1;align=center;fontStyle=4;" vertex="1" parent="1">
          <mxGeometry x="300" y="500" width="100" height="40" as="geometry" />
        </mxCell>
        <mxCell id="aRUOHbeHuca7O0_OhKyN-43" value="" style="endArrow=none;html=1;rounded=0;exitX=1;exitY=0.5;exitDx=0;exitDy=0;entryX=0;entryY=0.5;entryDx=0;entryDy=0;" edge="1" parent="1" source="aRUOHbeHuca7O0_OhKyN-42" target="aRUOHbeHuca7O0_OhKyN-5">
          <mxGeometry relative="1" as="geometry">
            <mxPoint x="570" y="430" as="sourcePoint" />
            <mxPoint x="730" y="430" as="targetPoint" />
          </mxGeometry>
        </mxCell>
        <mxCell id="aRUOHbeHuca7O0_OhKyN-44" value="&lt;span style=&quot;border-bottom: 1px dotted&quot;&gt;Tipo_incidente&lt;/span&gt;" style="ellipse;whiteSpace=wrap;html=1;align=center;" vertex="1" parent="1">
          <mxGeometry x="580" y="510" width="100" height="40" as="geometry" />
        </mxCell>
        <mxCell id="aRUOHbeHuca7O0_OhKyN-45" value="&lt;span style=&quot;border-bottom: 1px dotted&quot;&gt;Tipo_usuario&lt;/span&gt;" style="ellipse;whiteSpace=wrap;html=1;align=center;" vertex="1" parent="1">
          <mxGeometry x="840" y="350" width="100" height="40" as="geometry" />
        </mxCell>
        <mxCell id="aRUOHbeHuca7O0_OhKyN-46" value="ID_turno" style="ellipse;whiteSpace=wrap;html=1;align=center;fontStyle=4;" vertex="1" parent="1">
          <mxGeometry x="850" y="650" width="100" height="40" as="geometry" />
        </mxCell>
        <mxCell id="aRUOHbeHuca7O0_OhKyN-47" value="" style="endArrow=none;html=1;rounded=0;entryX=1;entryY=0;entryDx=0;entryDy=0;exitX=0;exitY=1;exitDx=0;exitDy=0;" edge="1" parent="1" source="aRUOHbeHuca7O0_OhKyN-46" target="aRUOHbeHuca7O0_OhKyN-4">
          <mxGeometry relative="1" as="geometry">
            <mxPoint x="570" y="730" as="sourcePoint" />
            <mxPoint x="730" y="730" as="targetPoint" />
          </mxGeometry>
        </mxCell>
        <mxCell id="aRUOHbeHuca7O0_OhKyN-49" value="&lt;span style=&quot;border-bottom: 1px dotted&quot;&gt;Tipo_turno&lt;/span&gt;" style="ellipse;whiteSpace=wrap;html=1;align=center;" vertex="1" parent="1">
          <mxGeometry x="870" y="730" width="100" height="40" as="geometry" />
        </mxCell>
        <mxCell id="aRUOHbeHuca7O0_OhKyN-50" value="" style="endArrow=none;html=1;rounded=0;exitX=1;exitY=1;exitDx=0;exitDy=0;entryX=0;entryY=0.5;entryDx=0;entryDy=0;" edge="1" parent="1" source="aRUOHbeHuca7O0_OhKyN-4" target="aRUOHbeHuca7O0_OhKyN-49">
          <mxGeometry relative="1" as="geometry">
            <mxPoint x="570" y="730" as="sourcePoint" />
            <mxPoint x="730" y="730" as="targetPoint" />
          </mxGeometry>
        </mxCell>
        <mxCell id="aRUOHbeHuca7O0_OhKyN-51" value="Dia" style="ellipse;whiteSpace=wrap;html=1;align=center;" vertex="1" parent="1">
          <mxGeometry x="790" y="780" width="100" height="40" as="geometry" />
        </mxCell>
        <mxCell id="aRUOHbeHuca7O0_OhKyN-52" value="" style="endArrow=none;html=1;rounded=0;exitX=0.5;exitY=1;exitDx=0;exitDy=0;entryX=0.5;entryY=0;entryDx=0;entryDy=0;" edge="1" parent="1" source="aRUOHbeHuca7O0_OhKyN-4" target="aRUOHbeHuca7O0_OhKyN-51">
          <mxGeometry relative="1" as="geometry">
            <mxPoint x="570" y="730" as="sourcePoint" />
            <mxPoint x="730" y="730" as="targetPoint" />
          </mxGeometry>
        </mxCell>
        <mxCell id="aRUOHbeHuca7O0_OhKyN-53" value="ID_cuadrilla" style="ellipse;whiteSpace=wrap;html=1;align=center;fontStyle=4;" vertex="1" parent="1">
          <mxGeometry x="270" y="700" width="100" height="40" as="geometry" />
        </mxCell>
        <mxCell id="aRUOHbeHuca7O0_OhKyN-54" value="" style="endArrow=none;html=1;rounded=0;exitX=1;exitY=0.5;exitDx=0;exitDy=0;entryX=0;entryY=0.5;entryDx=0;entryDy=0;" edge="1" parent="1" source="aRUOHbeHuca7O0_OhKyN-53" target="aRUOHbeHuca7O0_OhKyN-3">
          <mxGeometry relative="1" as="geometry">
            <mxPoint x="570" y="730" as="sourcePoint" />
            <mxPoint x="730" y="730" as="targetPoint" />
          </mxGeometry>
        </mxCell>
        <mxCell id="aRUOHbeHuca7O0_OhKyN-55" value="Nombre_cuadrilla" style="ellipse;whiteSpace=wrap;html=1;align=center;" vertex="1" parent="1">
          <mxGeometry x="340" y="770" width="100" height="40" as="geometry" />
        </mxCell>
        <mxCell id="aRUOHbeHuca7O0_OhKyN-56" value="" style="endArrow=none;html=1;rounded=0;exitX=1;exitY=0;exitDx=0;exitDy=0;entryX=0.5;entryY=1;entryDx=0;entryDy=0;" edge="1" parent="1" source="aRUOHbeHuca7O0_OhKyN-55" target="aRUOHbeHuca7O0_OhKyN-3">
          <mxGeometry relative="1" as="geometry">
            <mxPoint x="570" y="730" as="sourcePoint" />
            <mxPoint x="730" y="730" as="targetPoint" />
          </mxGeometry>
        </mxCell>
        <mxCell id="aRUOHbeHuca7O0_OhKyN-57" value="Descripcion" style="ellipse;whiteSpace=wrap;html=1;align=center;" vertex="1" parent="1">
          <mxGeometry x="260" y="580" width="100" height="40" as="geometry" />
        </mxCell>
        <mxCell id="aRUOHbeHuca7O0_OhKyN-58" value="" style="endArrow=none;html=1;rounded=0;entryX=1;entryY=0;entryDx=0;entryDy=0;exitX=0;exitY=0.75;exitDx=0;exitDy=0;" edge="1" parent="1" source="aRUOHbeHuca7O0_OhKyN-5" target="aRUOHbeHuca7O0_OhKyN-57">
          <mxGeometry relative="1" as="geometry">
            <mxPoint x="570" y="530" as="sourcePoint" />
            <mxPoint x="730" y="530" as="targetPoint" />
          </mxGeometry>
        </mxCell>
        <mxCell id="aRUOHbeHuca7O0_OhKyN-59" value="Hora_inicio" style="ellipse;whiteSpace=wrap;html=1;align=center;" vertex="1" parent="1">
          <mxGeometry x="690" y="610" width="100" height="40" as="geometry" />
        </mxCell>
        <mxCell id="aRUOHbeHuca7O0_OhKyN-60" value="" style="endArrow=none;html=1;rounded=0;exitX=0.5;exitY=1;exitDx=0;exitDy=0;entryX=0;entryY=0;entryDx=0;entryDy=0;" edge="1" parent="1" source="aRUOHbeHuca7O0_OhKyN-59" target="aRUOHbeHuca7O0_OhKyN-4">
          <mxGeometry relative="1" as="geometry">
            <mxPoint x="570" y="730" as="sourcePoint" />
            <mxPoint x="730" y="730" as="targetPoint" />
          </mxGeometry>
        </mxCell>
        <mxCell id="aRUOHbeHuca7O0_OhKyN-62" value="Hora_fin" style="ellipse;whiteSpace=wrap;html=1;align=center;" vertex="1" parent="1">
          <mxGeometry x="633.36" y="790" width="100" height="40" as="geometry" />
        </mxCell>
        <mxCell id="aRUOHbeHuca7O0_OhKyN-63" value="" style="endArrow=none;html=1;rounded=0;entryX=0;entryY=1;entryDx=0;entryDy=0;exitX=0.5;exitY=0;exitDx=0;exitDy=0;" edge="1" parent="1" source="aRUOHbeHuca7O0_OhKyN-62" target="aRUOHbeHuca7O0_OhKyN-4">
          <mxGeometry relative="1" as="geometry">
            <mxPoint x="570" y="730" as="sourcePoint" />
            <mxPoint x="730" y="730" as="targetPoint" />
          </mxGeometry>
        </mxCell>
        <mxCell id="aRUOHbeHuca7O0_OhKyN-64" value="&lt;h1 style=&quot;margin-top: 0px;&quot;&gt;&lt;span style=&quot;background-color: transparent; color: light-dark(rgb(0, 0, 0), rgb(255, 255, 255));&quot;&gt;RESTRICCIONES&lt;/span&gt;&lt;/h1&gt;&lt;h1 style=&quot;margin-top: 0px;&quot;&gt;&lt;span style=&quot;background-color: transparent; color: light-dark(rgb(0, 0, 0), rgb(255, 255, 255)); font-weight: 400; line-height: 100%; font-size: 12px;&quot;&gt;-Una misma cuadrilla no puede tener asignados dos turnos que coincidan en el mismo dÃ­a y cuyos horarios se solapen entre sÃ­ (hora_inicio - hora_fin)&lt;/span&gt;&lt;/h1&gt;&lt;div&gt;&lt;span style=&quot;font-size: 12px; font-weight: 400;&quot;&gt;-&lt;/span&gt;&lt;span style=&quot;background-color: transparent;&quot;&gt;Una cuadrilla solo puede estar asignada a un incidente si el tipo de incidente es &#39;Alta TensiÃ³n&#39;&lt;/span&gt;&lt;/div&gt;" style="text;html=1;whiteSpace=wrap;overflow=hidden;rounded=0;" vertex="1" parent="1">
          <mxGeometry x="760" y="880" width="300" height="190" as="geometry" />
        </mxCell>
        <mxCell id="aRUOHbeHuca7O0_OhKyN-66" value="Telefono_usuario" style="ellipse;whiteSpace=wrap;html=1;align=center;" vertex="1" parent="1">
          <mxGeometry x="280" y="400" width="100" height="40" as="geometry" />
        </mxCell>
        <mxCell id="aRUOHbeHuca7O0_OhKyN-67" value="" style="endArrow=none;html=1;rounded=0;exitX=1;exitY=0;exitDx=0;exitDy=0;entryX=0;entryY=1;entryDx=0;entryDy=0;" edge="1" parent="1" source="aRUOHbeHuca7O0_OhKyN-66" target="aRUOHbeHuca7O0_OhKyN-2">
          <mxGeometry relative="1" as="geometry">
            <mxPoint x="570" y="360" as="sourcePoint" />
            <mxPoint x="730" y="360" as="targetPoint" />
          </mxGeometry>
        </mxCell>
        <mxCell id="aRUOHbeHuca7O0_OhKyN-68" value="Prioridad_de_atencion" style="ellipse;whiteSpace=wrap;html=1;align=center;" vertex="1" parent="1">
          <mxGeometry x="670" y="440" width="140" height="40" as="geometry" />
        </mxCell>
        <mxCell id="aRUOHbeHuca7O0_OhKyN-69" value="" style="endArrow=none;html=1;rounded=0;exitX=0.5;exitY=0;exitDx=0;exitDy=0;entryX=0.5;entryY=1;entryDx=0;entryDy=0;" edge="1" parent="1" source="aRUOHbeHuca7O0_OhKyN-68" target="aRUOHbeHuca7O0_OhKyN-6">
          <mxGeometry relative="1" as="geometry">
            <mxPoint x="570" y="360" as="sourcePoint" />
            <mxPoint x="730" y="360" as="targetPoint" />
          </mxGeometry>
        </mxCell>
        <mxCell id="aRUOHbeHuca7O0_OhKyN-70" value="Fecha_incidente" style="ellipse;whiteSpace=wrap;html=1;align=center;" vertex="1" parent="1">
          <mxGeometry x="560" y="560" width="100" height="40" as="geometry" />
        </mxCell>
        <mxCell id="aRUOHbeHuca7O0_OhKyN-71" value="" style="endArrow=none;html=1;rounded=0;exitX=1;exitY=1;exitDx=0;exitDy=0;entryX=0;entryY=0.5;entryDx=0;entryDy=0;" edge="1" parent="1" source="aRUOHbeHuca7O0_OhKyN-5" target="aRUOHbeHuca7O0_OhKyN-70">
          <mxGeometry relative="1" as="geometry">
            <mxPoint x="570" y="560" as="sourcePoint" />
            <mxPoint x="730" y="560" as="targetPoint" />
          </mxGeometry>
        </mxCell>
        <mxCell id="aRUOHbeHuca7O0_OhKyN-72" value="&lt;h1 style=&quot;margin-top: 0px;&quot;&gt;MER&lt;/h1&gt;&lt;div&gt;Usuario (&lt;u&gt;ID_usuario&lt;/u&gt;, Direccion, Telefono_usuario)&lt;/div&gt;&lt;div&gt;Tipo_Usuario(&lt;u&gt;ID_tipo_usuario&lt;/u&gt;, &lt;b&gt;Tipo_usuario&lt;/b&gt;, Prioridad_de_atencion, Tiempo_max_resp)&lt;/div&gt;&lt;div&gt;Cuadrilla&lt;u&gt;(ID_cuadrilla&lt;/u&gt;, Nombre_cuadrilla)&lt;/div&gt;&lt;div&gt;Incidente(&lt;u&gt;ID_incidente&lt;/u&gt;, &lt;b&gt;Tipo_incidente&lt;/b&gt;, Fecha_incidente, Descripcion)&lt;/div&gt;&lt;div&gt;Turnos(&lt;u&gt;ID_turno&lt;/u&gt;, &lt;b&gt;Tipo_turno&lt;/b&gt;, Dia, Hora_fin, Hora_inicio)&lt;/div&gt;&lt;div&gt;Requiere(&lt;u&gt;ID_cuadrilla&lt;/u&gt;,&lt;u&gt; ID_incidente&lt;/u&gt;)&lt;/div&gt;&lt;div&gt;Trabaja_en&lt;u&gt;(ID_cuadrilla. ID_turno)&lt;/u&gt;&lt;/div&gt;" style="text;html=1;whiteSpace=wrap;overflow=hidden;rounded=0;" vertex="1" parent="1">
          <mxGeometry x="140" y="880" width="510" height="180" as="geometry" />
        </mxCell>
      </root>
    </mxGraphModel>
  </diagram>
</mxfile>
